<svg width="30" height="30" viewBox="0 0 30 30" fill="none" xmlns="http://www.w3.org/2000/svg">
<circle cx="15" cy="15" r="15" fill="url(#paint0_linear)"/>
<path d="M15 8C18.3336 12.263 20 15.2961 20 17.1C20 17.7435 19.8707 18.3807 19.6194 18.9751C19.3681 19.5696 18.9998 20.1098 18.5355 20.5648C18.0712 21.0198 17.52 21.3808 16.9134 21.627C16.3068 21.8733 15.6566 22 15 22C14.3434 22 13.6932 21.8733 13.0866 21.627C12.48 21.3808 11.9288 21.0198 11.4645 20.5648C11.0002 20.1098 10.6319 19.5696 10.3806 18.9751C10.1293 18.3807 10 17.7435 10 17.1C10 15.2961 11.6664 12.263 15 8Z" fill="white"/>
<defs>
<linearGradient id="paint0_linear" x1="30" y1="-9.16666" x2="-6.28696" y2="-7.72156" gradientUnits="userSpaceOnUse">
<stop stop-color="#5A7FFF"/>
<stop offset="1" stop-color="#3E94E3"/>
</linearGradient>
</defs>
</svg>
