<svg width="30" height="30" viewBox="0 0 30 30" fill="none" xmlns="http://www.w3.org/2000/svg">
<circle cx="15" cy="15" r="15" fill="url(#paint0_linear)"/>
<g clip-path="url(#clip0)">
<path d="M15.0515 8H15.49V13.8965H15.0515V8Z" fill="#D3D3D3"/>
<path d="M16.2302 15.1228H14.2699V13.7837C14.2699 13.4957 14.5161 13.2623 14.8198 13.2623H15.6802C15.984 13.2623 16.2302 13.4957 16.2302 13.7837V15.1228Z" fill="white"/>
<path d="M15.6806 13.2623H14.8195C14.7995 13.2623 14.7796 13.2635 14.76 13.2655C15.0355 13.2937 15.2501 13.515 15.2501 13.784V15.1228H16.2302V13.784C16.2302 13.4959 15.9842 13.2623 15.6806 13.2623Z" fill="white"/>
<path d="M17.1083 16.5053H13.3916V15.5355C13.3916 14.9152 13.9222 14.4123 14.5767 14.4123H15.9232C16.5777 14.4123 17.1084 14.9152 17.1084 15.5355V16.5053H17.1083Z" fill="white"/>
<path d="M15.924 14.4123H14.8256C15.4796 14.4123 16.0099 14.9155 16.0099 15.5363V16.5053H17.1082V15.5363C17.1082 14.9155 16.578 14.4123 15.924 14.4123Z" fill="white"/>
<path d="M19.1075 18.3391C19.1075 20.361 17.3806 22 15.2501 22C13.1197 22 11.3926 20.361 11.3926 18.3391H19.1075Z" fill="#E4E4E4"/>
<path d="M17.6461 18.3391C17.6461 20.124 16.3002 21.6102 14.519 21.9342C14.7558 21.9773 15.0001 22 15.2501 22C17.3805 22 19.1075 20.361 19.1075 18.3391H17.6461Z" fill="white"/>
<path d="M20.3243 19.666H10.1758C10.0788 19.666 10 19.5915 10 19.4995V19.3317C10 17.3238 11.7173 15.6962 13.8357 15.6962H16.6643C18.7827 15.6962 20.5 17.3238 20.5 19.3317V19.4995C20.5 19.5915 20.4214 19.666 20.3243 19.666Z" fill="white"/>
<path d="M16.6667 15.6962H15.2053C17.3225 15.6962 19.0386 17.325 19.0386 19.3341V19.4995C19.0386 19.5915 18.96 19.6661 18.8631 19.6661H20.3244C20.4214 19.6661 20.5 19.5915 20.5 19.4995V19.3341C20.5 17.325 18.7838 15.6962 16.6667 15.6962Z" fill="white"/>
</g>
<defs>
<linearGradient id="paint0_linear" x1="30" y1="-9.16666" x2="-6.28696" y2="-7.72156" gradientUnits="userSpaceOnUse">
<stop stop-color="#FF825A"/>
<stop offset="1" stop-color="#E35B3E"/>
</linearGradient>
<clipPath id="clip0">
<rect width="18" height="18" fill="white" transform="translate(6 6)"/>
</clipPath>
</defs>
</svg>
