<svg width="243" height="184" viewBox="0 0 243 184" fill="none" xmlns="http://www.w3.org/2000/svg">
<path d="M7.03161 149.912H10.2333V159H11.4663V149.912H14.668V148.818H7.03161V149.912ZM17.6199 159.179C18.9522 159.179 19.6483 158.463 19.8869 157.966H19.9466V159H21.1199V153.969C21.1199 151.543 19.2704 151.264 18.296 151.264C17.1426 151.264 15.8301 151.662 15.2335 153.054L16.3471 153.452C16.6056 152.895 17.2172 152.298 18.3358 152.298C19.4146 152.298 19.9466 152.87 19.9466 153.849V153.889C19.9466 154.456 19.3699 154.406 17.9778 154.585C16.5609 154.769 15.0147 155.082 15.0147 156.832C15.0147 158.324 16.1681 159.179 17.6199 159.179ZM17.7988 158.125C16.8642 158.125 16.188 157.707 16.188 156.892C16.188 155.997 17.0034 155.719 17.9181 155.599C18.4153 155.54 19.7477 155.401 19.9466 155.162V156.236C19.9466 157.19 19.1909 158.125 17.7988 158.125ZM23.2614 159H24.4347V154.227C24.4347 153.109 25.25 152.318 26.1648 152.318C27.0547 152.318 27.6761 152.9 27.6761 153.77V159H28.8693V154.028C28.8693 153.044 29.4858 152.318 30.5597 152.318C31.3949 152.318 32.1108 152.761 32.1108 153.889V159H33.2841V153.889C33.2841 152.094 32.3196 151.264 30.9574 151.264C29.8636 151.264 29.0632 151.766 28.6705 152.557H28.5909C28.2131 151.741 27.5469 151.264 26.5426 151.264C25.5483 151.264 24.8125 151.741 24.4943 152.557H24.3949V151.364H23.2614V159ZM35.5884 159H36.7219V157.827H36.8612C37.1197 158.244 37.6168 159.159 39.0884 159.159C40.9975 159.159 42.3299 157.628 42.3299 155.202C42.3299 152.795 40.9975 151.264 39.0685 151.264C37.5771 151.264 37.1197 152.179 36.8612 152.577H36.7617V148.818H35.5884V159ZM36.7418 155.182C36.7418 153.472 37.4975 152.318 38.9293 152.318C40.4208 152.318 41.1566 153.571 41.1566 155.182C41.1566 156.812 40.4009 158.105 38.9293 158.105C37.5174 158.105 36.7418 156.912 36.7418 155.182ZM46.3718 159.179C47.7042 159.179 48.4002 158.463 48.6388 157.966H48.6985V159H49.8718V153.969C49.8718 151.543 48.0224 151.264 47.0479 151.264C45.8945 151.264 44.582 151.662 43.9854 153.054L45.0991 153.452C45.3576 152.895 45.9691 152.298 47.0877 152.298C48.1665 152.298 48.6985 152.87 48.6985 153.849V153.889C48.6985 154.456 48.1218 154.406 46.7298 154.585C45.3129 154.769 43.7667 155.082 43.7667 156.832C43.7667 158.324 44.9201 159.179 46.3718 159.179ZM46.5508 158.125C45.6161 158.125 44.94 157.707 44.94 156.892C44.94 155.997 45.7553 155.719 46.6701 155.599C47.1673 155.54 48.4996 155.401 48.6985 155.162V156.236C48.6985 157.19 47.9428 158.125 46.5508 158.125ZM53.1866 154.406C53.1866 153.074 54.0368 152.318 55.1951 152.318C56.2988 152.318 56.965 153.014 56.965 154.227V159H58.1383V154.148C58.1383 152.184 57.0943 151.264 55.5332 151.264C54.3301 151.264 53.644 151.766 53.286 152.557H53.1866V148.818H52.0133V159H53.1866V154.406ZM60.2848 159H61.4581V156.141L62.2784 155.381L65.1371 159H66.6286L63.1634 154.625L66.3899 151.364H64.9382L61.5973 154.764H61.4581V148.818H60.2848V159ZM70.1472 159.179C71.4796 159.179 72.1756 158.463 72.4142 157.966H72.4739V159H73.6472V153.969C73.6472 151.543 71.7978 151.264 70.8233 151.264C69.6699 151.264 68.3574 151.662 67.7608 153.054L68.8745 153.452C69.133 152.895 69.7445 152.298 70.8631 152.298C71.9419 152.298 72.4739 152.87 72.4739 153.849V153.889C72.4739 154.456 71.8972 154.406 70.5051 154.585C69.0882 154.769 67.5421 155.082 67.5421 156.832C67.5421 158.324 68.6955 159.179 70.1472 159.179ZM70.3262 158.125C69.3915 158.125 68.7154 157.707 68.7154 156.892C68.7154 155.997 69.5307 155.719 70.4455 155.599C70.9426 155.54 72.275 155.401 72.4739 155.162V156.236C72.4739 157.19 71.7182 158.125 70.3262 158.125ZM76.962 154.406C76.962 153.074 77.7873 152.318 78.9109 152.318C79.9996 152.318 80.6609 153.029 80.6609 154.227V159H81.8342V154.148C81.8342 152.199 80.7951 151.264 79.2489 151.264C78.0955 151.264 77.3796 151.781 77.0217 152.557H76.9222V151.364H75.7887V159H76.962V154.406ZM90.1628 159.179C91.4952 159.179 92.1912 158.463 92.4299 157.966H92.4895V159H93.6628V153.969C93.6628 151.543 91.8134 151.264 90.839 151.264C89.6855 151.264 88.373 151.662 87.7765 153.054L88.8901 153.452C89.1486 152.895 89.7601 152.298 90.8787 152.298C91.9576 152.298 92.4895 152.87 92.4895 153.849V153.889C92.4895 154.456 91.9128 154.406 90.5208 154.585C89.1039 154.769 87.5577 155.082 87.5577 156.832C87.5577 158.324 88.7111 159.179 90.1628 159.179ZM90.3418 158.125C89.4071 158.125 88.731 157.707 88.731 156.892C88.731 155.997 89.5463 155.719 90.4611 155.599C90.9583 155.54 92.2907 155.401 92.4895 155.162V156.236C92.4895 157.19 91.7338 158.125 90.3418 158.125ZM96.9776 154.406C96.9776 153.074 97.8029 152.318 98.9265 152.318C100.015 152.318 100.676 153.029 100.676 154.227V159H101.85V154.148C101.85 152.199 100.811 151.264 99.2646 151.264C98.1112 151.264 97.3952 151.781 97.0373 152.557H96.9379V151.364H95.8043V159H96.9776V154.406ZM107.076 162.023C108.906 162.023 110.377 161.188 110.377 159.219V151.364H109.244V152.577H109.124C108.866 152.179 108.389 151.264 106.897 151.264C104.968 151.264 103.636 152.795 103.636 155.142C103.636 157.528 105.028 158.881 106.877 158.881C108.369 158.881 108.846 158.006 109.105 157.588H109.204V159.139C109.204 160.412 108.309 160.989 107.076 160.989C105.689 160.989 105.202 160.258 104.889 159.835L103.954 160.491C104.431 161.292 105.371 162.023 107.076 162.023ZM107.036 157.827C105.565 157.827 104.809 156.713 104.809 155.122C104.809 153.571 105.545 152.318 107.036 152.318C108.468 152.318 109.224 153.472 109.224 155.122C109.224 156.812 108.448 157.827 107.036 157.827ZM115.607 162.023C117.437 162.023 118.909 161.188 118.909 159.219V151.364H117.775V152.577H117.656C117.397 152.179 116.92 151.264 115.428 151.264C113.499 151.264 112.167 152.795 112.167 155.142C112.167 157.528 113.559 158.881 115.409 158.881C116.9 158.881 117.377 158.006 117.636 157.588H117.735V159.139C117.735 160.412 116.84 160.989 115.607 160.989C114.22 160.989 113.733 160.258 113.42 159.835L112.485 160.491C112.963 161.292 113.902 162.023 115.607 162.023ZM115.568 157.827C114.096 157.827 113.34 156.713 113.34 155.122C113.34 153.571 114.076 152.318 115.568 152.318C116.999 152.318 117.755 153.472 117.755 155.122C117.755 156.812 116.98 157.827 115.568 157.827ZM123.303 159.179C124.636 159.179 125.332 158.463 125.57 157.966H125.63V159H126.803V153.969C126.803 151.543 124.954 151.264 123.98 151.264C122.826 151.264 121.514 151.662 120.917 153.054L122.031 153.452C122.289 152.895 122.901 152.298 124.019 152.298C125.098 152.298 125.63 152.87 125.63 153.849V153.889C125.63 154.456 125.053 154.406 123.661 154.585C122.244 154.769 120.698 155.082 120.698 156.832C120.698 158.324 121.852 159.179 123.303 159.179ZM123.482 158.125C122.548 158.125 121.872 157.707 121.872 156.892C121.872 155.997 122.687 155.719 123.602 155.599C124.099 155.54 125.431 155.401 125.63 155.162V156.236C125.63 157.19 124.874 158.125 123.482 158.125ZM128.945 159H130.118V154.168C130.118 153.134 130.934 152.378 132.047 152.378C132.36 152.378 132.684 152.438 132.763 152.457V151.264C132.629 151.254 132.321 151.244 132.147 151.244C131.232 151.244 130.436 151.761 130.158 152.517H130.078V151.364H128.945V159ZM136.401 159.179C137.733 159.179 138.43 158.463 138.668 157.966H138.728V159H139.901V153.969C139.901 151.543 138.052 151.264 137.077 151.264C135.924 151.264 134.611 151.662 134.015 153.054L135.128 153.452C135.387 152.895 135.998 152.298 137.117 152.298C138.196 152.298 138.728 152.87 138.728 153.849V153.889C138.728 154.456 138.151 154.406 136.759 154.585C135.342 154.769 133.796 155.082 133.796 156.832C133.796 158.324 134.949 159.179 136.401 159.179ZM136.58 158.125C135.645 158.125 134.969 157.707 134.969 156.892C134.969 155.997 135.785 155.719 136.699 155.599C137.197 155.54 138.529 155.401 138.728 155.162V156.236C138.728 157.19 137.972 158.125 136.58 158.125ZM143.216 154.406C143.216 153.074 144.041 152.318 145.165 152.318C146.254 152.318 146.915 153.029 146.915 154.227V159H148.088V154.148C148.088 152.199 147.049 151.264 145.503 151.264C144.349 151.264 143.634 151.781 143.276 152.557H143.176V151.364H142.043V159H143.216V154.406ZM156.417 159.179C157.749 159.179 158.445 158.463 158.684 157.966H158.743V159H159.917V153.969C159.917 151.543 158.067 151.264 157.093 151.264C155.939 151.264 154.627 151.662 154.03 153.054L155.144 153.452C155.403 152.895 156.014 152.298 157.133 152.298C158.211 152.298 158.743 152.87 158.743 153.849V153.889C158.743 154.456 158.167 154.406 156.775 154.585C155.358 154.769 153.812 155.082 153.812 156.832C153.812 158.324 154.965 159.179 156.417 159.179ZM156.596 158.125C155.661 158.125 154.985 157.707 154.985 156.892C154.985 155.997 155.8 155.719 156.715 155.599C157.212 155.54 158.545 155.401 158.743 155.162V156.236C158.743 157.19 157.988 158.125 156.596 158.125ZM163.232 154.406C163.232 153.074 164.057 152.318 165.18 152.318C166.269 152.318 166.93 153.029 166.93 154.227V159H168.104V154.148C168.104 152.199 167.065 151.264 165.518 151.264C164.365 151.264 163.649 151.781 163.291 152.557H163.192V151.364H162.058V159H163.232V154.406ZM173.131 159.159C174.603 159.159 175.1 158.244 175.358 157.827H175.498V159H176.631V148.818H175.458V152.577H175.358C175.1 152.179 174.643 151.264 173.151 151.264C171.222 151.264 169.89 152.795 169.89 155.202C169.89 157.628 171.222 159.159 173.131 159.159ZM173.29 158.105C171.819 158.105 171.063 156.812 171.063 155.182C171.063 153.571 171.799 152.318 173.29 152.318C174.722 152.318 175.478 153.472 175.478 155.182C175.478 156.912 174.702 158.105 173.29 158.105ZM181.19 159.179C182.523 159.179 183.219 158.463 183.457 157.966H183.517V159H184.69V153.969C184.69 151.543 182.841 151.264 181.866 151.264C180.713 151.264 179.4 151.662 178.804 153.054L179.917 153.452C180.176 152.895 180.787 152.298 181.906 152.298C182.985 152.298 183.517 152.87 183.517 153.849V153.889C183.517 154.456 182.94 154.406 181.548 154.585C180.131 154.769 178.585 155.082 178.585 156.832C178.585 158.324 179.738 159.179 181.19 159.179ZM181.369 158.125C180.434 158.125 179.758 157.707 179.758 156.892C179.758 155.997 180.574 155.719 181.488 155.599C181.986 155.54 183.318 155.401 183.517 155.162V156.236C183.517 157.19 182.761 158.125 181.369 158.125ZM196.178 153.074C195.81 151.99 194.985 151.264 193.474 151.264C191.863 151.264 190.67 152.179 190.67 153.472C190.67 154.526 191.296 155.232 192.698 155.56L193.971 155.858C194.741 156.037 195.104 156.405 195.104 156.932C195.104 157.588 194.408 158.125 193.315 158.125C192.355 158.125 191.754 157.712 191.545 156.892L190.431 157.17C190.705 158.468 191.773 159.159 193.335 159.159C195.109 159.159 196.317 158.19 196.317 156.872C196.317 155.808 195.651 155.137 194.289 154.804L193.156 154.526C192.251 154.302 191.843 153.999 191.843 153.412C191.843 152.756 192.539 152.278 193.474 152.278C194.498 152.278 194.92 152.845 195.124 153.372L196.178 153.074ZM200.331 159.179C201.663 159.179 202.359 158.463 202.598 157.966H202.657V159H203.831V153.969C203.831 151.543 201.981 151.264 201.007 151.264C199.854 151.264 198.541 151.662 197.944 153.054L199.058 153.452C199.317 152.895 199.928 152.298 201.047 152.298C202.126 152.298 202.657 152.87 202.657 153.849V153.889C202.657 154.456 202.081 154.406 200.689 154.585C199.272 154.769 197.726 155.082 197.726 156.832C197.726 158.324 198.879 159.179 200.331 159.179ZM200.51 158.125C199.575 158.125 198.899 157.707 198.899 156.892C198.899 155.997 199.714 155.719 200.629 155.599C201.126 155.54 202.459 155.401 202.657 155.162V156.236C202.657 157.19 201.902 158.125 200.51 158.125ZM208.219 159.179C209.552 159.179 210.248 158.463 210.487 157.966H210.546V159H211.719V153.969C211.719 151.543 209.87 151.264 208.896 151.264C207.742 151.264 206.43 151.662 205.833 153.054L206.947 153.452C207.205 152.895 207.817 152.298 208.935 152.298C210.014 152.298 210.546 152.87 210.546 153.849V153.889C210.546 154.456 209.969 154.406 208.577 154.585C207.161 154.769 205.614 155.082 205.614 156.832C205.614 158.324 206.768 159.179 208.219 159.179ZM208.398 158.125C207.464 158.125 206.788 157.707 206.788 156.892C206.788 155.997 207.603 155.719 208.518 155.599C209.015 155.54 210.347 155.401 210.546 155.162V156.236C210.546 157.19 209.79 158.125 208.398 158.125ZM217.182 151.364H215.551V149.534H214.378V151.364H213.225V152.358H214.378V157.131C214.378 158.463 215.452 159.099 216.446 159.099C216.884 159.099 217.162 159.02 217.321 158.96L217.083 157.906C216.983 157.926 216.824 157.966 216.566 157.966C216.048 157.966 215.551 157.807 215.551 156.812V152.358H217.182V151.364ZM222.884 159H224.058V151.364H222.884V159ZM223.481 150.091C223.938 150.091 224.316 149.733 224.316 149.295C224.316 148.858 223.938 148.5 223.481 148.5C223.024 148.5 222.646 148.858 222.646 149.295C222.646 149.733 223.024 150.091 223.481 150.091ZM227.38 154.406C227.38 153.074 228.205 152.318 229.329 152.318C230.418 152.318 231.079 153.029 231.079 154.227V159H232.252V154.148C232.252 152.199 231.213 151.264 229.667 151.264C228.513 151.264 227.798 151.781 227.44 152.557H227.34V151.364H226.207V159H227.38V154.406ZM234.396 159H235.569V151.364H234.396V159ZM234.993 150.091C235.45 150.091 235.828 149.733 235.828 149.295C235.828 148.858 235.45 148.5 234.993 148.5C234.535 148.5 234.157 148.858 234.157 149.295C234.157 149.733 234.535 150.091 234.993 150.091ZM79.5006 181.864H80.6739V177.827H80.7733C81.0319 178.244 81.529 179.159 83.0006 179.159C84.9097 179.159 86.2421 177.628 86.2421 175.202C86.2421 172.795 84.9097 171.264 82.9807 171.264C81.4893 171.264 81.0319 172.179 80.7733 172.577H80.6341V171.364H79.5006V181.864ZM80.654 175.182C80.654 173.472 81.4097 172.318 82.8415 172.318C84.333 172.318 85.0688 173.571 85.0688 175.182C85.0688 176.812 84.3131 178.105 82.8415 178.105C81.4296 178.105 80.654 176.912 80.654 175.182ZM90.279 179.179C91.6114 179.179 92.3074 178.463 92.5461 177.966H92.6057V179H93.779V173.969C93.779 171.543 91.9296 171.264 90.9552 171.264C89.8018 171.264 88.4893 171.662 87.8927 173.054L89.0063 173.452C89.2648 172.895 89.8763 172.298 90.9949 172.298C92.0738 172.298 92.6057 172.87 92.6057 173.849V173.889C92.6057 174.456 92.029 174.406 90.637 174.585C89.2201 174.769 87.6739 175.082 87.6739 176.832C87.6739 178.324 88.8273 179.179 90.279 179.179ZM90.458 178.125C89.5233 178.125 88.8472 177.707 88.8472 176.892C88.8472 175.997 89.6626 175.719 90.5773 175.599C91.0745 175.54 92.4069 175.401 92.6057 175.162V176.236C92.6057 177.19 91.8501 178.125 90.458 178.125ZM98.8041 179.159C100.276 179.159 100.773 178.244 101.031 177.827H101.171V179H102.304V168.818H101.131V172.577H101.031C100.773 172.179 100.315 171.264 98.824 171.264C96.895 171.264 95.5626 172.795 95.5626 175.202C95.5626 177.628 96.895 179.159 98.8041 179.159ZM98.9632 178.105C97.4916 178.105 96.7359 176.812 96.7359 175.182C96.7359 173.571 97.4717 172.318 98.9632 172.318C100.395 172.318 101.151 173.472 101.151 175.182C101.151 176.912 100.375 178.105 98.9632 178.105ZM106.863 179.179C108.195 179.179 108.891 178.463 109.13 177.966H109.19V179H110.363V173.969C110.363 171.543 108.514 171.264 107.539 171.264C106.386 171.264 105.073 171.662 104.477 173.054L105.59 173.452C105.849 172.895 106.46 172.298 107.579 172.298C108.658 172.298 109.19 172.87 109.19 173.849V173.889C109.19 174.456 108.613 174.406 107.221 174.585C105.804 174.769 104.258 175.082 104.258 176.832C104.258 178.324 105.411 179.179 106.863 179.179ZM107.042 178.125C106.107 178.125 105.431 177.707 105.431 176.892C105.431 175.997 106.247 175.719 107.161 175.599C107.658 175.54 108.991 175.401 109.19 175.162V176.236C109.19 177.19 108.434 178.125 107.042 178.125ZM118.689 179.179C120.022 179.179 120.718 178.463 120.956 177.966H121.016V179H122.189V173.969C122.189 171.543 120.34 171.264 119.365 171.264C118.212 171.264 116.899 171.662 116.303 173.054L117.416 173.452C117.675 172.895 118.286 172.298 119.405 172.298C120.484 172.298 121.016 172.87 121.016 173.849V173.889C121.016 174.456 120.439 174.406 119.047 174.585C117.63 174.769 116.084 175.082 116.084 176.832C116.084 178.324 117.237 179.179 118.689 179.179ZM118.868 178.125C117.934 178.125 117.257 177.707 117.257 176.892C117.257 175.997 118.073 175.719 118.987 175.599C119.485 175.54 120.817 175.401 121.016 175.162V176.236C121.016 177.19 120.26 178.125 118.868 178.125ZM124.331 181.864H125.504V177.827H125.603C125.862 178.244 126.359 179.159 127.831 179.159C129.74 179.159 131.072 177.628 131.072 175.202C131.072 172.795 129.74 171.264 127.811 171.264C126.319 171.264 125.862 172.179 125.603 172.577H125.464V171.364H124.331V181.864ZM125.484 175.182C125.484 173.472 126.24 172.318 127.672 172.318C129.163 172.318 129.899 173.571 129.899 175.182C129.899 176.812 129.143 178.105 127.672 178.105C126.26 178.105 125.484 176.912 125.484 175.182ZM134.035 168.818H132.862V179H134.035V168.818ZM136.184 179H137.358V171.364H136.184V179ZM136.781 170.091C137.238 170.091 137.616 169.733 137.616 169.295C137.616 168.858 137.238 168.5 136.781 168.5C136.323 168.5 135.946 168.858 135.946 169.295C135.946 169.733 136.323 170.091 136.781 170.091ZM139.506 179H140.68V176.141L141.5 175.381L144.359 179H145.85L142.385 174.625L145.612 171.364H144.16L140.819 174.764H140.68V168.818H139.506V179ZM149.369 179.179C150.701 179.179 151.397 178.463 151.636 177.966H151.696V179H152.869V173.969C152.869 171.543 151.019 171.264 150.045 171.264C148.892 171.264 147.579 171.662 146.983 173.054L148.096 173.452C148.355 172.895 148.966 172.298 150.085 172.298C151.164 172.298 151.696 172.87 151.696 173.849V173.889C151.696 174.456 151.119 174.406 149.727 174.585C148.31 174.769 146.764 175.082 146.764 176.832C146.764 178.324 147.917 179.179 149.369 179.179ZM149.548 178.125C148.613 178.125 147.937 177.707 147.937 176.892C147.937 175.997 148.752 175.719 149.667 175.599C150.164 175.54 151.497 175.401 151.696 175.162V176.236C151.696 177.19 150.94 178.125 149.548 178.125ZM160.419 173.074C160.052 171.99 159.226 171.264 157.715 171.264C156.104 171.264 154.911 172.179 154.911 173.472C154.911 174.526 155.537 175.232 156.939 175.56L158.212 175.858C158.983 176.037 159.346 176.405 159.346 176.932C159.346 177.588 158.65 178.125 157.556 178.125C156.596 178.125 155.995 177.712 155.786 176.892L154.672 177.17C154.946 178.468 156.015 179.159 157.576 179.159C159.351 179.159 160.559 178.19 160.559 176.872C160.559 175.808 159.892 175.137 158.53 174.804L157.397 174.526C156.492 174.302 156.084 173.999 156.084 173.412C156.084 172.756 156.78 172.278 157.715 172.278C158.739 172.278 159.162 172.845 159.366 173.372L160.419 173.074ZM162.325 179H163.498V171.364H162.325V179ZM162.921 170.091C163.379 170.091 163.757 169.733 163.757 169.295C163.757 168.858 163.379 168.5 162.921 168.5C162.464 168.5 162.086 168.858 162.086 169.295C162.086 169.733 162.464 170.091 162.921 170.091Z" fill="#777777"/>
<path d="M59.4185 123L60.9299 118.357H68.2779L69.7892 123H74.4029L67.383 102.636H61.8347L54.8049 123H59.4185ZM62.0236 114.996L64.5293 107.29H64.6884L67.1941 114.996H62.0236ZM81.0101 114.17C81.0201 112.202 82.1934 111.048 83.9036 111.048C85.6039 111.048 86.628 112.162 86.6181 114.031V123H90.8539V113.276C90.8539 109.716 88.7658 107.528 85.584 107.528C83.3169 107.528 81.6763 108.642 80.9902 110.422H80.8113V107.727H76.7743V123H81.0101V114.17ZM101.073 128.946C105.438 128.946 108.54 126.957 108.54 123.149V107.727H104.334V110.293H104.175C103.608 109.05 102.366 107.528 99.8102 107.528C96.4593 107.528 93.6255 110.134 93.6255 115.334C93.6255 120.415 96.3798 122.781 99.8201 122.781C102.256 122.781 103.618 121.558 104.175 120.295H104.354V123.089C104.354 125.088 103.012 125.903 101.172 125.903C99.3031 125.903 98.3585 125.088 98.0105 124.263L94.0929 124.79C94.6 127.097 96.9565 128.946 101.073 128.946ZM101.162 119.599C99.0843 119.599 97.9508 117.949 97.9508 115.314C97.9508 112.719 99.0645 110.899 101.162 110.899C103.221 110.899 104.374 112.639 104.374 115.314C104.374 118.009 103.201 119.599 101.162 119.599ZM118.792 128.946C123.157 128.946 126.259 126.957 126.259 123.149V107.727H122.053V110.293H121.894C121.327 109.05 120.084 107.528 117.529 107.528C114.178 107.528 111.344 110.134 111.344 115.334C111.344 120.415 114.099 122.781 117.539 122.781C119.975 122.781 121.337 121.558 121.894 120.295H122.073V123.089C122.073 125.088 120.731 125.903 118.891 125.903C117.022 125.903 116.077 125.088 115.729 124.263L111.812 124.79C112.319 127.097 114.675 128.946 118.792 128.946ZM118.881 119.599C116.803 119.599 115.67 117.949 115.67 115.314C115.67 112.719 116.783 110.899 118.881 110.899C120.939 110.899 122.093 112.639 122.093 115.314C122.093 118.009 120.92 119.599 118.881 119.599ZM133.985 123.288C136.242 123.288 137.704 122.304 138.449 120.882H138.569V123H142.586V112.699C142.586 109.06 139.503 107.528 136.103 107.528C132.444 107.528 130.037 109.278 129.451 112.062L133.368 112.381C133.657 111.366 134.562 110.621 136.083 110.621C137.525 110.621 138.35 111.347 138.35 112.599V112.659C138.35 113.643 137.306 113.773 134.651 114.031C131.628 114.31 128.914 115.324 128.914 118.734C128.914 121.757 131.072 123.288 133.985 123.288ZM135.198 120.365C133.895 120.365 132.961 119.759 132.961 118.595C132.961 117.402 133.945 116.815 135.437 116.607C136.361 116.477 137.873 116.259 138.38 115.92V117.541C138.38 119.142 137.057 120.365 135.198 120.365ZM145.872 123H150.108V114.359C150.108 112.48 151.48 111.188 153.349 111.188C153.936 111.188 154.741 111.287 155.139 111.416V107.658C154.761 107.568 154.234 107.509 153.807 107.509C152.096 107.509 150.694 108.503 150.138 110.392H149.979V107.727H145.872V123ZM161.247 123.288C163.504 123.288 164.965 122.304 165.711 120.882H165.83V123H169.847V112.699C169.847 109.06 166.765 107.528 163.365 107.528C159.705 107.528 157.299 109.278 156.713 112.062L160.63 112.381C160.919 111.366 161.823 110.621 163.345 110.621C164.786 110.621 165.612 111.347 165.612 112.599V112.659C165.612 113.643 164.568 113.773 161.913 114.031C158.89 114.31 156.176 115.324 156.176 118.734C156.176 121.757 158.333 123.288 161.247 123.288ZM162.46 120.365C161.157 120.365 160.222 119.759 160.222 118.595C160.222 117.402 161.207 116.815 162.698 116.607C163.623 116.477 165.134 116.259 165.642 115.92V117.541C165.642 119.142 164.319 120.365 162.46 120.365ZM177.369 114.17C177.379 112.202 178.553 111.048 180.263 111.048C181.963 111.048 182.987 112.162 182.977 114.031V123H187.213V113.276C187.213 109.716 185.125 107.528 181.943 107.528C179.676 107.528 178.036 108.642 177.35 110.422H177.171V107.727H173.134V123H177.369V114.17Z" fill="#373737"/>
<path fill-rule="evenodd" clip-rule="evenodd" d="M121.01 51.7976V40.5023C121.01 36.8368 123.814 33.8563 127.269 33.8563H150.256V26.8188C150.256 23.4811 148.279 20.6916 145.573 19.7813V19.7862L137.493 19.7177L137.395 19.4338H101.126L100.436 19.6687L87.6427 19.659L87.6183 19.5562C84.5057 20.1435 82 22.9624 82 26.5888V65.5105C82 69.5823 85.1713 73.1206 88.8075 73.1206H143.688C147.325 73.1206 150.261 69.8123 150.261 65.7405V58.6296H127.274C123.819 58.6296 121.01 55.4632 121.01 51.7976Z" fill="url(#paint0_linear)"/>
<path fill-rule="evenodd" clip-rule="evenodd" d="M155.307 39.2006H130.803C128.214 39.2006 126.114 41.4909 126.114 44.3148V48.3082C126.114 51.1271 128.214 53.4175 130.803 53.4175H155.307C157.896 53.4175 160 51.1271 160 48.3082V44.3148C160 41.486 157.896 39.2006 155.307 39.2006ZM140.796 48.7683H130.705V43.796H140.796V48.7683Z" fill="url(#paint1_linear)"/>
<path fill-rule="evenodd" clip-rule="evenodd" d="M101.131 19.4339L133.583 8.32952L137.4 19.4339H143.689C144.349 19.4339 144.976 19.5758 145.578 19.7765L138.78 0L87.0508 17.2316L87.6234 19.5612C88.01 19.4878 88.4064 19.4388 88.8077 19.4388H101.131V19.4339Z" fill="url(#paint2_linear)"/>
<defs>
<linearGradient id="paint0_linear" x1="150.261" y1="3.02955" x2="67.7754" y2="7.20625" gradientUnits="userSpaceOnUse">
<stop stop-color="#5A7FFF"/>
<stop offset="1" stop-color="#3E94E3"/>
</linearGradient>
<linearGradient id="paint1_linear" x1="160" y1="34.8565" x2="119.315" y2="38.7184" gradientUnits="userSpaceOnUse">
<stop stop-color="#5A7FFF"/>
<stop offset="1" stop-color="#3E94E3"/>
</linearGradient>
<linearGradient id="paint2_linear" x1="145.578" y1="-6.04282" x2="75.6447" y2="2.19927" gradientUnits="userSpaceOnUse">
<stop stop-color="#5A7FFF"/>
<stop offset="1" stop-color="#3E94E3"/>
</linearGradient>
</defs>
</svg>
