<svg width="30" height="30" viewBox="0 0 30 30" fill="none" xmlns="http://www.w3.org/2000/svg">
<circle cx="15" cy="15" r="15" fill="url(#paint0_linear)"/>
<path d="M19.954 10.8522L19.8901 11.4548L19.8505 11.8269L18.8559 21.1919C18.7771 21.9358 18.1496 22.5 17.4016 22.5H12.2459C11.498 22.5 10.8708 21.9358 10.7917 21.1919L9.79731 11.8269L9.75776 11.4548L9.6936 10.8522H19.954Z" fill="white"/>
<path d="M14.8385 14.0039L15.4601 15.9169H17.4716L15.8442 17.0992L16.4658 19.0123L14.8385 17.83L13.2112 19.0123L13.8328 17.0992L12.2054 15.9169H14.2169L14.8385 14.0039Z" fill="#4A8BF0"/>
<path d="M19.954 10.8522L19.8901 11.4548L19.8505 11.8269H9.79731L9.75776 11.4548L9.6936 10.8522L14.3011 9.17615L19.954 10.8522Z" fill="#F0F0F0"/>
<path d="M20.0209 10.8523H9.62681C9.28063 10.8523 9 10.5716 9 10.2255V8.12681C9 7.78063 9.28063 7.5 9.62681 7.5H20.0208C20.367 7.5 20.6476 7.78063 20.6476 8.12681V10.2255C20.6477 10.5716 20.367 10.8523 20.0209 10.8523Z" fill="white"/>
<defs>
<linearGradient id="paint0_linear" x1="30" y1="-9.16666" x2="-6.28696" y2="-7.72156" gradientUnits="userSpaceOnUse">
<stop stop-color="#5A7FFF"/>
<stop offset="1" stop-color="#3E94E3"/>
</linearGradient>
</defs>
</svg>
