<svg width="30" height="30" viewBox="0 0 30 30" fill="none" xmlns="http://www.w3.org/2000/svg">
<circle cx="15" cy="15" r="15" fill="url(#paint0_linear)"/>
<path d="M21.579 13.6163L20.553 10.5382C20.4042 10.0901 20.1179 9.70027 19.7348 9.42413C19.3518 9.14799 18.8915 8.99958 18.4193 9H16.5V7.5H13.5V9H11.5807C11.1085 8.99958 10.6482 9.14799 10.2652 9.42413C9.88212 9.70027 9.59584 10.0901 9.447 10.5382L8.421 13.6163C8.14817 13.7304 7.91517 13.9227 7.7513 14.1689C7.58743 14.4151 7.5 14.7042 7.5 15V18.75C7.5 19.3035 7.803 19.782 8.25 20.0422V21.75C8.25 21.9489 8.32902 22.1397 8.46967 22.2803C8.61032 22.421 8.80109 22.5 9 22.5H9.75C9.94891 22.5 10.1397 22.421 10.2803 22.2803C10.421 22.1397 10.5 21.9489 10.5 21.75V20.25H19.5V21.75C19.5 21.9489 19.579 22.1397 19.7197 22.2803C19.8603 22.421 20.0511 22.5 20.25 22.5H21C21.1989 22.5 21.3897 22.421 21.5303 22.2803C21.671 22.1397 21.75 21.9489 21.75 21.75V20.0422C21.9775 19.9118 22.1667 19.7236 22.2983 19.4967C22.43 19.2699 22.4996 19.0123 22.5 18.75V15C22.5 14.7042 22.4126 14.4151 22.2487 14.1689C22.0848 13.9227 21.8518 13.7304 21.579 13.6163ZM11.5807 10.5H18.4185C18.7418 10.5 19.0282 10.7055 19.1302 11.013L19.9598 13.5H10.0403L10.869 11.013C10.9188 10.8636 11.0143 10.7336 11.142 10.6416C11.2698 10.5495 11.4233 10.5 11.5807 10.5ZM10.125 18C9.97721 18 9.83088 17.9708 9.69437 17.9142C9.55785 17.8576 9.43382 17.7747 9.32935 17.6701C9.22488 17.5656 9.14203 17.4415 9.08552 17.3049C9.02901 17.1684 8.99995 17.022 9 16.8742C9.00005 16.7265 9.02921 16.5801 9.08581 16.4436C9.14241 16.3071 9.22534 16.1831 9.32988 16.0786C9.43442 15.9741 9.5585 15.8913 9.69506 15.8348C9.83161 15.7783 9.97796 15.7492 10.1258 15.7492C10.4242 15.7493 10.7104 15.868 10.9214 16.0791C11.1324 16.2902 11.2508 16.5765 11.2508 16.875C11.2507 17.1735 11.132 17.4597 10.9209 17.6707C10.7098 17.8816 10.4235 18.0001 10.125 18ZM19.875 18C19.7272 18 19.5809 17.9708 19.4444 17.9142C19.3078 17.8576 19.1838 17.7747 19.0793 17.6701C18.9749 17.5656 18.892 17.4415 18.8355 17.3049C18.779 17.1684 18.75 17.022 18.75 16.8742C18.75 16.7265 18.7792 16.5801 18.8358 16.4436C18.8924 16.3071 18.9753 16.1831 19.0799 16.0786C19.1844 15.9741 19.3085 15.8913 19.4451 15.8348C19.5816 15.7783 19.728 15.7492 19.8757 15.7492C20.1742 15.7493 20.4604 15.868 20.6714 16.0791C20.8824 16.2902 21.0008 16.5765 21.0007 16.875C21.0007 17.1735 20.882 17.4597 20.6709 17.6707C20.4598 17.8816 20.1735 18.0001 19.875 18Z" fill="white"/>
<defs>
<linearGradient id="paint0_linear" x1="30" y1="-9.16666" x2="-6.28696" y2="-7.72156" gradientUnits="userSpaceOnUse">
<stop stop-color="#5A7FFF"/>
<stop offset="1" stop-color="#3E94E3"/>
</linearGradient>
</defs>
</svg>
