<svg width="351" height="19" viewBox="0 0 351 19" fill="none" xmlns="http://www.w3.org/2000/svg">
<path d="M159.886 15L161.057 11.7045H165.761L166.932 15H168.409L164.136 3.36364H162.682L158.409 15H159.886ZM161.5 10.4545L163.364 5.20455H163.455L165.318 10.4545H161.5ZM173.288 6.27273H171.425V4.18182H170.084V6.27273H168.766V7.40909H170.084V12.8636C170.084 14.3864 171.311 15.1136 172.447 15.1136C172.947 15.1136 173.266 15.0227 173.447 14.9545L173.175 13.75C173.061 13.7727 172.879 13.8182 172.584 13.8182C171.993 13.8182 171.425 13.6364 171.425 12.5V7.40909H173.288V6.27273ZM177.874 15.2045C179.396 15.2045 180.192 14.3864 180.464 13.8182H180.533V15H181.874V9.25C181.874 6.47727 179.76 6.15909 178.646 6.15909C177.328 6.15909 175.828 6.61364 175.146 8.20455L176.419 8.65909C176.714 8.02273 177.413 7.34091 178.692 7.34091C179.925 7.34091 180.533 7.99432 180.533 9.11364V9.15909C180.533 9.80682 179.874 9.75 178.283 9.95455C176.663 10.1648 174.896 10.5227 174.896 12.5227C174.896 14.2273 176.214 15.2045 177.874 15.2045ZM178.078 14C177.01 14 176.237 13.5227 176.237 12.5909C176.237 11.5682 177.169 11.25 178.214 11.1136C178.783 11.0455 180.305 10.8864 180.533 10.6136V11.8409C180.533 12.9318 179.669 14 178.078 14ZM189.821 11.4318C189.821 13.0682 188.571 13.8182 187.571 13.8182C186.457 13.8182 185.662 13 185.662 11.7273V6.27273H184.321V11.8182C184.321 14.0455 185.503 15.1136 187.139 15.1136C188.457 15.1136 189.321 14.4091 189.73 13.5227H189.821V15H191.162V6.27273H189.821V11.4318Z" fill="#777777"/>
<path d="M0 9H143" stroke="#DEDEDE"/>
<path d="M208 9H351" stroke="#DEDEDE"/>
</svg>
