<svg width="30" height="30" viewBox="0 0 30 30" fill="none" xmlns="http://www.w3.org/2000/svg">
<circle cx="15" cy="15" r="15" fill="url(#paint0_linear)"/>
<g clip-path="url(#clip0)">
<path d="M18.5899 12.3349H18.0752C17.8487 12.3349 17.665 12.1513 17.665 11.9247V11.4099C17.665 9.37427 19.3433 8 21.0749 8H21.5898C21.8163 8 22 8.18364 22 8.41016V8.92504C22 10.8051 20.48 12.3349 18.5899 12.3349Z" fill="#E2E2E2"/>
<path d="M18.5899 12.3349C20.48 12.3349 21.9999 10.8051 21.9999 8.92504V8.41015C21.9999 8.2969 21.954 8.19436 21.8798 8.12012L17.7852 12.2148C17.8594 12.289 17.9619 12.3349 18.0752 12.3349H18.5899Z" fill="white"/>
<path d="M21.88 12.9527L21.3384 12.4111C20.76 11.833 19.9912 11.5146 19.1734 11.5146C18.9028 11.5146 18.6376 11.5497 18.3827 11.6174C18.4504 11.3625 18.4855 11.0972 18.4855 10.8264C18.4855 10.0085 18.167 9.23967 17.5888 8.66171C17.3029 8.37566 17.0474 8.12014 17.0474 8.12014C16.8873 7.95995 16.6276 7.95995 16.4674 8.12014L15.926 8.66154C15.3477 9.23954 15.0293 10.0084 15.0293 10.8264V14.5607C15.0293 14.7872 15.2129 14.9708 15.4395 14.9708H19.1735H19.1737C19.9912 14.9708 20.7601 14.6524 21.3385 14.0742L21.88 13.5327C22.0401 13.3725 22.0401 13.1128 21.88 12.9527Z" fill="white"/>
<path d="M11.4854 18.1045C11.5904 18.1045 11.6954 18.1445 11.7754 18.2246C11.9356 18.3848 11.9356 18.6445 11.7754 18.8047L8.70018 21.8799C8.54003 22.0401 8.28032 22.0401 8.12014 21.8799C7.95995 21.7198 7.95995 21.4601 8.12014 21.2999L11.1954 18.2246C11.2755 18.1446 11.3804 18.1045 11.4854 18.1045Z" fill="white"/>
<path d="M19.1732 14.9708H19.1734C19.991 14.9708 20.7598 14.6523 21.3383 14.0741L21.8797 13.5327C22.0399 13.3725 22.0399 13.1128 21.8797 12.9526L21.3382 12.4111C20.7598 11.8329 19.991 11.5145 19.1732 11.5145C18.9026 11.5145 18.6374 11.5496 18.3825 11.6173L15.1492 14.8506C15.2234 14.9248 15.3259 14.9708 15.4392 14.9708H19.1732Z" fill="#E2E2E2"/>
<path d="M19.2439 15.5886L18.7023 15.0471C18.1239 14.4689 17.3551 14.1506 16.5373 14.1506C16.2667 14.1506 16.0015 14.1857 15.7466 14.2533C15.8143 13.9985 15.8494 13.7332 15.8494 13.4624C15.8494 12.6445 15.5309 11.8757 14.9527 11.2977C14.6668 11.0116 14.4113 10.7561 14.4113 10.7561C14.2512 10.5959 13.9915 10.5959 13.8313 10.7561L13.2899 11.2975C12.7116 11.8755 12.3932 12.6443 12.3932 13.4624V17.1967C12.3932 17.4232 12.5768 17.6068 12.8033 17.6068H16.5374H16.5376C17.3551 17.6068 18.124 17.2884 18.7024 16.7102L19.2439 16.1687C19.404 16.0085 19.404 15.7488 19.2439 15.5886Z" fill="#E2E2E2"/>
<path d="M16.5374 17.6067C17.3549 17.6067 18.124 17.2883 18.7024 16.7101L19.2439 16.1687C19.4041 16.0085 19.4041 15.7488 19.2439 15.5886L18.7024 15.0471C18.1239 14.4689 17.3551 14.1505 16.5374 14.1505C16.2667 14.1505 16.0015 14.1856 15.7467 14.2533L12.5133 17.4866C12.5875 17.5608 12.6901 17.6067 12.8033 17.6067H16.5374Z" fill="white"/>
<path d="M16.6079 18.2246L16.0664 17.6831C15.488 17.1049 14.7192 16.7865 13.9014 16.7865C13.6307 16.7865 13.3655 16.8216 13.1107 16.8893C13.1783 16.6344 13.2135 16.3691 13.2135 16.0983C13.2135 15.2804 12.895 14.5116 12.3167 13.9336L11.7754 13.392C11.6402 13.2568 11.4688 13.2719 11.4854 13.2719C11.3766 13.2719 11.2723 13.3151 11.1954 13.392L10.6539 13.9334C9.47055 15.1163 9.44547 17.0552 10.6539 18.2632L11.7367 19.3462C12.9453 20.5542 14.8823 20.5298 16.0665 19.3461L16.608 18.8046C16.7681 18.6444 16.768 18.3846 16.6079 18.2246Z" fill="white"/>
<path d="M16.0664 19.3461L16.6079 18.8046C16.7681 18.6445 16.7679 18.3846 16.6079 18.2246L16.0663 17.6831C15.4879 17.1049 14.7191 16.7865 13.9013 16.7865C13.6307 16.7865 13.3654 16.8216 13.1106 16.8893L11.1952 18.8047L11.7366 19.3462C12.9452 20.5543 14.8822 20.5298 16.0664 19.3461Z" fill="#E2E2E2"/>
</g>
<defs>
<linearGradient id="paint0_linear" x1="-0.436894" y1="30" x2="34.9516" y2="24.2764" gradientUnits="userSpaceOnUse">
<stop stop-color="#F9A543"/>
<stop offset="1" stop-color="#FFC076"/>
</linearGradient>
<clipPath id="clip0">
<rect width="18" height="18" fill="white" transform="translate(6 6)"/>
</clipPath>
</defs>
</svg>
