<svg width="30" height="30" viewBox="0 0 30 30" fill="none" xmlns="http://www.w3.org/2000/svg">
<circle cx="15" cy="15" r="15" fill="url(#paint0_linear)"/>
<path d="M20.4691 11.29L20.4764 11.2822L17.7709 8.38889L17 9.21333L18.5345 10.8544C17.8509 11.1344 17.3636 11.8344 17.3636 12.6667C17.3636 12.922 17.4107 13.1749 17.502 13.4108C17.5934 13.6467 17.7273 13.861 17.8962 14.0416C18.2371 14.4063 18.6996 14.6111 19.1818 14.6111C19.4436 14.6111 19.6836 14.5489 19.9091 14.4478V20.0556C19.9091 20.4833 19.5818 20.8333 19.1818 20.8333C18.7818 20.8333 18.4545 20.4833 18.4545 20.0556V16.5556C18.4545 15.7 17.8 15 17 15H16.2727V9.55556C16.2727 8.7 15.6182 8 14.8182 8H10.4545C9.65455 8 9 8.7 9 9.55556V22H16.2727V16.1667H17.3636V20.0556C17.3636 20.5713 17.5552 21.0658 17.8962 21.4305C18.2371 21.7951 18.6996 22 19.1818 22C19.664 22 20.1265 21.7951 20.4675 21.4305C20.8084 21.0658 21 20.5713 21 20.0556V12.6667C21 12.13 20.7964 11.64 20.4691 11.29ZM14.8182 13.4444H10.4545V9.55556H14.8182V13.4444ZM19.1818 13.4444C18.7818 13.4444 18.4545 13.0944 18.4545 12.6667C18.4545 12.2389 18.7818 11.8889 19.1818 11.8889C19.5818 11.8889 19.9091 12.2389 19.9091 12.6667C19.9091 13.0944 19.5818 13.4444 19.1818 13.4444Z" fill="white"/>
<defs>
<linearGradient id="paint0_linear" x1="30" y1="-9.16666" x2="-6.28696" y2="-7.72156" gradientUnits="userSpaceOnUse">
<stop stop-color="#5A7FFF"/>
<stop offset="1" stop-color="#3E94E3"/>
</linearGradient>
</defs>
</svg>
