<svg width="24" height="24" viewBox="0 0 24 24" fill="none" xmlns="http://www.w3.org/2000/svg">
<path d="M18.1262 18.875H5.87384L7.18091 7.54688H16.8191L18.1262 18.875Z" fill="#FF6849"/>
<path d="M12.5859 2H11.4141V4.34375H12.5859V2Z" fill="#FF6849"/>
<path d="M6.49252 3.63285L7.66437 5.66251L8.67918 5.07659L7.50732 3.04693L6.49252 3.63285Z" fill="#FF6849"/>
<path d="M3.04694 7.50762L5.0766 8.67947L5.66252 7.66466L3.63286 6.49281L3.04694 7.50762Z" fill="#FF6849"/>
<path d="M4.34375 11.4141H2V12.5859H4.34375V11.4141Z" fill="#FF6849"/>
<path d="M22 11.4142H19.6562V12.586H22V11.4142Z" fill="#E8130F"/>
<path d="M18.3377 7.66457L18.9236 8.67938L20.9532 7.50755L20.3673 6.49274L18.3377 7.66457Z" fill="#E8130F"/>
<path d="M15.3208 5.07668L16.3356 5.6626L17.5074 3.63294L16.4926 3.04703L15.3208 5.07668Z" fill="#E8130F"/>
<path d="M12 18.8751H18.1262L16.8191 7.54697H12V18.8751Z" fill="#E8130F"/>
<path d="M19.6172 22H4.38281V18.4844H19.6172V22Z" fill="#DFDFE1"/>
<path d="M19.6172 22H12V18.4844H19.6172V22Z" fill="#AFAEB4"/>
</svg>
