<svg width="152" height="173" viewBox="0 0 152 173" fill="none" xmlns="http://www.w3.org/2000/svg">
<path d="M65.0602 82.0464L66.0216 73.3931H86.8537C87.4947 74.9955 86.7896 78.5851 87.8152 81.4054C94.8661 80.4439 100.075 81.9396 102.425 83.0079C101.037 88.1358 94.2208 98.3916 78.0679 98.3916C58.8383 105.122 41.4252 86.8999 48.903 83.9694C55.4454 81.4054 61.8552 81.4054 65.0602 82.0464Z" fill="#EC59B0"/>
<path d="M98.9 47.4609C98.9 64.8227 90.0518 77.239 75.1835 77.239C60.3152 77.239 50.5055 64.8227 50.5055 47.4609C50.5055 30.0991 60.3152 16.0247 75.1835 16.0247C90.0518 16.0247 98.9 30.0991 98.9 47.4609Z" fill="#EC59B0"/>
<rect x="66.0217" y="73.7136" width="21.1526" height="40.3822" rx="3" fill="black"/>
<path d="M35.7629 88.4563C40.1216 85.8923 52.3217 82.5805 56.2745 82.0464C57.5564 90.3792 62.3638 95.5071 76.7861 95.5071C91.2083 95.5071 96.6567 83.6489 96.6567 81.4054C105.374 81.9182 116.955 88.1358 121.655 91.0202V172.746H32.2374C37.3653 166.336 35.7629 95.5071 35.7629 88.4563Z" fill="#FFB822"/>
<path d="M53.39 97.7509C52.108 104.161 43.241 111.532 38.9678 114.417C43.4547 122.429 53.4541 137.428 57.5564 133.325C67.2994 125.121 74.8631 112.6 77.427 107.365L74.8631 90.0588C74.4357 91.7681 72.3632 95.0585 67.4917 94.5457C61.4023 93.9047 73.9016 87.8156 68.1327 86.8541C62.3638 85.8926 54.9925 89.7385 53.39 97.7509Z" fill="#EC59B0" stroke="black" stroke-width="1.5"/>
<path d="M1.1495 129.479C4.22624 105.635 28.4983 90.9134 40.2497 86.5333C40.2497 92.409 39.7369 105.378 37.6858 110.25C53.0695 115.378 64.8209 133.966 68.7737 142.62C65.7824 146.572 54.031 156.85 30.9554 166.336C2.11099 178.195 -2.69642 159.285 1.1495 129.479Z" fill="#FFB822"/>
<path d="M76.7862 60.2528C76.4656 61.1077 76.0167 62.9458 76.7862 63.4587" stroke="black" stroke-linecap="round"/>
<path d="M72.6196 67.9447C74.2221 69.2267 79.35 69.5472 80.9525 67.9447" stroke="black" stroke-linecap="round"/>
<ellipse cx="74.5425" cy="9.29432" rx="9.61481" ry="9.29432" fill="#231F20"/>
<path d="M66.8507 14.4221C50.1851 16.986 46.4716 40.7027 48.7151 51.5995C52.3046 45.4459 50.1576 51.279 51.5995 50.3175C51.92 50.1038 55.9539 49.3559 58.5179 49.3559C61.0818 49.3559 62.1501 44.6554 62.3638 42.3052C62.6843 43.3735 63.9022 46.0229 66.2097 48.0741C73.7135 41.6642 97.1096 48.0741 98.3916 47.4331C99.4171 46.9203 100.315 49.8902 100.635 50.638C101.383 47.3262 102.169 36.2156 98.5796 28.5238C94.0927 18.909 87.6828 11.2171 66.8507 14.4221Z" fill="#231F20"/>
<path d="M47.4395 49.8194C48.8783 44.2402 51.4363 47.114 52.5355 49.2483C53.1267 50.687 54.4305 54.6472 54.916 58.9788C52.4091 65.3872 46.3824 54.7751 47.4395 49.8194Z" fill="#EC59B0"/>
<path d="M102.523 50.1659C101.413 44.5121 98.6911 47.2316 97.4691 49.298C96.7948 50.6997 95.2619 54.577 94.5242 58.8728C96.6524 65.4168 103.289 55.1749 102.523 50.1659Z" fill="#EC59B0"/>
<ellipse cx="66.8507" cy="53.5225" rx="1.92296" ry="2.88444" fill="#231F20"/>
<ellipse cx="86.0803" cy="53.5225" rx="1.92296" ry="2.88444" fill="#231F20"/>
<path d="M69.0942 48.3945C67.7054 47.6467 64.3509 46.8561 62.0433 49.6765" stroke="black" stroke-width="1.5" stroke-linecap="round" stroke-linejoin="round"/>
<path d="M83.5164 48.7777C84.9052 48.0299 88.2597 47.2393 90.5673 50.0596" stroke="black" stroke-width="1.5" stroke-linecap="round" stroke-linejoin="round"/>
<path d="M100.383 50.6274C100.743 51.5445 101.053 53.7789 99.4106 55.3804" stroke="black" stroke-linecap="round"/>
<path d="M49.5818 50.1686C49.1686 51.063 48.7287 53.2755 50.2746 54.9703" stroke="black" stroke-linecap="round"/>
<path d="M78.521 121.788C91.0202 124.411 93.6654 131.509 95.6952 134.287C101.25 129.373 111.656 118.839 108.835 116.019C97.6181 107.365 96.9772 99.9941 96.0157 95.5071C95.2465 91.9176 93.1312 89.9519 92.1697 89.4178C88.4307 87.6016 82.1062 85.3154 86.7214 90.6996C89.9263 95.1867 80.632 95.507 77.1065 88.7766C74.2862 83.3923 71.8718 87.8152 71.0172 90.6996C70.1625 100.528 69.3592 119.865 78.521 121.788Z" fill="#EC59B0" stroke="black" stroke-width="1.5"/>
<path d="M38.0063 110.25C38.1131 108.861 32.9425 111.403 11.4053 132.684" stroke="#333333" stroke-width="2" stroke-linecap="round"/>
<path d="M37.8182 110.25C43.8008 111.959 58.3298 120.89 68.5856 142.94C68.5856 145.184 41.6641 163.772 33.9723 165.375" stroke="#333333" stroke-width="2" stroke-linecap="round"/>
<path d="M142.167 115.378C132.68 99.9941 122.937 90.6998 118.45 89.0973C117.382 95.2935 115.245 108.391 115.245 112.493C101.144 113.006 92.7039 132.791 90.2468 142.62C101.891 152.235 126.27 171.656 130.629 172.426C158.512 178.515 154.025 134.607 142.167 115.378Z" fill="#FFB822"/>
<path d="M115.378 112.493C109.395 111.852 96.084 117.301 90.6997 142.94C90.6997 144.479 110.998 159.392 121.147 166.657" stroke="#333333" stroke-width="2" stroke-linecap="round"/>
<path d="M115.245 112.493C116.527 112.173 122.552 115.121 136.398 129.48" stroke="#333333" stroke-width="2" stroke-linecap="round"/>
<path d="M70.8291 95.5071C71.3634 97.0032 73.2015 100.124 76.2791 100.637" stroke="black" stroke-width="1.5" stroke-linecap="round"/>
<path d="M70.8291 106.404C71.3634 107.152 73.0091 108.712 75.3174 108.969" stroke="black" stroke-width="1.5" stroke-linecap="round"/>
<path d="M72.1111 114.096C72.5385 114.737 73.8423 116.019 75.6376 116.019" stroke="black" stroke-width="1.5" stroke-linecap="round"/>
<rect x="83.9694" y="85.8923" width="3.20494" height="7.69185" rx="1.60247" fill="black"/>
<path d="M66.0957 87.3227C66.0553 86.1909 66.9619 85.2513 68.0944 85.2513H68.4332C69.5668 85.2513 70.4738 86.1925 70.4318 87.3254L70.2536 92.1379C70.2162 93.1462 69.4317 93.9677 68.4262 94.0515C67.2916 94.1461 66.3082 93.2731 66.2676 92.1352L66.0957 87.3227Z" fill="black"/>
<circle cx="71.1502" cy="78.8421" r="1.92354" fill="white"/>
</svg>
