<svg width="24" height="24" viewBox="0 0 24 24" fill="none" xmlns="http://www.w3.org/2000/svg">
<path d="M19 16.8333C18.4345 15.8497 18.138 14.7427 18.138 13.6173V8C18.138 4.68633 15.359 2 11.9311 2C8.50315 2 5.72419 4.68633 5.72419 8V13.6173C5.72419 14.7427 5.42763 15.8497 4.86212 16.8333C4.47419 17.508 4.21626 18.2413 4.09039 18.998C4.55729 18.4477 5.20626 18.0407 5.96901 17.8673L9.78212 17H9.86212V15.8783C8.23246 15.1287 7.1035 13.5273 7.1035 11.6667V8.33333C7.1035 8.33333 11.2414 8.33333 13.3104 5.33333C14 8 16.7587 8.33333 16.7587 8.33333V11.6667C16.7587 13.5273 15.6297 15.1287 14 15.8783V17H14.08L17.8932 17.8673C18.6559 18.0407 19.3049 18.4477 19.7718 18.998C19.6459 18.2413 19.388 17.508 19 16.8333Z" fill="#CCCCCC"/>
<path d="M17.7352 18.5164L17.5807 18.4814L16.5128 19.5137L16.9038 20.6477L14.3856 22H19.8621V21.112C19.8621 19.8747 18.9814 18.7997 17.7352 18.5164Z" fill="#CCCCCC"/>
<path d="M6.95793 20.6473L7.34896 19.5133L6.28103 18.481L6.12655 18.516C4.88069 18.7996 4 19.8746 4 21.112V22H9.47655L6.95793 20.6473Z" fill="#CCCCCC"/>
<path d="M11.931 19.6666C11.5938 19.6666 11.2766 19.587 10.9952 19.4486L11.6041 22H12.2576L12.8666 19.4486C12.5855 19.587 12.2683 19.6666 11.931 19.6666Z" fill="#CCCCCC"/>
<path d="M17.0506 17.97L14.2609 17.3333L13.2264 21.6667L16.3299 20L15.985 19L17.0506 17.97ZM7.33331 17.97L8.39883 19L8.054 20L11.1575 21.6667L10.123 17.3333L7.33331 17.97Z" fill="#CCCCCC"/>
</svg>
