<svg width="20" height="20" viewBox="0 0 20 20" fill="none" xmlns="http://www.w3.org/2000/svg">
<path d="M11.6665 7.50002V4.16669C11.6665 3.50365 11.4031 2.86776 10.9343 2.39892C10.4654 1.93008 9.82955 1.66669 9.1665 1.66669L5.83317 9.16669V18.3334H15.2332C15.6351 18.3379 16.0252 18.197 16.3314 17.9367C16.6377 17.6764 16.8396 17.3141 16.8998 16.9167L18.0498 9.41669C18.0861 9.17782 18.07 8.93392 18.0026 8.7019C17.9353 8.46987 17.8183 8.25527 17.6597 8.07295C17.5012 7.89063 17.3049 7.74496 17.0845 7.64603C16.8641 7.54711 16.6248 7.49728 16.3832 7.50002H11.6665ZM5.83317 18.3334H3.33317C2.89114 18.3334 2.46722 18.1578 2.15466 17.8452C1.8421 17.5326 1.6665 17.1087 1.6665 16.6667V10.8334C1.6665 10.3913 1.8421 9.9674 2.15466 9.65484C2.46722 9.34228 2.89114 9.16669 3.33317 9.16669H5.83317" fill="#5B687B"/>
</svg>
