<svg width="120" height="120" viewBox="0 0 120 120" fill="none" xmlns="http://www.w3.org/2000/svg">
<rect width="120" height="120" rx="60" fill="url(#paint0_linear)"/>
<path d="M31.1769 68.7614V61.8632H40.5254V58.6138H31.1769V53.5268H41.058V50.1443H27.6612V68.7614H31.1769ZM47.2508 68.7614V50.1176H43.7618V68.7614H47.2508ZM66.7964 68.788H70.312V50.1443H66.2903L60.4575 58.1611L54.6247 50.1443H50.5763V68.788H54.092V55.2313L60.0314 63.3547H60.7238L66.7964 55.258V68.788ZM82.3828 49.7448C75.9374 49.7448 72.7946 54.672 72.7946 59.5727C72.7946 64.4733 75.8309 69.1875 82.3828 69.1875C88.9347 69.1875 91.8911 64.3668 91.9444 59.546C91.9976 54.672 88.8016 49.7448 82.3828 49.7448ZM82.3828 52.9408C86.7774 52.9408 88.5352 56.4565 88.482 59.5993C88.4287 62.6622 86.7774 65.9648 82.3828 65.9648C77.9882 65.9648 76.3369 62.6888 76.257 59.6259C76.1771 56.4831 77.9882 52.9408 82.3828 52.9408Z" fill="white"/>
<circle cx="82.8" cy="59.4" r="7.2" fill="white"/>
<path d="M78 61.0545C78 64.2878 79.6455 66.6001 82.4106 66.6001C85.1757 66.6001 87 64.2878 87 61.0545C87 57.8212 85.1757 55.2001 82.4106 55.2001C79.6455 55.2001 78 57.8212 78 61.0545Z" fill="#5584FF"/>
<ellipse rx="2.1" ry="1.8" transform="matrix(-1 0 0 1 82.5001 54)" fill="#FFB822"/>
<path d="M84.0057 54.7403C87.2041 55.2272 87.9168 59.7309 87.4862 61.8001C86.7973 60.6316 87.2094 61.7392 86.9327 61.5567C86.8712 61.5161 86.097 61.374 85.6049 61.374C85.1129 61.374 84.9078 60.4815 84.8668 60.0352C84.8053 60.238 84.5716 60.7411 84.1288 61.1306C82.6887 59.9134 78.1987 61.1306 77.9526 61.0089C77.7558 60.9115 77.5836 61.4755 77.5221 61.6175C77.3786 60.9886 77.2277 58.8788 77.9165 57.4182C78.7776 55.5924 80.0078 54.1317 84.0057 54.7403Z" fill="#FFB822"/>
<defs>
<linearGradient id="paint0_linear" x1="129.9" y1="-4.80001" x2="60" y2="120" gradientUnits="userSpaceOnUse">
<stop offset="0.064053" stop-color="#5F8BFF"/>
<stop offset="1" stop-color="#366EFF"/>
</linearGradient>
</defs>
</svg>
