<svg width="200" height="200" viewBox="0 0 200 200" fill="none" xmlns="http://www.w3.org/2000/svg">
<rect width="200" height="200" fill="white"/>
<path d="M51.9614 114.269V102.772H67.5422V97.3565H51.9614V88.8781H68.43V83.2406H46.1019V114.269H51.9614ZM78.7513 114.269V83.1962H72.9363V114.269H78.7513ZM111.327 114.313H117.187V83.2406H110.484L100.762 96.6019L91.041 83.2406H84.2938V114.313H90.1533V91.719L100.052 105.258H101.206L111.327 91.7634V114.313ZM137.305 82.5747C126.562 82.5747 121.324 90.7868 121.324 98.9546C121.324 107.122 126.385 114.979 137.305 114.979C148.224 114.979 153.152 106.945 153.241 98.9102C153.329 90.7868 148.003 82.5747 137.305 82.5747ZM137.305 87.9015C144.629 87.9015 147.559 93.761 147.47 98.999C147.381 104.104 144.629 109.608 137.305 109.608C129.98 109.608 127.228 104.148 127.095 99.0433C126.962 93.8053 129.98 87.9015 137.305 87.9015Z" fill="#2F80ED"/>
<circle cx="87.322" cy="76.3368" r="3.69915" fill="#FFE8D2"/>
<circle r="3.69915" transform="matrix(-1 0 0 1 114.478 76.3368)" fill="#FFE8D2"/>
<path d="M83 80.4999C83.4932 78.0338 83.5 76.3367 84.2394 74.4872C85.4724 74.6927 88.555 74.9804 91.0211 74.4872C94.1038 73.8707 91.0211 69.4998 88 69.9998C83.9197 70.6751 81.1567 70.1714 81.1567 76.3367C81.1567 82.5019 82.3835 83.5825 83 80.4999Z" fill="#2F80ED"/>
<path d="M119 81.4999C118.507 79.0338 117.355 75.9258 117.561 74.4873C116.328 74.6928 113.466 75.9932 111 75.5C107.917 74.8835 109.216 70.4193 114.478 70.7881C117.5 70.9999 120.643 70.1715 120.643 76.3367C120.643 82.502 119.617 84.5825 119 81.4999Z" fill="#2F80ED"/>
</svg>
