<svg width="30" height="30" viewBox="0 0 30 30" fill="none" xmlns="http://www.w3.org/2000/svg">
<circle cx="15" cy="15" r="15" fill="url(#paint0_linear)"/>
<path d="M18.8554 9.37952C17.3422 9.42114 16.1694 9.83177 15.0276 10.2289C13.8064 10.653 12.6538 11.053 11.0569 11.0693C9.98981 11.0861 8.92106 10.9016 7.87088 10.5383L7.125 10.2806V19.8893L7.49962 20.0226C8.47781 20.3685 9.47794 20.5682 10.4736 20.6155C10.6316 20.6228 10.7863 20.6267 10.9382 20.6267C12.633 20.6267 13.9307 20.1767 15.189 19.7425C16.5154 19.2835 17.7664 18.8498 19.4736 18.9302C20.3785 18.9767 21.2716 19.1556 22.1246 19.4612L22.875 19.7267V10.1141L22.5049 9.97914C21.5477 9.63056 20.543 9.43025 19.5253 9.38514C19.3021 9.37523 19.0787 9.37336 18.8554 9.37952ZM18.8858 10.4966C19.077 10.491 19.2728 10.491 19.4758 10.4989C19.6862 10.5079 19.8966 10.527 20.1064 10.5518C20.192 10.9047 20.411 11.2107 20.7175 11.4055C21.024 11.6003 21.3941 11.6687 21.75 11.5963V16.7162C21.5657 16.6787 21.3758 16.6786 21.1915 16.7159C21.0072 16.7533 20.8323 16.8273 20.6771 16.9335C20.522 17.0398 20.3898 17.1761 20.2883 17.3344C20.1869 17.4928 20.1183 17.6699 20.0867 17.8553C19.9004 17.8361 19.7135 17.8222 19.5264 17.8136C17.6055 17.7293 16.1891 18.2125 14.82 18.6872C13.4919 19.1473 12.2336 19.5821 10.5276 19.5011C10.3151 19.49 10.1031 19.4713 9.89194 19.4449C9.80563 19.0929 9.58651 18.788 9.28047 18.5939C8.97442 18.3999 8.60517 18.3317 8.25 18.4037V13.2838C8.43537 13.3216 8.62646 13.3214 8.81176 13.2833C8.99706 13.2453 9.17275 13.1701 9.32825 13.0624C9.48375 12.9547 9.61584 12.8166 9.71658 12.6565C9.81732 12.4964 9.88462 12.3175 9.91444 12.1307C10.2998 12.1706 10.6851 12.1937 11.0693 12.1875C12.8496 12.1695 14.1439 11.719 15.3966 11.2836C16.4996 10.8994 17.5509 10.5383 18.8858 10.4966ZM15 12.1875C13.7591 12.1875 12.75 13.4492 12.75 15C12.75 16.5508 13.7591 17.8125 15 17.8125C16.2409 17.8125 17.25 16.5508 17.25 15C17.25 13.4492 16.2409 12.1875 15 12.1875ZM15 13.3125C15.6097 13.3125 16.125 14.0854 16.125 15C16.125 15.9146 15.6097 16.6875 15 16.6875C14.3903 16.6875 13.875 15.9146 13.875 15C13.875 14.0854 14.3903 13.3125 15 13.3125ZM19.2188 13.3125C18.995 13.3125 18.7804 13.4014 18.6221 13.5596C18.4639 13.7179 18.375 13.9325 18.375 14.1563C18.375 14.38 18.4639 14.5947 18.6221 14.7529C18.7804 14.9111 18.995 15 19.2188 15C19.4425 15 19.6571 14.9111 19.8154 14.7529C19.9736 14.5947 20.0625 14.38 20.0625 14.1563C20.0625 13.9325 19.9736 13.7179 19.8154 13.5596C19.6571 13.4014 19.4425 13.3125 19.2188 13.3125ZM10.7812 15C10.5575 15 10.3429 15.0889 10.1846 15.2471C10.0264 15.4054 9.9375 15.62 9.9375 15.8438C9.9375 16.0675 10.0264 16.2822 10.1846 16.4404C10.3429 16.5986 10.5575 16.6875 10.7812 16.6875C11.005 16.6875 11.2196 16.5986 11.3779 16.4404C11.5361 16.2822 11.625 16.0675 11.625 15.8438C11.625 15.62 11.5361 15.4054 11.3779 15.2471C11.2196 15.0889 11.005 15 10.7812 15Z" fill="white"/>
<defs>
<linearGradient id="paint0_linear" x1="-0.436894" y1="30" x2="34.9516" y2="24.2764" gradientUnits="userSpaceOnUse">
<stop stop-color="#F9A543"/>
<stop offset="1" stop-color="#FFC076"/>
</linearGradient>
</defs>
</svg>
