<svg width="30" height="30" viewBox="0 0 30 30" fill="none" xmlns="http://www.w3.org/2000/svg">
<circle cx="15" cy="15" r="15" fill="url(#paint0_linear)"/>
<path d="M12.2368 7.5C10.9806 7.5 9.77572 7.99906 8.88739 8.88739C7.99906 9.77572 7.5 10.9806 7.5 12.2368V17.7632C7.5 19.0194 7.99906 20.2243 8.88739 21.1126C9.77572 22.0009 10.9806 22.5 12.2368 22.5H17.7632C19.0194 22.5 20.2243 22.0009 21.1126 21.1126C22.0009 20.2243 22.5 19.0194 22.5 17.7632V13.8158C22.5 13.6064 22.4168 13.4056 22.2688 13.2575C22.1207 13.1095 21.9199 13.0263 21.7105 13.0263H20.9211C20.7117 13.0263 20.5109 12.9431 20.3628 12.7951C20.2148 12.647 20.1316 12.4462 20.1316 12.2368C20.1316 10.9806 19.6325 9.77572 18.7442 8.88739C17.8559 7.99906 16.651 7.5 15.3947 7.5H12.2368ZM12.2368 11.4474H15.3947C15.8289 11.4474 16.1842 11.8026 16.1842 12.2368C16.1842 12.6711 15.8289 13.0263 15.3947 13.0263H12.2368C11.8026 13.0263 11.4474 12.6711 11.4474 12.2368C11.4474 11.8026 11.8026 11.4474 12.2368 11.4474ZM12.2368 16.9737H17.7632C18.1974 16.9737 18.5526 17.3289 18.5526 17.7632C18.5526 18.1974 18.1974 18.5526 17.7632 18.5526H12.2368C11.8026 18.5526 11.4474 18.1974 11.4474 17.7632C11.4474 17.3289 11.8026 16.9737 12.2368 16.9737Z" fill="white"/>
<defs>
<linearGradient id="paint0_linear" x1="30" y1="-9.16666" x2="-6.28696" y2="-7.72156" gradientUnits="userSpaceOnUse">
<stop stop-color="#5A7FFF"/>
<stop offset="1" stop-color="#3E94E3"/>
</linearGradient>
</defs>
</svg>
