<svg width="30" height="30" viewBox="0 0 30 30" fill="none" xmlns="http://www.w3.org/2000/svg">
<circle cx="15" cy="15" r="15" fill="url(#paint0_linear)"/>
<path d="M12.3564 13.1579L14.4182 11.6842H18.6364V13.1579H14.8953L12.8182 14.6316H7.72728V13.1579H12.3564ZM13.0226 16.8863L15.1498 16.1016L15.6473 17.4868L13.52 18.2708C13.6201 19.0797 13.4227 19.8976 12.9653 20.5683C12.508 21.239 11.8228 21.7154 11.0407 21.9067C10.2586 22.098 9.43427 21.9907 8.72529 21.6053C8.01632 21.2198 7.47233 20.5833 7.19723 19.8172C6.92213 19.0511 6.93521 18.2093 7.23397 17.4524C7.53272 16.6954 8.09621 16.0766 8.81681 15.7139C9.53741 15.3513 10.3646 15.2703 11.1404 15.4864C11.9162 15.7025 12.5863 16.2006 13.0226 16.8856V16.8863ZM10.2727 20.5263C10.7549 20.5263 11.2174 20.3322 11.5584 19.9868C11.8994 19.6413 12.0909 19.1728 12.0909 18.6842C12.0909 18.1957 11.8994 17.7271 11.5584 17.3816C11.2174 17.0362 10.7549 16.8421 10.2727 16.8421C9.79052 16.8421 9.32806 17.0362 8.98709 17.3816C8.64611 17.7271 8.45455 18.1957 8.45455 18.6842C8.45455 19.1728 8.64611 19.6413 8.98709 19.9868C9.32806 20.3322 9.79052 20.5263 10.2727 20.5263ZM19.7273 22C19.2975 22 18.8719 21.9142 18.4749 21.7476C18.0778 21.581 17.717 21.3367 17.4131 21.0288C17.1092 20.7209 16.8681 20.3554 16.7037 19.9531C16.5392 19.5508 16.4545 19.1196 16.4545 18.6842C16.4545 18.2488 16.5392 17.8176 16.7037 17.4153C16.8681 17.013 17.1092 16.6475 17.4131 16.3396C17.717 16.0317 18.0778 15.7875 18.4749 15.6208C18.8719 15.4542 19.2975 15.3684 19.7273 15.3684C20.5953 15.3684 21.4277 15.7178 22.0414 16.3396C22.6552 16.9614 23 17.8048 23 18.6842C23 19.5636 22.6552 20.407 22.0414 21.0288C21.4277 21.6507 20.5953 22 19.7273 22ZM19.7273 20.5263C20.2095 20.5263 20.6719 20.3322 21.0129 19.9868C21.3539 19.6413 21.5455 19.1728 21.5455 18.6842C21.5455 18.1957 21.3539 17.7271 21.0129 17.3816C20.6719 17.0362 20.2095 16.8421 19.7273 16.8421C19.2451 16.8421 18.7826 17.0362 18.4416 17.3816C18.1007 17.7271 17.9091 18.1957 17.9091 18.6842C17.9091 19.1728 18.1007 19.6413 18.4416 19.9868C18.7826 20.3322 19.2451 20.5263 19.7273 20.5263ZM9.18182 13.8947H13.5455L15.4364 12.6178L15.64 11.8471L17.0451 12.2287L15.6473 17.4832L14.3222 16.8288L14.408 16.5046L12.8182 17.5789L12.0909 16.1053H9.18182V13.8947ZM17.976 10.2105H20.8182V12.4211H18.7702L20.1665 16.3086L18.7993 16.8126L17.2225 12.4211H17.1818V12.3091L16.1636 9.47368H14.2727V8H17.1818L17.976 10.2105Z" fill="white"/>
<defs>
<linearGradient id="paint0_linear" x1="-0.436894" y1="30" x2="34.9516" y2="24.2764" gradientUnits="userSpaceOnUse">
<stop stop-color="#F9A543"/>
<stop offset="1" stop-color="#FFC076"/>
</linearGradient>
</defs>
</svg>
