<svg width="30" height="30" viewBox="0 0 30 30" fill="none" xmlns="http://www.w3.org/2000/svg">
<circle cx="15" cy="15" r="15" fill="url(#paint0_linear)"/>
<g clip-path="url(#clip0)">
<path d="M19.5132 15.1017H10.4869L8.07678 13.8383C8.00676 13.8016 7.98006 13.7212 8.01586 13.6549L10.1364 9.73046C10.1626 9.68196 10.2029 9.64102 10.2528 9.61213L12.8641 8.10032C13.0791 7.97588 13.3512 7.96614 13.5743 8.07788C14.6242 8.60371 15.5847 8.61061 16.4588 8.11456C16.6873 7.98492 16.9773 7.98961 17.2037 8.12217L19.7482 9.61218C19.7975 9.64102 19.8372 9.68168 19.8632 9.72972L21.9841 13.6549C22.0199 13.7212 21.9932 13.8016 21.9232 13.8383L19.5132 15.1017Z" fill="white"/>
<path d="M12.4214 8.35669L10.2528 9.61214C10.2029 9.64103 10.1626 9.68197 10.1364 9.73047L8.01586 13.6549C7.98006 13.7212 8.00676 13.8016 8.07678 13.8383L10.4869 15.1017H12.4214V8.35669Z" fill="white"/>
<path d="M17.0056 8.58175C16.8728 8.50402 16.9163 8.01066 16.7651 8.02217C16.6584 8.0303 16.5533 8.06092 16.4588 8.11456C15.5848 8.61062 14.6242 8.60374 13.5744 8.07789C13.4669 8.02407 13.3481 7.99842 13.2297 8.00021C13.1024 8.00214 13.0614 8.39225 12.95 8.45677L12.4214 8.35665L10.2528 9.61211L10.5084 12.5813V15.1017V21.8723C10.5084 21.9428 10.5707 22 10.6476 22H19.3525C19.4293 22 19.4917 21.9428 19.4917 21.8723V15.1017V12.5813L19.7483 9.61216L17.5809 8.34302L17.0056 8.58175Z" fill="white"/>
<path d="M17.3243 20.4607C14.2912 20.4607 11.8325 18.2052 11.8325 15.4228V13.5624V11.0421L11.6402 8.80884L10.2528 9.61207L10.5084 12.5813V15.1016V21.8543C10.5084 21.9348 10.5795 22 10.6672 22H19.3329C19.4206 22 19.4917 21.9348 19.4917 21.8543V20.4607H17.3243Z" fill="white"/>
<path d="M13.2296 8.00008C13.3479 7.99837 13.4669 8.02423 13.5743 8.07792C14.6239 8.60381 15.5846 8.61063 16.4586 8.11458C16.5531 8.06088 16.6581 8.03019 16.7649 8.02224L16.769 8.06344C16.7367 8.93423 15.9572 9.63115 14.9999 9.63115C14.5177 9.63115 14.0804 9.45415 13.7611 9.1672C13.4421 8.88025 13.2408 8.48335 13.2302 8.04326L13.2296 8.00008Z" fill="#E2E2E2"/>
<path d="M17.2035 8.12217L17.5807 8.34292C17.4023 9.50294 16.3127 10.3982 14.9999 10.3982C13.692 10.3982 12.6062 9.50976 12.4213 8.35656L12.8641 8.10029C12.9756 8.0358 13.1023 8.00199 13.2296 8L13.2302 8.04318C13.2407 8.48327 13.4421 8.88017 13.7611 9.16712C14.0804 9.45407 14.5177 9.63107 14.9999 9.63107C15.9572 9.63107 16.7367 8.93415 16.7689 8.06336L16.7649 8.02216C16.916 8.01051 17.0706 8.04432 17.2035 8.12217Z" fill="#CECECE"/>
</g>
<defs>
<linearGradient id="paint0_linear" x1="30" y1="-9.16666" x2="-6.28696" y2="-7.72156" gradientUnits="userSpaceOnUse">
<stop stop-color="#5A7FFF"/>
<stop offset="1" stop-color="#3E94E3"/>
</linearGradient>
<clipPath id="clip0">
<rect width="18" height="18" fill="white" transform="translate(6 6)"/>
</clipPath>
</defs>
</svg>
