<svg width="168" height="109" viewBox="0 0 168 109" fill="none" xmlns="http://www.w3.org/2000/svg">
<rect x="1" width="166" height="100" rx="5" fill="url(#paint0_linear)"/>
<path d="M16.0568 25H17.1136V21.8125H19.0227C21.0554 21.8125 21.9716 20.5767 21.9716 19.0341C21.9716 17.4915 21.0554 16.2727 19.0057 16.2727H16.0568V25ZM17.1136 20.875V17.2102H18.9716C20.3906 17.2102 20.9318 17.9858 20.9318 19.0341C20.9318 20.0824 20.3906 20.875 18.9886 20.875H17.1136ZM26.2116 25.1364C27.5412 25.1364 28.5128 24.4716 28.8196 23.483L27.848 23.2102C27.5923 23.892 27 24.233 26.2116 24.233C25.0312 24.233 24.2173 23.4702 24.1705 22.0682H28.9219V21.642C28.9219 19.2045 27.473 18.3693 26.1094 18.3693C24.3366 18.3693 23.1605 19.767 23.1605 21.7784C23.1605 23.7898 24.3196 25.1364 26.2116 25.1364ZM24.1705 21.1989C24.2386 20.1804 24.9588 19.2727 26.1094 19.2727C27.2003 19.2727 27.8991 20.0909 27.8991 21.1989H24.1705ZM31.4574 21.0625C31.4574 19.9205 32.1648 19.2727 33.1278 19.2727C34.0611 19.2727 34.6278 19.8821 34.6278 20.9091V25H35.6335V20.8409C35.6335 19.1705 34.7429 18.3693 33.4176 18.3693C32.429 18.3693 31.8153 18.8125 31.5085 19.4773H31.4233V18.4545H30.4517V25H31.4574V21.0625ZM39.9428 25.1364C41.2042 25.1364 41.6303 24.3523 41.8519 23.9943H41.9712V25H42.9428V16.2727H41.9371V19.4943H41.8519C41.6303 19.1534 41.2383 18.3693 39.9599 18.3693C38.3065 18.3693 37.1644 19.6818 37.1644 21.7443C37.1644 23.8239 38.3065 25.1364 39.9428 25.1364ZM40.0792 24.233C38.8178 24.233 38.1701 23.125 38.1701 21.7273C38.1701 20.3466 38.8008 19.2727 40.0792 19.2727C41.3065 19.2727 41.9542 20.2614 41.9542 21.7273C41.9542 23.2102 41.2894 24.233 40.0792 24.233ZM46.8505 25.1534C47.9925 25.1534 48.5891 24.5398 48.7937 24.1136H48.8448V25H49.8505V20.6875C49.8505 18.608 48.2653 18.3693 47.43 18.3693C46.4414 18.3693 45.3164 18.7102 44.805 19.9034L45.7596 20.2443C45.9812 19.767 46.5053 19.2557 47.4641 19.2557C48.3888 19.2557 48.8448 19.7457 48.8448 20.5852V20.6193C48.8448 21.1051 48.3505 21.0625 47.1573 21.2159C45.9428 21.3736 44.6175 21.642 44.6175 23.142C44.6175 24.4205 45.6062 25.1534 46.8505 25.1534ZM47.0039 24.25C46.2028 24.25 45.6232 23.892 45.6232 23.1932C45.6232 22.4261 46.3221 22.1875 47.1062 22.0852C47.5323 22.0341 48.6744 21.9148 48.8448 21.7102V22.6307C48.8448 23.4489 48.1971 24.25 47.0039 24.25ZM51.6861 27.4545H52.6918V23.9943H52.777C52.9986 24.3523 53.4247 25.1364 54.6861 25.1364C56.3224 25.1364 57.4645 23.8239 57.4645 21.7443C57.4645 19.6818 56.3224 18.3693 54.669 18.3693C53.3906 18.3693 52.9986 19.1534 52.777 19.4943H52.6577V18.4545H51.6861V27.4545ZM52.6747 21.7273C52.6747 20.2614 53.3224 19.2727 54.5497 19.2727C55.8281 19.2727 56.4588 20.3466 56.4588 21.7273C56.4588 23.125 55.8111 24.233 54.5497 24.233C53.3395 24.233 52.6747 23.2102 52.6747 21.7273ZM60.9247 25.1534C62.0668 25.1534 62.6634 24.5398 62.8679 24.1136H62.919V25H63.9247V20.6875C63.9247 18.608 62.3395 18.3693 61.5043 18.3693C60.5156 18.3693 59.3906 18.7102 58.8793 19.9034L59.8338 20.2443C60.0554 19.767 60.5795 19.2557 61.5384 19.2557C62.4631 19.2557 62.919 19.7457 62.919 20.5852V20.6193C62.919 21.1051 62.4247 21.0625 61.2315 21.2159C60.017 21.3736 58.6918 21.642 58.6918 23.142C58.6918 24.4205 59.6804 25.1534 60.9247 25.1534ZM61.0781 24.25C60.277 24.25 59.6974 23.892 59.6974 23.1932C59.6974 22.4261 60.3963 22.1875 61.1804 22.0852C61.6065 22.0341 62.7486 21.9148 62.919 21.7102V22.6307C62.919 23.4489 62.2713 24.25 61.0781 24.25ZM68.6069 18.4545H67.2092V16.8864H66.2035V18.4545H65.2148V19.3068H66.2035V23.3977C66.2035 24.5398 67.1239 25.0852 67.9762 25.0852C68.3512 25.0852 68.5898 25.017 68.7262 24.9659L68.5217 24.0625C68.4364 24.0795 68.3001 24.1136 68.0785 24.1136C67.6353 24.1136 67.2092 23.9773 67.2092 23.125V19.3068H68.6069V18.4545ZM72.0458 25.1534C73.1879 25.1534 73.7844 24.5398 73.989 24.1136H74.0401V25H75.0458V20.6875C75.0458 18.608 73.4606 18.3693 72.6254 18.3693C71.6367 18.3693 70.5117 18.7102 70.0004 19.9034L70.9549 20.2443C71.1765 19.767 71.7006 19.2557 72.6594 19.2557C73.5842 19.2557 74.0401 19.7457 74.0401 20.5852V20.6193C74.0401 21.1051 73.5458 21.0625 72.3526 21.2159C71.1381 21.3736 69.8129 21.642 69.8129 23.142C69.8129 24.4205 70.8015 25.1534 72.0458 25.1534ZM72.1992 24.25C71.3981 24.25 70.8185 23.892 70.8185 23.1932C70.8185 22.4261 71.5174 22.1875 72.3015 22.0852C72.7276 22.0341 73.8697 21.9148 74.0401 21.7102V22.6307C74.0401 23.4489 73.3924 24.25 72.1992 24.25ZM77.8871 21.0625C77.8871 19.9205 78.5945 19.2727 79.5575 19.2727C80.4908 19.2727 81.0575 19.8821 81.0575 20.9091V25H82.0632V20.8409C82.0632 19.1705 81.1726 18.3693 79.8473 18.3693C78.8587 18.3693 78.245 18.8125 77.9382 19.4773H77.853V18.4545H76.8814V25H77.8871V21.0625Z" fill="white"/>
<path d="M20.4886 54.1364H22.2727V51.0966H25.3125V49.3125H22.2727V46.2727H20.4886V49.3125H17.4489V51.0966H20.4886V54.1364ZM27.9134 56H30.0213V51.7386H32.169L34.4531 56H36.8054L34.2884 51.3864C35.6577 50.8352 36.3793 49.6648 36.3793 48.0852C36.3793 45.8636 34.9474 44.3636 32.277 44.3636H27.9134V56ZM30.0213 49.9886V46.125H31.9531C33.527 46.125 34.2315 46.8466 34.2315 48.0852C34.2315 49.3239 33.527 49.9886 31.9645 49.9886H30.0213ZM38.2287 59.2727H40.2855V54.625H40.3707C40.6946 55.2614 41.3707 56.1534 42.8707 56.1534C44.9276 56.1534 46.4673 54.5227 46.4673 51.6477C46.4673 48.7386 44.8821 47.1591 42.8651 47.1591C41.3253 47.1591 40.6832 48.0852 40.3707 48.7159H40.2514V47.2727H38.2287V59.2727ZM40.2457 51.6364C40.2457 49.9432 40.973 48.8466 42.2969 48.8466C43.6662 48.8466 44.3707 50.0114 44.3707 51.6364C44.3707 53.2727 43.6548 54.4659 42.2969 54.4659C40.9844 54.4659 40.2457 53.3295 40.2457 51.6364ZM56.3111 56.1591C58.8281 56.1591 60.6293 54.7727 60.6349 52.8807C60.6293 51.4261 59.5554 50.2102 58.2031 49.983V49.9034C59.3793 49.642 60.1974 48.5852 60.2031 47.3239C60.1974 45.5341 58.5497 44.2045 56.3111 44.2045C54.0554 44.2045 52.4077 45.5284 52.4134 47.3239C52.4077 48.5852 53.2145 49.642 54.4134 49.9034V49.983C53.0384 50.2102 51.9759 51.4261 51.9815 52.8807C51.9759 54.7727 53.7713 56.1591 56.3111 56.1591ZM56.3111 54.5341C54.9929 54.5341 54.1406 53.8068 54.152 52.733C54.1406 51.6193 55.0554 50.8295 56.3111 50.8295C57.5497 50.8295 58.4588 51.625 58.4702 52.733C58.4588 53.8068 57.6122 54.5341 56.3111 54.5341ZM56.3111 49.233C55.2315 49.233 54.4588 48.5341 54.4702 47.5227C54.4588 46.5227 55.2088 45.8523 56.3111 45.8523C57.3963 45.8523 58.1406 46.5227 58.152 47.5227C58.1406 48.5398 57.3736 49.233 56.3111 49.233ZM63.4489 56.125C64.1193 56.125 64.6932 55.5682 64.6989 54.875C64.6932 54.1932 64.1193 53.6364 63.4489 53.6364C62.7557 53.6364 62.1932 54.1932 62.1989 54.875C62.1932 55.5682 62.7557 56.125 63.4489 56.125ZM70.6477 56.2216C73.4545 56.2273 75.1307 54.0114 75.1307 50.1932C75.1307 46.3977 73.4432 44.2045 70.6477 44.2045C67.8523 44.2045 66.1705 46.392 66.1648 50.1932C66.1648 54.0057 67.8409 56.2216 70.6477 56.2216ZM70.6477 54.4432C69.1989 54.4432 68.2898 52.9886 68.2955 50.1932C68.3011 47.4205 69.2045 45.9602 70.6477 45.9602C72.0966 45.9602 73 47.4205 73.0057 50.1932C73.0057 52.9886 72.1023 54.4432 70.6477 54.4432ZM81.3196 56.2216C84.1264 56.2273 85.8026 54.0114 85.8026 50.1932C85.8026 46.3977 84.1151 44.2045 81.3196 44.2045C78.5241 44.2045 76.8423 46.392 76.8366 50.1932C76.8366 54.0057 78.5128 56.2216 81.3196 56.2216ZM81.3196 54.4432C79.8707 54.4432 78.9616 52.9886 78.9673 50.1932C78.973 47.4205 79.8764 45.9602 81.3196 45.9602C82.7685 45.9602 83.6719 47.4205 83.6776 50.1932C83.6776 52.9886 82.7741 54.4432 81.3196 54.4432ZM91.9915 56.2216C94.7983 56.2273 96.4744 54.0114 96.4744 50.1932C96.4744 46.3977 94.7869 44.2045 91.9915 44.2045C89.196 44.2045 87.5142 46.392 87.5085 50.1932C87.5085 54.0057 89.1847 56.2216 91.9915 56.2216ZM91.9915 54.4432C90.5426 54.4432 89.6335 52.9886 89.6392 50.1932C89.6449 47.4205 90.5483 45.9602 91.9915 45.9602C93.4403 45.9602 94.3438 47.4205 94.3494 50.1932C94.3494 52.9886 93.446 54.4432 91.9915 54.4432ZM99.1989 56.125C99.8693 56.125 100.443 55.5682 100.449 54.875C100.443 54.1932 99.8693 53.6364 99.1989 53.6364C98.5057 53.6364 97.9432 54.1932 97.9489 54.875C97.9432 55.5682 98.5057 56.125 99.1989 56.125ZM106.398 56.2216C109.205 56.2273 110.881 54.0114 110.881 50.1932C110.881 46.3977 109.193 44.2045 106.398 44.2045C103.602 44.2045 101.92 46.392 101.915 50.1932C101.915 54.0057 103.591 56.2216 106.398 56.2216ZM106.398 54.4432C104.949 54.4432 104.04 52.9886 104.045 50.1932C104.051 47.4205 104.955 45.9602 106.398 45.9602C107.847 45.9602 108.75 47.4205 108.756 50.1932C108.756 52.9886 107.852 54.4432 106.398 54.4432ZM117.07 56.2216C119.876 56.2273 121.553 54.0114 121.553 50.1932C121.553 46.3977 119.865 44.2045 117.07 44.2045C114.274 44.2045 112.592 46.392 112.587 50.1932C112.587 54.0057 114.263 56.2216 117.07 56.2216ZM117.07 54.4432C115.621 54.4432 114.712 52.9886 114.717 50.1932C114.723 47.4205 115.626 45.9602 117.07 45.9602C118.518 45.9602 119.422 47.4205 119.428 50.1932C119.428 52.9886 118.524 54.4432 117.07 54.4432ZM127.741 56.2216C130.548 56.2273 132.224 54.0114 132.224 50.1932C132.224 46.3977 130.537 44.2045 127.741 44.2045C124.946 44.2045 123.264 46.392 123.259 50.1932C123.259 54.0057 124.935 56.2216 127.741 56.2216ZM127.741 54.4432C126.293 54.4432 125.384 52.9886 125.389 50.1932C125.395 47.4205 126.298 45.9602 127.741 45.9602C129.19 45.9602 130.094 47.4205 130.099 50.1932C130.099 52.9886 129.196 54.4432 127.741 54.4432Z" fill="white"/>
<path d="M137 82.7586C151.241 88.184 159.833 79.4253 167 75.2587V108.759H1L0 75.2586C2 64.7587 15.0993 61.7888 24 73.7587C38.5 93.2587 65 95.2587 84 78.2587C103 61.2586 126.5 78.7586 137 82.7586Z" fill="url(#paint1_linear)"/>
<path d="M167 75.2587C159.833 79.4253 151.241 88.184 137 82.7587C126.5 78.7586 103 61.2586 84 78.2587C65 95.2587 38.5 93.2587 24 73.7587C15.0993 61.7888 4 66.2587 1 72.2587" stroke="white"/>
<defs>
<linearGradient id="paint0_linear" x1="167" y1="-30.5555" x2="-33.2312" y2="-17.3186" gradientUnits="userSpaceOnUse">
<stop stop-color="#5A7FFF"/>
<stop offset="1" stop-color="#3E94E3"/>
</linearGradient>
<linearGradient id="paint1_linear" x1="84" y1="65.9535" x2="84" y2="108.759" gradientUnits="userSpaceOnUse">
<stop stop-color="white" stop-opacity="0.55"/>
<stop offset="1" stop-color="#C4C4C4" stop-opacity="0"/>
</linearGradient>
</defs>
</svg>
