<svg width="168" height="108" viewBox="0 0 168 108" fill="none" xmlns="http://www.w3.org/2000/svg">
<rect x="1" width="166" height="100" rx="5" fill="url(#paint0_linear)"/>
<path d="M16.0568 25H17.1136V21.8125H19.0227C21.0554 21.8125 21.9716 20.5767 21.9716 19.0341C21.9716 17.4915 21.0554 16.2727 19.0057 16.2727H16.0568V25ZM17.1136 20.875V17.2102H18.9716C20.3906 17.2102 20.9318 17.9858 20.9318 19.0341C20.9318 20.0824 20.3906 20.875 18.9886 20.875H17.1136ZM26.2116 25.1364C27.5412 25.1364 28.5128 24.4716 28.8196 23.483L27.848 23.2102C27.5923 23.892 27 24.233 26.2116 24.233C25.0312 24.233 24.2173 23.4702 24.1705 22.0682H28.9219V21.642C28.9219 19.2045 27.473 18.3693 26.1094 18.3693C24.3366 18.3693 23.1605 19.767 23.1605 21.7784C23.1605 23.7898 24.3196 25.1364 26.2116 25.1364ZM24.1705 21.1989C24.2386 20.1804 24.9588 19.2727 26.1094 19.2727C27.2003 19.2727 27.8991 20.0909 27.8991 21.1989H24.1705ZM31.4574 21.0625C31.4574 19.9205 32.1648 19.2727 33.1278 19.2727C34.0611 19.2727 34.6278 19.8821 34.6278 20.9091V25H35.6335V20.8409C35.6335 19.1705 34.7429 18.3693 33.4176 18.3693C32.429 18.3693 31.8153 18.8125 31.5085 19.4773H31.4233V18.4545H30.4517V25H31.4574V21.0625ZM40.1133 27.5909C41.6815 27.5909 42.9428 26.875 42.9428 25.1875V18.4545H41.9712V19.4943H41.869C41.6474 19.1534 41.2383 18.3693 39.9599 18.3693C38.3065 18.3693 37.1644 19.6818 37.1644 21.6932C37.1644 23.7386 38.3576 24.8977 39.9428 24.8977C41.2212 24.8977 41.6303 24.1477 41.8519 23.7898H41.9371V25.1193C41.9371 26.2102 41.1701 26.7045 40.1133 26.7045C38.9244 26.7045 38.5067 26.0781 38.2383 25.7159L37.4371 26.2784C37.8462 26.9645 38.6516 27.5909 40.1133 27.5909ZM40.0792 23.9943C38.8178 23.9943 38.1701 23.0398 38.1701 21.6761C38.1701 20.3466 38.8008 19.2727 40.0792 19.2727C41.3065 19.2727 41.9542 20.2614 41.9542 21.6761C41.9542 23.125 41.2894 23.9943 40.0792 23.9943ZM47.5281 25.1364C48.8576 25.1364 49.8292 24.4716 50.136 23.483L49.1644 23.2102C48.9087 23.892 48.3164 24.233 47.5281 24.233C46.3477 24.233 45.5337 23.4702 45.4869 22.0682H50.2383V21.642C50.2383 19.2045 48.7894 18.3693 47.4258 18.3693C45.6531 18.3693 44.4769 19.767 44.4769 21.7784C44.4769 23.7898 45.636 25.1364 47.5281 25.1364ZM45.4869 21.1989C45.555 20.1804 46.2752 19.2727 47.4258 19.2727C48.5167 19.2727 49.2156 20.0909 49.2156 21.1989H45.4869ZM52.7738 16.2727H51.7681V25H52.7738V16.2727ZM58.7408 22.3239C58.7408 23.5511 57.8033 24.1136 57.0533 24.1136C56.218 24.1136 55.6214 23.5 55.6214 22.5455V18.4545H54.6158V22.6136C54.6158 24.2841 55.5021 25.0852 56.7294 25.0852C57.718 25.0852 58.3658 24.5568 58.6726 23.892H58.7408V25H59.7464V18.4545H58.7408V22.3239ZM63.5146 25.1534C64.6566 25.1534 65.2532 24.5398 65.4577 24.1136H65.5089V25H66.5146V20.6875C66.5146 18.608 64.9293 18.3693 64.0941 18.3693C63.1055 18.3693 61.9805 18.7102 61.4691 19.9034L62.4237 20.2443C62.6452 19.767 63.1694 19.2557 64.1282 19.2557C65.0529 19.2557 65.5089 19.7457 65.5089 20.5852V20.6193C65.5089 21.1051 65.0146 21.0625 63.8214 21.2159C62.6069 21.3736 61.2816 21.642 61.2816 23.142C61.2816 24.4205 62.2702 25.1534 63.5146 25.1534ZM63.668 24.25C62.8668 24.25 62.2873 23.892 62.2873 23.1932C62.2873 22.4261 62.9862 22.1875 63.7702 22.0852C64.1964 22.0341 65.3384 21.9148 65.5089 21.7102V22.6307C65.5089 23.4489 64.8612 24.25 63.668 24.25ZM68.3501 25H69.3558V20.858C69.3558 19.9716 70.0547 19.3239 71.0092 19.3239C71.2777 19.3239 71.5547 19.375 71.6229 19.392V18.3693C71.5078 18.3608 71.2436 18.3523 71.0945 18.3523C70.3104 18.3523 69.6286 18.7955 69.3899 19.4432H69.3217V18.4545H68.3501V25ZM74.7411 25.1534C75.8832 25.1534 76.4798 24.5398 76.6843 24.1136H76.7354V25H77.7411V20.6875C77.7411 18.608 76.1559 18.3693 75.3207 18.3693C74.332 18.3693 73.207 18.7102 72.6957 19.9034L73.6502 20.2443C73.8718 19.767 74.396 19.2557 75.3548 19.2557C76.2795 19.2557 76.7354 19.7457 76.7354 20.5852V20.6193C76.7354 21.1051 76.2411 21.0625 75.0479 21.2159C73.8335 21.3736 72.5082 21.642 72.5082 23.142C72.5082 24.4205 73.4968 25.1534 74.7411 25.1534ZM74.8945 24.25C74.0934 24.25 73.5138 23.892 73.5138 23.1932C73.5138 22.4261 74.2127 22.1875 74.9968 22.0852C75.4229 22.0341 76.565 21.9148 76.7354 21.7102V22.6307C76.7354 23.4489 76.0877 24.25 74.8945 24.25ZM80.5824 21.0625C80.5824 19.9205 81.2898 19.2727 82.2528 19.2727C83.1861 19.2727 83.7528 19.8821 83.7528 20.9091V25H84.7585V20.8409C84.7585 19.1705 83.8679 18.3693 82.5426 18.3693C81.554 18.3693 80.9403 18.8125 80.6335 19.4773H80.5483V18.4545H79.5767V25H80.5824V21.0625Z" fill="white"/>
<path d="M21.3466 49.3352H16.108V51.0284H21.3466V49.3352ZM23.6009 56H25.7088V51.7386H27.8565L30.1406 56H32.4929L29.9759 51.3864C31.3452 50.8352 32.0668 49.6648 32.0668 48.0852C32.0668 45.8636 30.6349 44.3636 27.9645 44.3636H23.6009V56ZM25.7088 49.9886V46.125H27.6406C29.2145 46.125 29.919 46.8466 29.919 48.0852C29.919 49.3239 29.2145 49.9886 27.652 49.9886H25.7088ZM33.9162 59.2727H35.973V54.625H36.0582C36.3821 55.2614 37.0582 56.1534 38.5582 56.1534C40.6151 56.1534 42.1548 54.5227 42.1548 51.6477C42.1548 48.7386 40.5696 47.1591 38.5526 47.1591C37.0128 47.1591 36.3707 48.0852 36.0582 48.7159H35.9389V47.2727H33.9162V59.2727ZM35.9332 51.6364C35.9332 49.9432 36.6605 48.8466 37.9844 48.8466C39.3537 48.8466 40.0582 50.0114 40.0582 51.6364C40.0582 53.2727 39.3423 54.4659 37.9844 54.4659C36.6719 54.4659 35.9332 53.3295 35.9332 51.6364ZM52.5952 44.3636H50.5895L47.6974 46.2216V48.1534L50.419 46.4148H50.4872V56H52.5952V44.3636ZM56.1989 56.125C56.8693 56.125 57.4432 55.5682 57.4489 54.875C57.4432 54.1932 56.8693 53.6364 56.1989 53.6364C55.5057 53.6364 54.9432 54.1932 54.9489 54.875C54.9432 55.5682 55.5057 56.125 56.1989 56.125ZM63.3977 56.2216C66.2045 56.2273 67.8807 54.0114 67.8807 50.1932C67.8807 46.3977 66.1932 44.2045 63.3977 44.2045C60.6023 44.2045 58.9205 46.392 58.9148 50.1932C58.9148 54.0057 60.5909 56.2216 63.3977 56.2216ZM63.3977 54.4432C61.9489 54.4432 61.0398 52.9886 61.0455 50.1932C61.0511 47.4205 61.9545 45.9602 63.3977 45.9602C64.8466 45.9602 65.75 47.4205 65.7557 50.1932C65.7557 52.9886 64.8523 54.4432 63.3977 54.4432ZM74.0696 56.2216C76.8764 56.2273 78.5526 54.0114 78.5526 50.1932C78.5526 46.3977 76.8651 44.2045 74.0696 44.2045C71.2741 44.2045 69.5923 46.392 69.5866 50.1932C69.5866 54.0057 71.2628 56.2216 74.0696 56.2216ZM74.0696 54.4432C72.6207 54.4432 71.7116 52.9886 71.7173 50.1932C71.723 47.4205 72.6264 45.9602 74.0696 45.9602C75.5185 45.9602 76.4219 47.4205 76.4276 50.1932C76.4276 52.9886 75.5241 54.4432 74.0696 54.4432ZM84.7415 56.2216C87.5483 56.2273 89.2244 54.0114 89.2244 50.1932C89.2244 46.3977 87.5369 44.2045 84.7415 44.2045C81.946 44.2045 80.2642 46.392 80.2585 50.1932C80.2585 54.0057 81.9347 56.2216 84.7415 56.2216ZM84.7415 54.4432C83.2926 54.4432 82.3835 52.9886 82.3892 50.1932C82.3949 47.4205 83.2983 45.9602 84.7415 45.9602C86.1903 45.9602 87.0938 47.4205 87.0994 50.1932C87.0994 52.9886 86.196 54.4432 84.7415 54.4432ZM91.9489 56.125C92.6193 56.125 93.1932 55.5682 93.1989 54.875C93.1932 54.1932 92.6193 53.6364 91.9489 53.6364C91.2557 53.6364 90.6932 54.1932 90.6989 54.875C90.6932 55.5682 91.2557 56.125 91.9489 56.125ZM99.1477 56.2216C101.955 56.2273 103.631 54.0114 103.631 50.1932C103.631 46.3977 101.943 44.2045 99.1477 44.2045C96.3523 44.2045 94.6705 46.392 94.6648 50.1932C94.6648 54.0057 96.3409 56.2216 99.1477 56.2216ZM99.1477 54.4432C97.6989 54.4432 96.7898 52.9886 96.7955 50.1932C96.8011 47.4205 97.7045 45.9602 99.1477 45.9602C100.597 45.9602 101.5 47.4205 101.506 50.1932C101.506 52.9886 100.602 54.4432 99.1477 54.4432ZM109.82 56.2216C112.626 56.2273 114.303 54.0114 114.303 50.1932C114.303 46.3977 112.615 44.2045 109.82 44.2045C107.024 44.2045 105.342 46.392 105.337 50.1932C105.337 54.0057 107.013 56.2216 109.82 56.2216ZM109.82 54.4432C108.371 54.4432 107.462 52.9886 107.467 50.1932C107.473 47.4205 108.376 45.9602 109.82 45.9602C111.268 45.9602 112.172 47.4205 112.178 50.1932C112.178 52.9886 111.274 54.4432 109.82 54.4432ZM120.491 56.2216C123.298 56.2273 124.974 54.0114 124.974 50.1932C124.974 46.3977 123.287 44.2045 120.491 44.2045C117.696 44.2045 116.014 46.392 116.009 50.1932C116.009 54.0057 117.685 56.2216 120.491 56.2216ZM120.491 54.4432C119.043 54.4432 118.134 52.9886 118.139 50.1932C118.145 47.4205 119.048 45.9602 120.491 45.9602C121.94 45.9602 122.844 47.4205 122.849 50.1932C122.849 52.9886 121.946 54.4432 120.491 54.4432Z" fill="white"/>
<path d="M31 82C16.7587 87.4253 8.16667 78.6667 1 74.5V108H167L168 74.5C166 64 152.901 61.0302 144 73C129.5 92.5 103 94.5 84 77.5C65 60.5 41.5 77.9999 31 82Z" fill="url(#paint1_linear)"/>
<path d="M1 74.5C8.16667 78.6667 16.7587 87.4253 31 82C41.5 77.9999 65 60.5 84 77.5C103 94.5 129.5 92.5 144 73C152.901 61.0302 164 65.5 167 71.5" stroke="white"/>
<defs>
<linearGradient id="paint0_linear" x1="176" y1="-4.99999" x2="-3.00001" y2="117.5" gradientUnits="userSpaceOnUse">
<stop stop-color="#FF8282"/>
<stop offset="1" stop-color="#FF498B"/>
</linearGradient>
<linearGradient id="paint1_linear" x1="84" y1="65.1948" x2="84" y2="108" gradientUnits="userSpaceOnUse">
<stop stop-color="white" stop-opacity="0.55"/>
<stop offset="1" stop-color="#C4C4C4" stop-opacity="0"/>
</linearGradient>
</defs>
</svg>
