<svg width="272" height="269" viewBox="0 0 272 269" fill="none" xmlns="http://www.w3.org/2000/svg">
<path d="M45.9011 53.8182V60.4602C45.9011 61.9517 44.877 63.0256 43.1767 63.0256C41.4764 63.0256 40.4522 61.9517 40.4522 60.4602V53.8182H39.2193V60.5597C39.2193 62.6477 40.7804 64.179 43.1767 64.179C45.573 64.179 47.1341 62.6477 47.1341 60.5597V53.8182H45.9011ZM50.6104 59.4062C50.6104 58.0739 51.4357 57.3182 52.5593 57.3182C53.6481 57.3182 54.3093 58.0291 54.3093 59.2273V64H55.4826V59.1477C55.4826 57.1989 54.4435 56.2642 52.8974 56.2642C51.744 56.2642 51.0281 56.7812 50.6701 57.5568H50.5707V56.3636H49.4371V64H50.6104V59.4062ZM60.9476 56.3636H59.3169V54.5341H58.1436V56.3636H56.9902V57.358H58.1436V62.1307C58.1436 63.4631 59.2175 64.0994 60.2118 64.0994C60.6493 64.0994 60.9277 64.0199 61.0868 63.9602L60.8482 62.9062C60.7488 62.9261 60.5897 62.9659 60.3311 62.9659C59.8141 62.9659 59.3169 62.8068 59.3169 61.8125V57.358H60.9476V56.3636ZM67.525 60.8778C67.525 62.3097 66.4313 62.9659 65.5563 62.9659C64.5819 62.9659 63.8858 62.25 63.8858 61.1364V56.3636H62.7125V61.2159C62.7125 63.1648 63.7466 64.0994 65.1784 64.0994C66.3319 64.0994 67.0875 63.483 67.4455 62.7074H67.525V64H68.6983V56.3636H67.525V60.8778ZM70.8473 64H72.0206V61.1413L72.8409 60.3807L75.6996 64H77.1911L73.7259 59.625L76.9524 56.3636H75.5007L72.1598 59.7642H72.0206V53.8182H70.8473V64ZM82.4 64H83.5733V59.2273C83.5733 58.1087 84.3887 57.3182 85.3034 57.3182C86.1934 57.3182 86.8148 57.8999 86.8148 58.7699V64H88.008V59.0284C88.008 58.044 88.6245 57.3182 89.6983 57.3182C90.5336 57.3182 91.2495 57.7607 91.2495 58.8892V64H92.4228V58.8892C92.4228 57.0945 91.4583 56.2642 90.0961 56.2642C89.0023 56.2642 88.2019 56.7663 87.8091 57.5568H87.7296C87.3517 56.7415 86.6855 56.2642 85.6813 56.2642C84.687 56.2642 83.9512 56.7415 83.633 57.5568H83.5336V56.3636H82.4V64ZM97.7697 64.1591C99.3208 64.1591 100.454 63.3835 100.812 62.2301L99.6788 61.9119C99.3805 62.7074 98.6895 63.1051 97.7697 63.1051C96.3926 63.1051 95.443 62.2152 95.3883 60.5795H100.932V60.0824C100.932 57.2386 99.2413 56.2642 97.6504 56.2642C95.5822 56.2642 94.21 57.8949 94.21 60.2415C94.21 62.5881 95.5623 64.1591 97.7697 64.1591ZM95.3883 59.5653C95.4679 58.3771 96.3081 57.3182 97.6504 57.3182C98.9231 57.3182 99.7385 58.2727 99.7385 59.5653H95.3883ZM102.716 64H103.89V59.2273C103.89 58.1087 104.705 57.3182 105.62 57.3182C106.51 57.3182 107.131 57.8999 107.131 58.7699V64H108.324V59.0284C108.324 58.044 108.941 57.3182 110.015 57.3182C110.85 57.3182 111.566 57.7607 111.566 58.8892V64H112.739V58.8892C112.739 57.0945 111.775 56.2642 110.412 56.2642C109.319 56.2642 108.518 56.7663 108.126 57.5568H108.046C107.668 56.7415 107.002 56.2642 105.998 56.2642C105.003 56.2642 104.268 56.7415 103.949 57.5568H103.85V56.3636H102.716V64ZM115.044 64H116.177V62.8267H116.316C116.575 63.2443 117.072 64.1591 118.544 64.1591C120.453 64.1591 121.785 62.6278 121.785 60.2017C121.785 57.7955 120.453 56.2642 118.524 56.2642C117.032 56.2642 116.575 57.179 116.316 57.5767H116.217V53.8182H115.044V64ZM116.197 60.1818C116.197 58.4716 116.953 57.3182 118.384 57.3182C119.876 57.3182 120.612 58.571 120.612 60.1818C120.612 61.8125 119.856 63.1051 118.384 63.1051C116.972 63.1051 116.197 61.9119 116.197 60.1818ZM125.827 64.179C127.159 64.179 127.855 63.4631 128.094 62.9659H128.154V64H129.327V58.9688C129.327 56.5426 127.477 56.2642 126.503 56.2642C125.35 56.2642 124.037 56.6619 123.441 58.054L124.554 58.4517C124.813 57.8949 125.424 57.2983 126.543 57.2983C127.622 57.2983 128.154 57.87 128.154 58.8494V58.8892C128.154 59.456 127.577 59.4062 126.185 59.5852C124.768 59.7692 123.222 60.0824 123.222 61.8324C123.222 63.3239 124.375 64.179 125.827 64.179ZM126.006 63.125C125.071 63.125 124.395 62.7074 124.395 61.892C124.395 60.9972 125.21 60.7188 126.125 60.5994C126.622 60.5398 127.955 60.4006 128.154 60.1619V61.2358C128.154 62.1903 127.398 63.125 126.006 63.125ZM132.642 59.4062C132.642 58.0739 133.467 57.3182 134.591 57.3182C135.679 57.3182 136.341 58.0291 136.341 59.2273V64H137.514V59.1477C137.514 57.1989 136.475 56.2642 134.929 56.2642C133.775 56.2642 133.059 56.7812 132.701 57.5568H132.602V56.3636H131.468V64H132.642V59.4062ZM142.74 67.0227C144.57 67.0227 146.041 66.1875 146.041 64.2188V56.3636H144.908V57.5767H144.789C144.53 57.179 144.053 56.2642 142.561 56.2642C140.632 56.2642 139.3 57.7955 139.3 60.142C139.3 62.5284 140.692 63.8807 142.541 63.8807C144.033 63.8807 144.51 63.0057 144.769 62.5881H144.868V64.1392C144.868 65.4119 143.973 65.9886 142.74 65.9886C141.353 65.9886 140.866 65.2578 140.553 64.8352L139.618 65.4915C140.095 66.2919 141.035 67.0227 142.74 67.0227ZM142.7 62.8267C141.229 62.8267 140.473 61.7131 140.473 60.1222C140.473 58.571 141.209 57.3182 142.7 57.3182C144.132 57.3182 144.888 58.4716 144.888 60.1222C144.888 61.8125 144.112 62.8267 142.7 62.8267ZM153.002 60.8778C153.002 62.3097 151.908 62.9659 151.033 62.9659C150.058 62.9659 149.362 62.25 149.362 61.1364V56.3636H148.189V61.2159C148.189 63.1648 149.223 64.0994 150.655 64.0994C151.808 64.0994 152.564 63.483 152.922 62.7074H153.002V64H154.175V56.3636H153.002V60.8778ZM157.497 59.4062C157.497 58.0739 158.322 57.3182 159.446 57.3182C160.535 57.3182 161.196 58.0291 161.196 59.2273V64H162.369V59.1477C162.369 57.1989 161.33 56.2642 159.784 56.2642C158.631 56.2642 157.915 56.7812 157.557 57.5568H157.457V56.3636H156.324V64H157.497V59.4062ZM168.451 64H169.624V61.1413L170.444 60.3807L173.303 64H174.795L171.329 59.625L174.556 56.3636H173.104L169.763 59.7642H169.624V53.8182H168.451V64ZM178.953 64.1591C180.504 64.1591 181.638 63.3835 181.996 62.2301L180.862 61.9119C180.564 62.7074 179.873 63.1051 178.953 63.1051C177.576 63.1051 176.627 62.2152 176.572 60.5795H182.115V60.0824C182.115 57.2386 180.425 56.2642 178.834 56.2642C176.766 56.2642 175.394 57.8949 175.394 60.2415C175.394 62.5881 176.746 64.1591 178.953 64.1591ZM176.572 59.5653C176.651 58.3771 177.492 57.3182 178.834 57.3182C180.107 57.3182 180.922 58.2727 180.922 59.5653H176.572ZM184.059 64H185.193V62.8267H185.332C185.59 63.2443 186.088 64.1591 187.559 64.1591C189.468 64.1591 190.801 62.6278 190.801 60.2017C190.801 57.7955 189.468 56.2642 187.539 56.2642C186.048 56.2642 185.59 57.179 185.332 57.5767H185.232V53.8182H184.059V64ZM185.213 60.1818C185.213 58.4716 185.968 57.3182 187.4 57.3182C188.892 57.3182 189.627 58.571 189.627 60.1818C189.627 61.8125 188.872 63.1051 187.4 63.1051C185.988 63.1051 185.213 61.9119 185.213 60.1818ZM192.595 64H193.769V56.3636H192.595V64ZM193.192 55.0909C193.649 55.0909 194.027 54.733 194.027 54.2955C194.027 53.858 193.649 53.5 193.192 53.5C192.735 53.5 192.357 53.858 192.357 54.2955C192.357 54.733 192.735 55.0909 193.192 55.0909ZM198.165 64.179C199.497 64.179 200.193 63.4631 200.432 62.9659H200.491V64H201.665V58.9688C201.665 56.5426 199.815 56.2642 198.841 56.2642C197.688 56.2642 196.375 56.6619 195.778 58.054L196.892 58.4517C197.151 57.8949 197.762 57.2983 198.881 57.2983C199.96 57.2983 200.491 57.87 200.491 58.8494V58.8892C200.491 59.456 199.915 59.4062 198.523 59.5852C197.106 59.7692 195.56 60.0824 195.56 61.8324C195.56 63.3239 196.713 64.179 198.165 64.179ZM198.344 63.125C197.409 63.125 196.733 62.7074 196.733 61.892C196.733 60.9972 197.548 60.7188 198.463 60.5994C198.96 60.5398 200.293 60.4006 200.491 60.1619V61.2358C200.491 62.1903 199.736 63.125 198.344 63.125ZM209.215 58.0739C208.847 56.9901 208.022 56.2642 206.511 56.2642C204.9 56.2642 203.707 57.179 203.707 58.4716C203.707 59.5256 204.333 60.2315 205.735 60.5597L207.008 60.858C207.779 61.0369 208.142 61.4048 208.142 61.9318C208.142 62.5881 207.445 63.125 206.352 63.125C205.392 63.125 204.791 62.7124 204.582 61.892L203.468 62.1705C203.742 63.468 204.811 64.1591 206.372 64.1591C208.146 64.1591 209.355 63.1896 209.355 61.8722C209.355 60.8082 208.688 60.1371 207.326 59.804L206.193 59.5256C205.288 59.3018 204.88 58.9986 204.88 58.4119C204.88 57.7557 205.576 57.2784 206.511 57.2784C207.535 57.2784 207.958 57.8452 208.161 58.3722L209.215 58.0739ZM213.368 64.179C214.7 64.179 215.396 63.4631 215.635 62.9659H215.695V64H216.868V58.9688C216.868 56.5426 215.018 56.2642 214.044 56.2642C212.891 56.2642 211.578 56.6619 210.982 58.054L212.095 58.4517C212.354 57.8949 212.965 57.2983 214.084 57.2983C215.163 57.2983 215.695 57.87 215.695 58.8494V58.8892C215.695 59.456 215.118 59.4062 213.726 59.5852C212.309 59.7692 210.763 60.0824 210.763 61.8324C210.763 63.3239 211.916 64.179 213.368 64.179ZM213.547 63.125C212.612 63.125 211.936 62.7074 211.936 61.892C211.936 60.9972 212.751 60.7188 213.666 60.5994C214.163 60.5398 215.496 60.4006 215.695 60.1619V61.2358C215.695 62.1903 214.939 63.125 213.547 63.125ZM221.257 64.179C222.589 64.179 223.285 63.4631 223.524 62.9659H223.583V64H224.757V58.9688C224.757 56.5426 222.907 56.2642 221.933 56.2642C220.779 56.2642 219.467 56.6619 218.87 58.054L219.984 58.4517C220.242 57.8949 220.854 57.2983 221.972 57.2983C223.051 57.2983 223.583 57.87 223.583 58.8494V58.8892C223.583 59.456 223.007 59.4062 221.615 59.5852C220.198 59.7692 218.651 60.0824 218.651 61.8324C218.651 63.3239 219.805 64.179 221.257 64.179ZM221.436 63.125C220.501 63.125 219.825 62.7074 219.825 61.892C219.825 60.9972 220.64 60.7188 221.555 60.5994C222.052 60.5398 223.384 60.4006 223.583 60.1619V61.2358C223.583 62.1903 222.828 63.125 221.436 63.125ZM228.071 59.4062C228.071 58.0739 228.897 57.3182 230.02 57.3182C231.109 57.3182 231.77 58.0291 231.77 59.2273V64H232.944V59.1477C232.944 57.1989 231.904 56.2642 230.358 56.2642C229.205 56.2642 228.489 56.7812 228.131 57.5568H228.032V56.3636H226.898V64H228.071V59.4062ZM19.4479 84H20.6212V79.2273C20.6212 78.1087 21.4365 77.3182 22.3513 77.3182C23.2412 77.3182 23.8627 77.8999 23.8627 78.7699V84H25.0558V79.0284C25.0558 78.044 25.6723 77.3182 26.7462 77.3182C27.5814 77.3182 28.2973 77.7607 28.2973 78.8892V84H29.4706V78.8892C29.4706 77.0945 28.5061 76.2642 27.1439 76.2642C26.0502 76.2642 25.2497 76.7663 24.857 77.5568H24.7774C24.3996 76.7415 23.7334 76.2642 22.7291 76.2642C21.7348 76.2642 20.999 76.7415 20.6808 77.5568H20.5814V76.3636H19.4479V84ZM34.8176 84.1591C36.3687 84.1591 37.5022 83.3835 37.8602 82.2301L36.7267 81.9119C36.4284 82.7074 35.7373 83.1051 34.8176 83.1051C33.4404 83.1051 32.4909 82.2152 32.4362 80.5795H37.9795V80.0824C37.9795 77.2386 36.2892 76.2642 34.6982 76.2642C32.6301 76.2642 31.2579 77.8949 31.2579 80.2415C31.2579 82.5881 32.6102 84.1591 34.8176 84.1591ZM32.4362 79.5653C32.5157 78.3771 33.3559 77.3182 34.6982 77.3182C35.971 77.3182 36.7863 78.2727 36.7863 79.5653H32.4362ZM40.9376 79.4062C40.9376 78.0739 41.7629 77.3182 42.8865 77.3182C43.9752 77.3182 44.6365 78.0291 44.6365 79.2273V84H45.8097V79.1477C45.8097 77.1989 44.7707 76.2642 43.2245 76.2642C42.0711 76.2642 41.3552 76.7812 40.9972 77.5568H40.8978V76.3636H39.7643V84H40.9376V79.4062ZM50.2009 84.179C51.5333 84.179 52.2293 83.4631 52.468 82.9659H52.5276V84H53.7009V78.9688C53.7009 76.5426 51.8515 76.2642 50.877 76.2642C49.7236 76.2642 48.4111 76.6619 47.8145 78.054L48.9282 78.4517C49.1867 77.8949 49.7982 77.2983 50.9168 77.2983C51.9956 77.2983 52.5276 77.87 52.5276 78.8494V78.8892C52.5276 79.456 51.9509 79.4062 50.5589 79.5852C49.142 79.7692 47.5958 80.0824 47.5958 81.8324C47.5958 83.3239 48.7492 84.179 50.2009 84.179ZM50.3799 83.125C49.4452 83.125 48.7691 82.7074 48.7691 81.892C48.7691 80.9972 49.5844 80.7188 50.4992 80.5994C50.9964 80.5398 52.3287 80.4006 52.5276 80.1619V81.2358C52.5276 82.1903 51.7719 83.125 50.3799 83.125ZM55.8424 84H57.0157V79.2273C57.0157 78.1087 57.8311 77.3182 58.7458 77.3182C59.6357 77.3182 60.2572 77.8999 60.2572 78.7699V84H61.4504V79.0284C61.4504 78.044 62.0669 77.3182 63.1407 77.3182C63.9759 77.3182 64.6919 77.7607 64.6919 78.8892V84H65.8651V78.8892C65.8651 77.0945 64.9007 76.2642 63.5384 76.2642C62.4447 76.2642 61.6443 76.7663 61.2515 77.5568H61.172C60.7941 76.7415 60.1279 76.2642 59.1237 76.2642C58.1294 76.2642 57.3936 76.7415 57.0754 77.5568H56.9759V76.3636H55.8424V84ZM68.1695 84H69.303V82.8267H69.4422C69.7007 83.2443 70.1979 84.1591 71.6695 84.1591C73.5786 84.1591 74.911 82.6278 74.911 80.2017C74.911 77.7955 73.5786 76.2642 71.6496 76.2642C70.1581 76.2642 69.7007 77.179 69.4422 77.5767H69.3428V73.8182H68.1695V84ZM69.3229 80.1818C69.3229 78.4716 70.0786 77.3182 71.5104 77.3182C73.0019 77.3182 73.7377 78.571 73.7377 80.1818C73.7377 81.8125 72.982 83.1051 71.5104 83.1051C70.0985 83.1051 69.3229 81.9119 69.3229 80.1818ZM78.9529 84.179C80.2852 84.179 80.9813 83.4631 81.2199 82.9659H81.2796V84H82.4529V78.9688C82.4529 76.5426 80.6034 76.2642 79.629 76.2642C78.4756 76.2642 77.1631 76.6619 76.5665 78.054L77.6801 78.4517C77.9387 77.8949 78.5502 77.2983 79.6688 77.2983C80.7476 77.2983 81.2796 77.87 81.2796 78.8494V78.8892C81.2796 79.456 80.7029 79.4062 79.3108 79.5852C77.8939 79.7692 76.3477 80.0824 76.3477 81.8324C76.3477 83.3239 77.5012 84.179 78.9529 84.179ZM79.1318 83.125C78.1972 83.125 77.521 82.7074 77.521 81.892C77.521 80.9972 78.3364 80.7188 79.2512 80.5994C79.7483 80.5398 81.0807 80.4006 81.2796 80.1619V81.2358C81.2796 82.1903 80.5239 83.125 79.1318 83.125ZM85.7677 79.4062C85.7677 78.0739 86.6178 77.3182 87.7762 77.3182C88.8799 77.3182 89.5461 78.0142 89.5461 79.2273V84H90.7194V79.1477C90.7194 77.1839 89.6753 76.2642 88.1143 76.2642C86.9111 76.2642 86.2251 76.7663 85.8671 77.5568H85.7677V73.8182H84.5944V84H85.7677V79.4062ZM92.8659 84H94.0392V81.1413L94.8595 80.3807L97.7181 84H99.2096L95.7444 79.625L98.971 76.3636H97.5193L94.1784 79.7642H94.0392V73.8182H92.8659V84ZM102.728 84.179C104.061 84.179 104.757 83.4631 104.995 82.9659H105.055V84H106.228V78.9688C106.228 76.5426 104.379 76.2642 103.404 76.2642C102.251 76.2642 100.938 76.6619 100.342 78.054L101.456 78.4517C101.714 77.8949 102.326 77.2983 103.444 77.2983C104.523 77.2983 105.055 77.87 105.055 78.8494V78.8892C105.055 79.456 104.478 79.4062 103.086 79.5852C101.669 79.7692 100.123 80.0824 100.123 81.8324C100.123 83.3239 101.277 84.179 102.728 84.179ZM102.907 83.125C101.973 83.125 101.296 82.7074 101.296 81.892C101.296 80.9972 102.112 80.7188 103.027 80.5994C103.524 80.5398 104.856 80.4006 105.055 80.1619V81.2358C105.055 82.1903 104.299 83.125 102.907 83.125ZM109.543 79.4062C109.543 78.0739 110.368 77.3182 111.492 77.3182C112.581 77.3182 113.242 78.0291 113.242 79.2273V84H114.415V79.1477C114.415 77.1989 113.376 76.2642 111.83 76.2642C110.677 76.2642 109.961 76.7812 109.603 77.5568H109.503V76.3636H108.37V84H109.543V79.4062ZM123.818 76.3636H122.187V74.5341H121.014V76.3636H119.86V77.358H121.014V82.1307C121.014 83.4631 122.088 84.0994 123.082 84.0994C123.519 84.0994 123.798 84.0199 123.957 83.9602L123.718 82.9062C123.619 82.9261 123.46 82.9659 123.201 82.9659C122.684 82.9659 122.187 82.8068 122.187 81.8125V77.358H123.818V76.3636ZM125.583 84H126.756V79.1676C126.756 78.1335 127.571 77.3778 128.685 77.3778C128.998 77.3778 129.321 77.4375 129.401 77.4574V76.2642C129.267 76.2543 128.958 76.2443 128.784 76.2443C127.87 76.2443 127.074 76.7614 126.796 77.517H126.716V76.3636H125.583V84ZM133.039 84.179C134.371 84.179 135.067 83.4631 135.306 82.9659H135.366V84H136.539V78.9688C136.539 76.5426 134.689 76.2642 133.715 76.2642C132.562 76.2642 131.249 76.6619 130.652 78.054L131.766 78.4517C132.025 77.8949 132.636 77.2983 133.755 77.2983C134.834 77.2983 135.366 77.87 135.366 78.8494V78.8892C135.366 79.456 134.789 79.4062 133.397 79.5852C131.98 79.7692 130.434 80.0824 130.434 81.8324C130.434 83.3239 131.587 84.179 133.039 84.179ZM133.218 83.125C132.283 83.125 131.607 82.7074 131.607 81.892C131.607 80.9972 132.422 80.7188 133.337 80.5994C133.834 80.5398 135.167 80.4006 135.366 80.1619V81.2358C135.366 82.1903 134.61 83.125 133.218 83.125ZM139.854 79.4062C139.854 78.0739 140.679 77.3182 141.802 77.3182C142.891 77.3182 143.552 78.0291 143.552 79.2273V84H144.726V79.1477C144.726 77.1989 143.687 76.2642 142.141 76.2642C140.987 76.2642 140.271 76.7812 139.913 77.5568H139.814V76.3636H138.68V84H139.854V79.4062ZM152.279 78.0739C151.911 76.9901 151.086 76.2642 149.574 76.2642C147.964 76.2642 146.77 77.179 146.77 78.4716C146.77 79.5256 147.397 80.2315 148.799 80.5597L150.071 80.858C150.842 81.0369 151.205 81.4048 151.205 81.9318C151.205 82.5881 150.509 83.125 149.415 83.125C148.456 83.125 147.854 82.7124 147.645 81.892L146.532 82.1705C146.805 83.468 147.874 84.1591 149.435 84.1591C151.21 84.1591 152.418 83.1896 152.418 81.8722C152.418 80.8082 151.752 80.1371 150.39 79.804L149.256 79.5256C148.351 79.3018 147.944 78.9986 147.944 78.4119C147.944 77.7557 148.64 77.2784 149.574 77.2784C150.598 77.2784 151.021 77.8452 151.225 78.3722L152.279 78.0739ZM156.431 84.179C157.764 84.179 158.46 83.4631 158.698 82.9659H158.758V84H159.931V78.9688C159.931 76.5426 158.082 76.2642 157.108 76.2642C155.954 76.2642 154.642 76.6619 154.045 78.054L155.159 78.4517C155.417 77.8949 156.029 77.2983 157.147 77.2983C158.226 77.2983 158.758 77.87 158.758 78.8494V78.8892C158.758 79.456 158.181 79.4062 156.789 79.5852C155.372 79.7692 153.826 80.0824 153.826 81.8324C153.826 83.3239 154.98 84.179 156.431 84.179ZM156.61 83.125C155.676 83.125 155 82.7074 155 81.892C155 80.9972 155.815 80.7188 156.73 80.5994C157.227 80.5398 158.559 80.4006 158.758 80.1619V81.2358C158.758 82.1903 158.002 83.125 156.61 83.125ZM162.073 84H163.246V81.1413L164.066 80.3807L166.925 84H168.417L164.951 79.625L168.178 76.3636H166.726L163.385 79.7642H163.246V73.8182H162.073V84ZM175.097 78.0739C174.729 76.9901 173.904 76.2642 172.393 76.2642C170.782 76.2642 169.589 77.179 169.589 78.4716C169.589 79.5256 170.215 80.2315 171.617 80.5597L172.89 80.858C173.66 81.0369 174.023 81.4048 174.023 81.9318C174.023 82.5881 173.327 83.125 172.234 83.125C171.274 83.125 170.672 82.7124 170.464 81.892L169.35 82.1705C169.623 83.468 170.692 84.1591 172.253 84.1591C174.028 84.1591 175.236 83.1896 175.236 81.8722C175.236 80.8082 174.57 80.1371 173.208 79.804L172.074 79.5256C171.17 79.3018 170.762 78.9986 170.762 78.4119C170.762 77.7557 171.458 77.2784 172.393 77.2784C173.417 77.2784 173.839 77.8452 174.043 78.3722L175.097 78.0739ZM177.003 84H178.176V76.3636H177.003V84ZM177.599 75.0909C178.057 75.0909 178.434 74.733 178.434 74.2955C178.434 73.858 178.057 73.5 177.599 73.5C177.142 73.5 176.764 73.858 176.764 74.2955C176.764 74.733 177.142 75.0909 177.599 75.0909ZM182.075 82.608H180.802L180.742 83.1648C180.598 84.5121 180.315 85.8544 180.186 86.4858H181.081C181.319 85.8097 181.826 84.2784 181.995 83.1449L182.075 82.608ZM188.186 84H189.359V81.1413L190.18 80.3807L193.038 84H194.53L191.065 79.625L194.291 76.3636H192.84L189.499 79.7642H189.359V73.8182H188.186V84ZM198.049 84.179C199.381 84.179 200.077 83.4631 200.316 82.9659H200.375V84H201.549V78.9688C201.549 76.5426 199.699 76.2642 198.725 76.2642C197.571 76.2642 196.259 76.6619 195.662 78.054L196.776 78.4517C197.034 77.8949 197.646 77.2983 198.764 77.2983C199.843 77.2983 200.375 77.87 200.375 78.8494V78.8892C200.375 79.456 199.799 79.4062 198.407 79.5852C196.99 79.7692 195.443 80.0824 195.443 81.8324C195.443 83.3239 196.597 84.179 198.049 84.179ZM198.228 83.125C197.293 83.125 196.617 82.7074 196.617 81.892C196.617 80.9972 197.432 80.7188 198.347 80.5994C198.844 80.5398 200.176 80.4006 200.375 80.1619V81.2358C200.375 82.1903 199.62 83.125 198.228 83.125ZM203.69 84H204.863V79.2273C204.863 78.1087 205.679 77.3182 206.593 77.3182C207.483 77.3182 208.105 77.8999 208.105 78.7699V84H209.298V79.0284C209.298 78.044 209.915 77.3182 210.988 77.3182C211.824 77.3182 212.54 77.7607 212.54 78.8892V84H213.713V78.8892C213.713 77.0945 212.748 76.2642 211.386 76.2642C210.292 76.2642 209.492 76.7663 209.099 77.5568H209.02C208.642 76.7415 207.976 76.2642 206.971 76.2642C205.977 76.2642 205.241 76.7415 204.923 77.5568H204.824V76.3636H203.69V84ZM215.858 84H217.031V76.3636H215.858V84ZM216.455 75.0909C216.912 75.0909 217.29 74.733 217.29 74.2955C217.29 73.858 216.912 73.5 216.455 73.5C215.997 73.5 215.619 73.858 215.619 74.2955C215.619 74.733 215.997 75.0909 216.455 75.0909ZM225.365 84.179C226.697 84.179 227.393 83.4631 227.632 82.9659H227.692V84H228.865V78.9688C228.865 76.5426 227.016 76.2642 226.041 76.2642C224.888 76.2642 223.575 76.6619 222.979 78.054L224.092 78.4517C224.351 77.8949 224.962 77.2983 226.081 77.2983C227.16 77.2983 227.692 77.87 227.692 78.8494V78.8892C227.692 79.456 227.115 79.4062 225.723 79.5852C224.306 79.7692 222.76 80.0824 222.76 81.8324C222.76 83.3239 223.913 84.179 225.365 84.179ZM225.544 83.125C224.609 83.125 223.933 82.7074 223.933 81.892C223.933 80.9972 224.748 80.7188 225.663 80.5994C226.16 80.5398 227.493 80.4006 227.692 80.1619V81.2358C227.692 82.1903 226.936 83.125 225.544 83.125ZM231.006 84H232.18V81.1413L233 80.3807L235.859 84H237.35L233.885 79.625L237.112 76.3636H235.66L232.319 79.7642H232.18V73.8182H231.006V84ZM240.869 84.179C242.201 84.179 242.897 83.4631 243.136 82.9659H243.196V84H244.369V78.9688C244.369 76.5426 242.519 76.2642 241.545 76.2642C240.392 76.2642 239.079 76.6619 238.483 78.054L239.596 78.4517C239.855 77.8949 240.466 77.2983 241.585 77.2983C242.664 77.2983 243.196 77.87 243.196 78.8494V78.8892C243.196 79.456 242.619 79.4062 241.227 79.5852C239.81 79.7692 238.264 80.0824 238.264 81.8324C238.264 83.3239 239.417 84.179 240.869 84.179ZM241.048 83.125C240.113 83.125 239.437 82.7074 239.437 81.892C239.437 80.9972 240.252 80.7188 241.167 80.5994C241.664 80.5398 242.997 80.4006 243.196 80.1619V81.2358C243.196 82.1903 242.44 83.125 241.048 83.125ZM247.684 79.4062C247.684 78.0739 248.509 77.3182 249.633 77.3182C250.721 77.3182 251.383 78.0291 251.383 79.2273V84H252.556V79.1477C252.556 77.1989 251.517 76.2642 249.971 76.2642C248.817 76.2642 248.101 76.7812 247.743 77.5568H247.644V76.3636H246.51V84H247.684V79.4062ZM10.6432 104H11.8165V99.2273C11.8165 98.1087 12.6318 97.3182 13.5466 97.3182C14.4365 97.3182 15.058 97.8999 15.058 98.7699V104H16.2512V99.0284C16.2512 98.044 16.8676 97.3182 17.9415 97.3182C18.7767 97.3182 19.4926 97.7607 19.4926 98.8892V104H20.6659V98.8892C20.6659 97.0945 19.7014 96.2642 18.3392 96.2642C17.2455 96.2642 16.445 96.7663 16.0523 97.5568H15.9727C15.5949 96.7415 14.9287 96.2642 13.9244 96.2642C12.9301 96.2642 12.1943 96.7415 11.8762 97.5568H11.7767V96.3636H10.6432V104ZM26.0129 104.159C27.564 104.159 28.6975 103.384 29.0555 102.23L27.922 101.912C27.6237 102.707 26.9326 103.105 26.0129 103.105C24.6357 103.105 23.6862 102.215 23.6315 100.58H29.1748V100.082C29.1748 97.2386 27.4845 96.2642 25.8936 96.2642C23.8254 96.2642 22.4532 97.8949 22.4532 100.241C22.4532 102.588 23.8055 104.159 26.0129 104.159ZM23.6315 99.5653C23.711 98.3771 24.5512 97.3182 25.8936 97.3182C27.1663 97.3182 27.9816 98.2727 27.9816 99.5653H23.6315ZM32.1329 99.4062C32.1329 98.0739 32.9582 97.3182 34.0818 97.3182C35.1705 97.3182 35.8318 98.0291 35.8318 99.2273V104H37.0051V99.1477C37.0051 97.1989 35.966 96.2642 34.4198 96.2642C33.2664 96.2642 32.5505 96.7812 32.1926 97.5568H32.0931V96.3636H30.9596V104H32.1329V99.4062ZM42.2314 107.023C44.061 107.023 45.5326 106.188 45.5326 104.219V96.3636H44.3991V97.5767H44.2797C44.0212 97.179 43.5439 96.2642 42.0525 96.2642C40.1235 96.2642 38.7911 97.7955 38.7911 100.142C38.7911 102.528 40.1831 103.881 42.0326 103.881C43.5241 103.881 44.0013 103.006 44.2599 102.588H44.3593V104.139C44.3593 105.412 43.4644 105.989 42.2314 105.989C40.8444 105.989 40.3572 105.258 40.0439 104.835L39.1093 105.491C39.5866 106.292 40.5262 107.023 42.2314 107.023ZM42.1917 102.827C40.7201 102.827 39.9644 101.713 39.9644 100.122C39.9644 98.571 40.7002 97.3182 42.1917 97.3182C43.6235 97.3182 44.3792 98.4716 44.3792 100.122C44.3792 101.812 43.6036 102.827 42.1917 102.827ZM47.6803 104H48.8536V96.3636H47.6803V104ZM48.2769 95.0909C48.7343 95.0909 49.1121 94.733 49.1121 94.2955C49.1121 93.858 48.7343 93.5 48.2769 93.5C47.8195 93.5 47.4417 93.858 47.4417 94.2955C47.4417 94.733 47.8195 95.0909 48.2769 95.0909ZM52.1759 99.4062C52.1759 98.0739 53.0012 97.3182 54.1247 97.3182C55.2135 97.3182 55.8747 98.0291 55.8747 99.2273V104H57.048V99.1477C57.048 97.1989 56.009 96.2642 54.4628 96.2642C53.3094 96.2642 52.5935 96.7812 52.2355 97.5568H52.1361V96.3636H51.0026V104H52.1759V99.4062ZM62.2744 107.023C64.104 107.023 65.5756 106.188 65.5756 104.219V96.3636H64.442V97.5767H64.3227C64.0642 97.179 63.5869 96.2642 62.0954 96.2642C60.1665 96.2642 58.8341 97.7955 58.8341 100.142C58.8341 102.528 60.2261 103.881 62.0756 103.881C63.567 103.881 64.0443 103.006 64.3028 102.588H64.4023V104.139C64.4023 105.412 63.5074 105.989 62.2744 105.989C60.8873 105.989 60.4001 105.258 60.0869 104.835L59.1523 105.491C59.6295 106.292 60.5692 107.023 62.2744 107.023ZM62.2346 102.827C60.7631 102.827 60.0074 101.713 60.0074 100.122C60.0074 98.571 60.7432 97.3182 62.2346 97.3182C63.6665 97.3182 64.4221 98.4716 64.4221 100.122C64.4221 101.812 63.6466 102.827 62.2346 102.827ZM69.9704 104.179C71.3028 104.179 71.9988 103.463 72.2375 102.966H72.2971V104H73.4704V98.9688C73.4704 96.5426 71.621 96.2642 70.6466 96.2642C69.4932 96.2642 68.1807 96.6619 67.5841 98.054L68.6977 98.4517C68.9562 97.8949 69.5677 97.2983 70.6863 97.2983C71.7652 97.2983 72.2971 97.87 72.2971 98.8494V98.8892C72.2971 99.456 71.7204 99.4062 70.3284 99.5852C68.9115 99.7692 67.3653 100.082 67.3653 101.832C67.3653 103.324 68.5187 104.179 69.9704 104.179ZM70.1494 103.125C69.2148 103.125 68.5386 102.707 68.5386 101.892C68.5386 100.997 69.354 100.719 70.2687 100.599C70.7659 100.54 72.0983 100.401 72.2971 100.162V101.236C72.2971 102.19 71.5415 103.125 70.1494 103.125ZM78.933 96.3636H77.3023V94.5341H76.129V96.3636H74.9756V97.358H76.129V102.131C76.129 103.463 77.2029 104.099 78.1972 104.099C78.6347 104.099 78.9131 104.02 79.0722 103.96L78.8335 102.906C78.7341 102.926 78.575 102.966 78.3165 102.966C77.7994 102.966 77.3023 102.807 77.3023 101.812V97.358H78.933V96.3636ZM80.8619 104H82.0352V101.141L82.8556 100.381L85.7142 104H87.2057L83.7405 99.625L86.9671 96.3636H85.5154L82.1744 99.7642H82.0352V93.8182H80.8619V104ZM90.7243 104.179C92.0567 104.179 92.7528 103.463 92.9914 102.966H93.051V104H94.2243V98.9688C94.2243 96.5426 92.3749 96.2642 91.4005 96.2642C90.2471 96.2642 88.9346 96.6619 88.338 98.054L89.4516 98.4517C89.7101 97.8949 90.3216 97.2983 91.4403 97.2983C92.5191 97.2983 93.051 97.87 93.051 98.8494V98.8892C93.051 99.456 92.4743 99.4062 91.0823 99.5852C89.6654 99.7692 88.1192 100.082 88.1192 101.832C88.1192 103.324 89.2726 104.179 90.7243 104.179ZM90.9033 103.125C89.9687 103.125 89.2925 102.707 89.2925 101.892C89.2925 100.997 90.1079 100.719 91.0226 100.599C91.5198 100.54 92.8522 100.401 93.051 100.162V101.236C93.051 102.19 92.2954 103.125 90.9033 103.125ZM97.5392 99.4062C97.5392 98.0739 98.3644 97.3182 99.488 97.3182C100.577 97.3182 101.238 98.0291 101.238 99.2273V104H102.411V99.1477C102.411 97.1989 101.372 96.2642 99.8261 96.2642C98.6727 96.2642 97.9568 96.7812 97.5988 97.5568H97.4994V96.3636H96.3659V104H97.5392V99.4062ZM110.74 104.179C112.072 104.179 112.768 103.463 113.007 102.966H113.067V104H114.24V98.9688C114.24 96.5426 112.391 96.2642 111.416 96.2642C110.263 96.2642 108.95 96.6619 108.354 98.054L109.467 98.4517C109.726 97.8949 110.337 97.2983 111.456 97.2983C112.535 97.2983 113.067 97.87 113.067 98.8494V98.8892C113.067 99.456 112.49 99.4062 111.098 99.5852C109.681 99.7692 108.135 100.082 108.135 101.832C108.135 103.324 109.288 104.179 110.74 104.179ZM110.919 103.125C109.984 103.125 109.308 102.707 109.308 101.892C109.308 100.997 110.123 100.719 111.038 100.599C111.535 100.54 112.868 100.401 113.067 100.162V101.236C113.067 102.19 112.311 103.125 110.919 103.125ZM117.555 99.4062C117.555 98.0739 118.38 97.3182 119.504 97.3182C120.592 97.3182 121.254 98.0291 121.254 99.2273V104H122.427V99.1477C122.427 97.1989 121.388 96.2642 119.842 96.2642C118.688 96.2642 117.972 96.7812 117.614 97.5568H117.515V96.3636H116.381V104H117.555V99.4062ZM127.454 104.159C128.926 104.159 129.423 103.244 129.682 102.827H129.821V104H130.954V93.8182H129.781V97.5767H129.682C129.423 97.179 128.966 96.2642 127.474 96.2642C125.545 96.2642 124.213 97.7955 124.213 100.202C124.213 102.628 125.545 104.159 127.454 104.159ZM127.614 103.105C126.142 103.105 125.386 101.812 125.386 100.182C125.386 98.571 126.122 97.3182 127.614 97.3182C129.045 97.3182 129.801 98.4716 129.801 100.182C129.801 101.912 129.025 103.105 127.614 103.105ZM135.513 104.179C136.846 104.179 137.542 103.463 137.78 102.966H137.84V104H139.013V98.9688C139.013 96.5426 137.164 96.2642 136.19 96.2642C135.036 96.2642 133.724 96.6619 133.127 98.054L134.241 98.4517C134.499 97.8949 135.111 97.2983 136.229 97.2983C137.308 97.2983 137.84 97.87 137.84 98.8494V98.8892C137.84 99.456 137.263 99.4062 135.871 99.5852C134.454 99.7692 132.908 100.082 132.908 101.832C132.908 103.324 134.062 104.179 135.513 104.179ZM135.692 103.125C134.758 103.125 134.082 102.707 134.082 101.892C134.082 100.997 134.897 100.719 135.812 100.599C136.309 100.54 137.641 100.401 137.84 100.162V101.236C137.84 102.19 137.084 103.125 135.692 103.125ZM142.01 104.08C142.502 104.08 142.905 103.677 142.905 103.185C142.905 102.692 142.502 102.29 142.01 102.29C141.518 102.29 141.115 102.692 141.115 103.185C141.115 103.677 141.518 104.08 142.01 104.08ZM153.005 93.8182V101.097C153.005 102.364 152.398 103.045 151.334 103.045C150.365 103.045 149.664 102.479 149.664 101.614H148.451C148.451 103.18 149.664 104.139 151.334 104.139C153.104 104.139 154.238 103.05 154.238 101.097V93.8182H153.005ZM158.797 104.179C160.129 104.179 160.825 103.463 161.064 102.966H161.123V104H162.297V98.9688C162.297 96.5426 160.447 96.2642 159.473 96.2642C158.319 96.2642 157.007 96.6619 156.41 98.054L157.524 98.4517C157.782 97.8949 158.394 97.2983 159.513 97.2983C160.591 97.2983 161.123 97.87 161.123 98.8494V98.8892C161.123 99.456 160.547 99.4062 159.155 99.5852C157.738 99.7692 156.191 100.082 156.191 101.832C156.191 103.324 157.345 104.179 158.797 104.179ZM158.976 103.125C158.041 103.125 157.365 102.707 157.365 101.892C157.365 100.997 158.18 100.719 159.095 100.599C159.592 100.54 160.924 100.401 161.123 100.162V101.236C161.123 102.19 160.368 103.125 158.976 103.125ZM164.438 104H165.611V99.2273C165.611 98.1087 166.427 97.3182 167.342 97.3182C168.231 97.3182 168.853 97.8999 168.853 98.7699V104H170.046V99.0284C170.046 98.044 170.663 97.3182 171.736 97.3182C172.572 97.3182 173.288 97.7607 173.288 98.8892V104H174.461V98.8892C174.461 97.0945 173.496 96.2642 172.134 96.2642C171.04 96.2642 170.24 96.7663 169.847 97.5568H169.768C169.39 96.7415 168.724 96.2642 167.719 96.2642C166.725 96.2642 165.989 96.7415 165.671 97.5568H165.572V96.3636H164.438V104ZM180.703 104H181.836V102.827H181.975C182.234 103.244 182.731 104.159 184.203 104.159C186.112 104.159 187.444 102.628 187.444 100.202C187.444 97.7955 186.112 96.2642 184.183 96.2642C182.691 96.2642 182.234 97.179 181.975 97.5767H181.876V93.8182H180.703V104ZM181.856 100.182C181.856 98.4716 182.612 97.3182 184.044 97.3182C185.535 97.3182 186.271 98.571 186.271 100.182C186.271 101.812 185.515 103.105 184.044 103.105C182.632 103.105 181.856 101.912 181.856 100.182ZM192.441 104.159C193.992 104.159 195.125 103.384 195.483 102.23L194.35 101.912C194.051 102.707 193.36 103.105 192.441 103.105C191.063 103.105 190.114 102.215 190.059 100.58H195.603V100.082C195.603 97.2386 193.912 96.2642 192.321 96.2642C190.253 96.2642 188.881 97.8949 188.881 100.241C188.881 102.588 190.233 104.159 192.441 104.159ZM190.059 99.5653C190.139 98.3771 190.979 97.3182 192.321 97.3182C193.594 97.3182 194.409 98.2727 194.409 99.5653H190.059ZM197.387 104H198.561V99.1676C198.561 98.1335 199.376 97.3778 200.49 97.3778C200.803 97.3778 201.126 97.4375 201.206 97.4574V96.2642C201.071 96.2543 200.763 96.2443 200.589 96.2443C199.674 96.2443 198.879 96.7614 198.6 97.517H198.521V96.3636H197.387V104ZM204.843 104.179C206.176 104.179 206.872 103.463 207.111 102.966H207.17V104H208.343V98.9688C208.343 96.5426 206.494 96.2642 205.52 96.2642C204.366 96.2642 203.054 96.6619 202.457 98.054L203.571 98.4517C203.829 97.8949 204.441 97.2983 205.559 97.2983C206.638 97.2983 207.17 97.87 207.17 98.8494V98.8892C207.17 99.456 206.593 99.4062 205.201 99.5852C203.785 99.7692 202.238 100.082 202.238 101.832C202.238 103.324 203.392 104.179 204.843 104.179ZM205.022 103.125C204.088 103.125 203.412 102.707 203.412 101.892C203.412 100.997 204.227 100.719 205.142 100.599C205.639 100.54 206.971 100.401 207.17 100.162V101.236C207.17 102.19 206.415 103.125 205.022 103.125ZM210.485 106.864H211.658V102.827H211.758C212.016 103.244 212.513 104.159 213.985 104.159C215.894 104.159 217.226 102.628 217.226 100.202C217.226 97.7955 215.894 96.2642 213.965 96.2642C212.474 96.2642 212.016 97.179 211.758 97.5767H211.619V96.3636H210.485V106.864ZM211.638 100.182C211.638 98.4716 212.394 97.3182 213.826 97.3182C215.317 97.3182 216.053 98.571 216.053 100.182C216.053 101.812 215.297 103.105 213.826 103.105C212.414 103.105 211.638 101.912 211.638 100.182ZM221.263 104.179C222.596 104.179 223.292 103.463 223.53 102.966H223.59V104H224.763V98.9688C224.763 96.5426 222.914 96.2642 221.94 96.2642C220.786 96.2642 219.474 96.6619 218.877 98.054L219.991 98.4517C220.249 97.8949 220.861 97.2983 221.979 97.2983C223.058 97.2983 223.59 97.87 223.59 98.8494V98.8892C223.59 99.456 223.013 99.4062 221.621 99.5852C220.204 99.7692 218.658 100.082 218.658 101.832C218.658 103.324 219.812 104.179 221.263 104.179ZM221.442 103.125C220.508 103.125 219.832 102.707 219.832 101.892C219.832 100.997 220.647 100.719 221.562 100.599C222.059 100.54 223.391 100.401 223.59 100.162V101.236C223.59 102.19 222.834 103.125 221.442 103.125ZM233.09 104.179C234.422 104.179 235.118 103.463 235.357 102.966H235.416V104H236.59V98.9688C236.59 96.5426 234.74 96.2642 233.766 96.2642C232.612 96.2642 231.3 96.6619 230.703 98.054L231.817 98.4517C232.075 97.8949 232.687 97.2983 233.805 97.2983C234.884 97.2983 235.416 97.87 235.416 98.8494V98.8892C235.416 99.456 234.84 99.4062 233.448 99.5852C232.031 99.7692 230.484 100.082 230.484 101.832C230.484 103.324 231.638 104.179 233.09 104.179ZM233.269 103.125C232.334 103.125 231.658 102.707 231.658 101.892C231.658 100.997 232.473 100.719 233.388 100.599C233.885 100.54 235.217 100.401 235.416 100.162V101.236C235.416 102.19 234.661 103.125 233.269 103.125ZM239.904 99.4062C239.904 98.0739 240.73 97.3182 241.853 97.3182C242.942 97.3182 243.603 98.0291 243.603 99.2273V104H244.777V99.1477C244.777 97.1989 243.737 96.2642 242.191 96.2642C241.038 96.2642 240.322 96.7812 239.964 97.5568H239.865V96.3636H238.731V104H239.904V99.4062ZM249.804 104.159C251.276 104.159 251.773 103.244 252.031 102.827H252.171V104H253.304V93.8182H252.131V97.5767H252.031C251.773 97.179 251.315 96.2642 249.824 96.2642C247.895 96.2642 246.563 97.7955 246.563 100.202C246.563 102.628 247.895 104.159 249.804 104.159ZM249.963 103.105C248.492 103.105 247.736 101.812 247.736 100.182C247.736 98.571 248.472 97.3182 249.963 97.3182C251.395 97.3182 252.151 98.4716 252.151 100.182C252.151 101.912 251.375 103.105 249.963 103.105ZM257.863 104.179C259.195 104.179 259.891 103.463 260.13 102.966H260.19V104H261.363V98.9688C261.363 96.5426 259.514 96.2642 258.539 96.2642C257.386 96.2642 256.073 96.6619 255.477 98.054L256.59 98.4517C256.849 97.8949 257.46 97.2983 258.579 97.2983C259.658 97.2983 260.19 97.87 260.19 98.8494V98.8892C260.19 99.456 259.613 99.4062 258.221 99.5852C256.804 99.7692 255.258 100.082 255.258 101.832C255.258 103.324 256.411 104.179 257.863 104.179ZM258.042 103.125C257.107 103.125 256.431 102.707 256.431 101.892C256.431 100.997 257.247 100.719 258.161 100.599C258.658 100.54 259.991 100.401 260.19 100.162V101.236C260.19 102.19 259.434 103.125 258.042 103.125ZM81.3336 124H82.5069V116.364H81.3336V124ZM81.9302 115.091C82.3876 115.091 82.7654 114.733 82.7654 114.295C82.7654 113.858 82.3876 113.5 81.9302 113.5C81.4728 113.5 81.095 113.858 81.095 114.295C81.095 114.733 81.4728 115.091 81.9302 115.091ZM85.8292 119.406C85.8292 118.074 86.6545 117.318 87.7781 117.318C88.8668 117.318 89.5281 118.029 89.5281 119.227V124H90.7013V119.148C90.7013 117.199 89.6623 116.264 88.1161 116.264C86.9627 116.264 86.2468 116.781 85.8888 117.557H85.7894V116.364H84.6559V124H85.8292V119.406ZM95.9277 127.023C97.7573 127.023 99.2289 126.188 99.2289 124.219V116.364H98.0953V117.577H97.976C97.7175 117.179 97.2402 116.264 95.7488 116.264C93.8198 116.264 92.4874 117.795 92.4874 120.142C92.4874 122.528 93.8794 123.881 95.7289 123.881C97.2203 123.881 97.6976 123.006 97.9561 122.588H98.0556V124.139C98.0556 125.412 97.1607 125.989 95.9277 125.989C94.5407 125.989 94.0534 125.258 93.7402 124.835L92.8056 125.491C93.2828 126.292 94.2225 127.023 95.9277 127.023ZM95.888 122.827C94.4164 122.827 93.6607 121.713 93.6607 120.122C93.6607 118.571 94.3965 117.318 95.888 117.318C97.3198 117.318 98.0755 118.472 98.0755 120.122C98.0755 121.812 97.2999 122.827 95.888 122.827ZM101.377 124H102.55V116.364H101.377V124ZM101.973 115.091C102.431 115.091 102.808 114.733 102.808 114.295C102.808 113.858 102.431 113.5 101.973 113.5C101.516 113.5 101.138 113.858 101.138 114.295C101.138 114.733 101.516 115.091 101.973 115.091ZM105.872 119.406C105.872 118.074 106.697 117.318 107.821 117.318C108.91 117.318 109.571 118.029 109.571 119.227V124H110.744V119.148C110.744 117.199 109.705 116.264 108.159 116.264C107.006 116.264 106.29 116.781 105.932 117.557H105.832V116.364H104.699V124H105.872V119.406ZM119.709 124.159C121.181 124.159 121.678 123.244 121.937 122.827H122.076V124H123.209V113.818H122.036V117.577H121.937C121.678 117.179 121.221 116.264 119.729 116.264C117.8 116.264 116.468 117.795 116.468 120.202C116.468 122.628 117.8 124.159 119.709 124.159ZM119.868 123.105C118.397 123.105 117.641 121.812 117.641 120.182C117.641 118.571 118.377 117.318 119.868 117.318C121.3 117.318 122.056 118.472 122.056 120.182C122.056 121.912 121.28 123.105 119.868 123.105ZM125.521 124H126.694V116.364H125.521V124ZM126.118 115.091C126.575 115.091 126.953 114.733 126.953 114.295C126.953 113.858 126.575 113.5 126.118 113.5C125.66 113.5 125.282 113.858 125.282 114.295C125.282 114.733 125.66 115.091 126.118 115.091ZM128.843 124H130.017V116.364H128.843V124ZM129.44 115.091C129.897 115.091 130.275 114.733 130.275 114.295C130.275 113.858 129.897 113.5 129.44 113.5C128.983 113.5 128.605 113.858 128.605 114.295C128.605 114.733 128.983 115.091 129.44 115.091ZM133.339 119.406C133.339 118.074 134.164 117.318 135.288 117.318C136.377 117.318 137.038 118.029 137.038 119.227V124H138.211V119.148C138.211 117.199 137.172 116.264 135.626 116.264C134.472 116.264 133.757 116.781 133.399 117.557H133.299V116.364H132.166V124H133.339V119.406ZM143.438 127.023C145.267 127.023 146.739 126.188 146.739 124.219V116.364H145.605V117.577H145.486C145.227 117.179 144.75 116.264 143.259 116.264C141.33 116.264 139.997 117.795 139.997 120.142C139.997 122.528 141.389 123.881 143.239 123.881C144.73 123.881 145.207 123.006 145.466 122.588H145.565V124.139C145.565 125.412 144.67 125.989 143.438 125.989C142.05 125.989 141.563 125.258 141.25 124.835L140.315 125.491C140.793 126.292 141.732 127.023 143.438 127.023ZM143.398 122.827C141.926 122.827 141.17 121.713 141.17 120.122C141.17 118.571 141.906 117.318 143.398 117.318C144.83 117.318 145.585 118.472 145.585 120.122C145.585 121.812 144.81 122.827 143.398 122.827ZM151.134 124.179C152.466 124.179 153.162 123.463 153.401 122.966H153.46V124H154.634V118.969C154.634 116.543 152.784 116.264 151.81 116.264C150.656 116.264 149.344 116.662 148.747 118.054L149.861 118.452C150.119 117.895 150.731 117.298 151.849 117.298C152.928 117.298 153.46 117.87 153.46 118.849V118.889C153.46 119.456 152.884 119.406 151.491 119.585C150.075 119.769 148.528 120.082 148.528 121.832C148.528 123.324 149.682 124.179 151.134 124.179ZM151.312 123.125C150.378 123.125 149.702 122.707 149.702 121.892C149.702 120.997 150.517 120.719 151.432 120.599C151.929 120.54 153.261 120.401 153.46 120.162V121.236C153.46 122.19 152.705 123.125 151.312 123.125ZM160.096 116.364H158.465V114.534H157.292V116.364H156.139V117.358H157.292V122.131C157.292 123.463 158.366 124.099 159.36 124.099C159.798 124.099 160.076 124.02 160.235 123.96L159.997 122.906C159.897 122.926 159.738 122.966 159.48 122.966C158.963 122.966 158.465 122.807 158.465 121.812V117.358H160.096V116.364ZM162.025 124H163.198V121.141L164.019 120.381L166.877 124H168.369L164.904 119.625L168.13 116.364H166.678L163.338 119.764H163.198V113.818H162.025V124ZM171.887 124.179C173.22 124.179 173.916 123.463 174.154 122.966H174.214V124H175.387V118.969C175.387 116.543 173.538 116.264 172.564 116.264C171.41 116.264 170.098 116.662 169.501 118.054L170.615 118.452C170.873 117.895 171.485 117.298 172.603 117.298C173.682 117.298 174.214 117.87 174.214 118.849V118.889C174.214 119.456 173.637 119.406 172.245 119.585C170.828 119.769 169.282 120.082 169.282 121.832C169.282 123.324 170.436 124.179 171.887 124.179ZM172.066 123.125C171.132 123.125 170.456 122.707 170.456 121.892C170.456 120.997 171.271 120.719 172.186 120.599C172.683 120.54 174.015 120.401 174.214 120.162V121.236C174.214 122.19 173.458 123.125 172.066 123.125ZM178.702 119.406C178.702 118.074 179.528 117.318 180.651 117.318C181.74 117.318 182.401 118.029 182.401 119.227V124H183.574V119.148C183.574 117.199 182.535 116.264 180.989 116.264C179.836 116.264 179.12 116.781 178.762 117.557H178.662V116.364H177.529V124H178.702V119.406ZM187.25 121.136H188.443V121.077C188.463 119.844 188.781 119.307 189.656 118.76C190.531 118.228 191.048 117.462 191.048 116.364C191.048 114.812 189.914 113.679 188.164 113.679C186.554 113.679 185.276 114.673 185.201 116.364H186.454C186.529 115.19 187.349 114.713 188.164 114.713C189.099 114.713 189.855 115.33 189.855 116.304C189.855 117.094 189.402 117.661 188.821 118.014C187.846 118.606 187.265 119.183 187.25 121.077V121.136ZM187.886 124.08C188.378 124.08 188.781 123.677 188.781 123.185C188.781 122.692 188.378 122.29 187.886 122.29C187.394 122.29 186.991 122.692 186.991 123.185C186.991 123.677 187.394 124.08 187.886 124.08Z" fill="#777777"/>
<path d="M66.1097 15.4929H70.2362C70.1765 11.8636 67.1935 9.35795 62.6594 9.35795C58.195 9.35795 54.9237 11.8239 54.9435 15.5227C54.9336 18.5256 57.0515 20.2457 60.4918 21.071L62.7092 21.6278C64.9265 22.1648 66.1594 22.8011 66.1694 24.1733C66.1594 25.6648 64.7475 26.679 62.56 26.679C60.3228 26.679 58.712 25.6449 58.5728 23.6065H54.4066C54.516 28.0114 57.668 30.2884 62.6097 30.2884C67.5813 30.2884 70.5046 27.9119 70.5146 24.1832C70.5046 20.7926 67.9492 18.9929 64.4094 18.1974L62.5799 17.7599C60.81 17.3523 59.3285 16.696 59.3583 15.2344C59.3583 13.9219 60.5217 12.9574 62.6296 12.9574C64.6879 12.9574 65.9506 13.892 66.1097 15.4929ZM77.6861 30.2884C79.9432 30.2884 81.4048 29.304 82.1506 27.8821H82.2699V30H86.2869V19.6989C86.2869 16.0597 83.2045 14.5284 79.804 14.5284C76.1449 14.5284 73.7386 16.2784 73.152 19.0625L77.0696 19.3807C77.358 18.3665 78.2628 17.6207 79.7841 17.6207C81.2259 17.6207 82.0511 18.3466 82.0511 19.5994V19.6591C82.0511 20.6435 81.0071 20.7727 78.3523 21.0312C75.3295 21.3097 72.6151 22.3239 72.6151 25.7344C72.6151 28.7571 74.7727 30.2884 77.6861 30.2884ZM78.8991 27.3651C77.5966 27.3651 76.6619 26.7585 76.6619 25.5952C76.6619 24.402 77.6463 23.8153 79.1378 23.6065C80.0625 23.4773 81.5739 23.2585 82.081 22.9205V24.5412C82.081 26.142 80.7585 27.3651 78.8991 27.3651ZM97.6967 14.7273H94.8232V11.0682H90.5874V14.7273H88.4993V17.9091H90.5874V25.8636C90.5675 28.8565 92.6058 30.3381 95.6783 30.2088C96.772 30.169 97.5476 29.9503 97.9751 29.8111L97.3089 26.6591C97.1001 26.6989 96.6527 26.7983 96.255 26.7983C95.4098 26.7983 94.8232 26.4801 94.8232 25.3068V17.9091H97.6967V14.7273ZM110.25 23.4972C110.26 25.5455 108.858 26.6193 107.337 26.6193C105.736 26.6193 104.702 25.4957 104.692 23.696V14.7273H100.456V24.4517C100.466 28.0213 102.554 30.1989 105.626 30.1989C107.923 30.1989 109.574 29.0156 110.26 27.2259H110.419V30H114.486V14.7273H110.25V23.4972ZM128.59 21.1705C128.6 19.2017 129.803 18.0483 131.533 18.0483C133.254 18.0483 134.268 19.152 134.258 21.0312V30H138.494V20.2756C138.504 16.696 136.396 14.5284 133.214 14.5284C130.897 14.5284 129.346 15.6222 128.65 17.4219H128.471V9.63636H124.354V30H128.59V21.1705ZM146.182 30.2884C148.439 30.2884 149.901 29.304 150.647 27.8821H150.766V30H154.783V19.6989C154.783 16.0597 151.701 14.5284 148.3 14.5284C144.641 14.5284 142.235 16.2784 141.648 19.0625L145.566 19.3807C145.854 18.3665 146.759 17.6207 148.28 17.6207C149.722 17.6207 150.547 18.3466 150.547 19.5994V19.6591C150.547 20.6435 149.503 20.7727 146.848 21.0312C143.826 21.3097 141.111 22.3239 141.111 25.7344C141.111 28.7571 143.269 30.2884 146.182 30.2884ZM147.395 27.3651C146.093 27.3651 145.158 26.7585 145.158 25.5952C145.158 24.402 146.142 23.8153 147.634 23.6065C148.559 23.4773 150.07 23.2585 150.577 22.9205V24.5412C150.577 26.142 149.255 27.3651 147.395 27.3651ZM162.305 9.63636H158.069V30H162.305V9.63636ZM176.414 9.63636H172.179V30H176.414V9.63636ZM184.163 30.2884C186.42 30.2884 187.881 29.304 188.627 27.8821H188.746V30H192.763V19.6989C192.763 16.0597 189.681 14.5284 186.281 14.5284C182.621 14.5284 180.215 16.2784 179.629 19.0625L183.546 19.3807C183.835 18.3665 184.739 17.6207 186.261 17.6207C187.702 17.6207 188.528 18.3466 188.528 19.5994V19.6591C188.528 20.6435 187.484 20.7727 184.829 21.0312C181.806 21.3097 179.092 22.3239 179.092 25.7344C179.092 28.7571 181.249 30.2884 184.163 30.2884ZM185.376 27.3651C184.073 27.3651 183.138 26.7585 183.138 25.5952C183.138 24.402 184.123 23.8153 185.614 23.6065C186.539 23.4773 188.05 23.2585 188.558 22.9205V24.5412C188.558 26.142 187.235 27.3651 185.376 27.3651ZM202.93 35.946C207.295 35.946 210.398 33.9574 210.398 30.1491V14.7273H206.192V17.2926H206.033C205.466 16.0497 204.223 14.5284 201.668 14.5284C198.317 14.5284 195.483 17.1335 195.483 22.3338C195.483 27.4148 198.237 29.7812 201.678 29.7812C204.114 29.7812 205.476 28.5582 206.033 27.2955H206.212V30.0895C206.212 32.0881 204.869 32.9034 203.03 32.9034C201.161 32.9034 200.216 32.0881 199.868 31.2628L195.95 31.7898C196.457 34.0966 198.814 35.946 202.93 35.946ZM203.02 26.5994C200.942 26.5994 199.808 24.9489 199.808 22.3139C199.808 19.7188 200.922 17.8991 203.02 17.8991C205.078 17.8991 206.232 19.6392 206.232 22.3139C206.232 25.0085 205.058 26.5994 203.02 26.5994ZM213.768 30H218.004V14.7273H213.768V30ZM215.896 12.7585C217.159 12.7585 218.193 11.794 218.193 10.6108C218.193 9.4375 217.159 8.47301 215.896 8.47301C214.643 8.47301 213.609 9.4375 213.609 10.6108C213.609 11.794 214.643 12.7585 215.896 12.7585Z" fill="#373737"/>
<path d="M119.962 208.364H117.957L115.065 210.222V212.153L117.786 210.415H117.854V220H119.962V208.364ZM122.917 220H130.894V218.239H125.826V218.159L127.832 216.119C130.093 213.949 130.718 212.892 130.718 211.58C130.718 209.631 129.133 208.205 126.792 208.205C124.485 208.205 122.849 209.636 122.849 211.847H124.854C124.854 210.659 125.604 209.915 126.763 209.915C127.871 209.915 128.695 210.591 128.695 211.688C128.695 212.659 128.104 213.352 126.957 214.517L122.917 218.477V220ZM134.144 218.602C134.815 218.602 135.388 218.045 135.394 217.352C135.388 216.67 134.815 216.114 134.144 216.114C133.451 216.114 132.888 216.67 132.894 217.352C132.888 218.045 133.451 218.602 134.144 218.602ZM134.144 212.83C134.815 212.83 135.388 212.273 135.394 211.58C135.388 210.898 134.815 210.341 134.144 210.341C133.451 210.341 132.888 210.898 132.894 211.58C132.888 212.273 133.451 212.83 134.144 212.83ZM141.796 220.222C144.603 220.227 146.279 218.011 146.279 214.193C146.279 210.398 144.592 208.205 141.796 208.205C139.001 208.205 137.319 210.392 137.313 214.193C137.313 218.006 138.989 220.222 141.796 220.222ZM141.796 218.443C140.347 218.443 139.438 216.989 139.444 214.193C139.45 211.42 140.353 209.96 141.796 209.96C143.245 209.96 144.148 211.42 144.154 214.193C144.154 216.989 143.251 218.443 141.796 218.443ZM152.468 220.222C155.275 220.227 156.951 218.011 156.951 214.193C156.951 210.398 155.263 208.205 152.468 208.205C149.673 208.205 147.991 210.392 147.985 214.193C147.985 218.006 149.661 220.222 152.468 220.222ZM152.468 218.443C151.019 218.443 150.11 216.989 150.116 214.193C150.121 211.42 151.025 209.96 152.468 209.96C153.917 209.96 154.82 211.42 154.826 214.193C154.826 216.989 153.923 218.443 152.468 218.443Z" fill="#373737"/>
<path d="M122.002 253.818H120.506L117.966 255.479V256.95L120.402 255.359H120.461V264H122.002V253.818ZM128.301 264.139C130.38 264.139 131.906 262.896 131.901 261.206C131.906 259.918 131.125 258.994 129.773 258.785V258.705C130.837 258.432 131.528 257.597 131.523 256.453C131.528 254.957 130.3 253.679 128.341 253.679C126.472 253.679 124.971 254.808 124.921 256.463H126.407C126.442 255.528 127.322 254.962 128.321 254.962C129.36 254.962 130.042 255.593 130.037 256.533C130.042 257.517 129.251 258.163 128.123 258.163H127.262V259.416H128.123C129.534 259.416 130.35 260.132 130.35 261.156C130.35 262.146 129.49 262.817 128.292 262.817C127.188 262.817 126.328 262.25 126.268 261.345H124.707C124.772 263.006 126.243 264.139 128.301 264.139ZM134.779 257.636C135.321 257.636 135.774 257.194 135.774 256.642C135.774 256.1 135.321 255.653 134.779 255.653C134.233 255.653 133.785 256.1 133.785 256.642C133.785 257.194 134.233 257.636 134.779 257.636ZM134.779 262.737C135.321 262.737 135.774 262.295 135.774 261.743C135.774 261.201 135.321 260.754 134.779 260.754C134.233 260.754 133.785 261.201 133.785 261.743C133.785 262.295 134.233 262.737 134.779 262.737ZM141.29 264.169C143.641 264.169 145.018 262.25 145.018 258.914C145.018 255.603 143.621 253.679 141.29 253.679C138.953 253.679 137.561 255.598 137.556 258.914C137.556 262.245 138.933 264.164 141.29 264.169ZM141.29 262.842C139.913 262.842 139.082 261.46 139.082 258.914C139.087 256.379 139.918 254.982 141.29 254.982C142.657 254.982 143.492 256.379 143.492 258.914C143.492 261.46 142.662 262.842 141.29 262.842ZM150.327 264.169C152.678 264.169 154.056 262.25 154.056 258.914C154.056 255.603 152.659 253.679 150.327 253.679C147.99 253.679 146.598 255.598 146.593 258.914C146.593 262.245 147.97 264.164 150.327 264.169ZM150.327 262.842C148.95 262.842 148.119 261.46 148.119 258.914C148.124 256.379 148.955 254.982 150.327 254.982C151.694 254.982 152.529 256.379 152.529 258.914C152.529 261.46 151.699 262.842 150.327 262.842Z" fill="#AAAAAA"/>
<path d="M123.206 163.818H121.709L119.169 165.479V166.95L121.605 165.359H121.664V174H123.206V163.818ZM129.823 163.818H128.326L125.786 165.479V166.95L128.222 165.359H128.282V174H129.823V163.818ZM133.576 167.636C134.118 167.636 134.571 167.194 134.571 166.642C134.571 166.1 134.118 165.653 133.576 165.653C133.029 165.653 132.582 166.1 132.582 166.642C132.582 167.194 133.029 167.636 133.576 167.636ZM133.576 172.737C134.118 172.737 134.571 172.295 134.571 171.743C134.571 171.201 134.118 170.754 133.576 170.754C133.029 170.754 132.582 171.201 132.582 171.743C132.582 172.295 133.029 172.737 133.576 172.737ZM140.087 174.169C142.438 174.169 143.815 172.25 143.815 168.914C143.815 165.603 142.418 163.679 140.087 163.679C137.75 163.679 136.358 165.598 136.353 168.914C136.353 172.245 137.73 174.164 140.087 174.169ZM140.087 172.842C138.71 172.842 137.879 171.46 137.879 168.914C137.884 166.379 138.714 164.982 140.087 164.982C141.454 164.982 142.289 166.379 142.289 168.914C142.289 171.46 141.459 172.842 140.087 172.842ZM149.124 174.169C151.475 174.169 152.852 172.25 152.852 168.914C152.852 165.603 151.455 163.679 149.124 163.679C146.787 163.679 145.395 165.598 145.39 168.914C145.39 172.245 146.767 174.164 149.124 174.169ZM149.124 172.842C147.747 172.842 146.916 171.46 146.916 168.914C146.921 166.379 147.752 164.982 149.124 164.982C150.491 164.982 151.326 166.379 151.326 168.914C151.326 171.46 150.496 172.842 149.124 172.842Z" fill="#AAAAAA"/>
<path d="M106 191H166" stroke="#373737" stroke-width="2"/>
<path d="M106 237H166" stroke="#373737" stroke-width="2"/>
</svg>
