<svg width="24" height="24" viewBox="0 0 24 24" fill="none" xmlns="http://www.w3.org/2000/svg">
<path d="M12 7.87964C9.728 7.87964 7.87964 9.728 7.87964 12C7.87964 14.272 9.728 16.1203 12 16.1203C14.272 16.1203 16.1204 14.272 16.1204 12C16.1204 9.728 14.272 7.87964 12 7.87964ZM12 11.4141C12.8582 11.4141 13.5564 12.1123 13.5564 12.9705C13.5564 13.6215 13.1545 14.1801 12.5859 14.4121V14.6363C12.5859 14.9599 12.3236 15.2223 12 15.2223C11.6764 15.2223 11.4141 14.9599 11.4141 14.6363V14.5269H11.0295C10.7059 14.5269 10.4435 14.2646 10.4435 13.941C10.4435 13.6174 10.7059 13.3551 11.0295 13.3551H12C12.2121 13.3551 12.3846 13.1826 12.3846 12.9705C12.3846 12.7584 12.2121 12.5859 12 12.5859C11.1418 12.5859 10.4435 11.8877 10.4435 11.0295C10.4435 10.3785 10.8455 9.81987 11.4141 9.58792V9.36366C11.4141 9.04007 11.6764 8.77772 12 8.77772C12.3236 8.77772 12.5859 9.04007 12.5859 9.36366V9.47304H12.9705C13.2941 9.47304 13.5564 9.73538 13.5564 10.059C13.5564 10.3826 13.2941 10.6449 12.9705 10.6449H12C11.7879 10.6449 11.6154 10.8174 11.6154 11.0295C11.6154 11.2416 11.7879 11.4141 12 11.4141Z" fill="#CCCCCC"/>
<path d="M21.4141 9.87109H20.1259C19.9325 9.12949 19.6394 8.4225 19.2507 7.76L20.1621 6.84859C20.3909 6.6198 20.3909 6.24879 20.1621 6.01996L17.98 3.83789C17.7512 3.6091 17.3802 3.6091 17.1514 3.83789L16.24 4.7493C15.5775 4.36059 14.8705 4.0675 14.1289 3.8741V2.58594C14.1289 2.26234 13.8666 2 13.543 2H10.457C10.1334 2 9.87109 2.26234 9.87109 2.58594V3.8741C9.12945 4.0675 8.42246 4.36059 7.76 4.7493L6.84859 3.83789C6.6198 3.6091 6.24879 3.6091 6.01996 3.83789L3.83789 6.01996C3.60906 6.24875 3.60906 6.61977 3.83789 6.84859L4.7493 7.76C4.36059 8.4225 4.06746 9.12949 3.8741 9.87109H2.58594C2.26234 9.87109 2 10.1334 2 10.457V13.543C2 13.8666 2.26234 14.1289 2.58594 14.1289H3.8741C4.06746 14.8705 4.36059 15.5775 4.7493 16.24L3.83789 17.1514C3.60906 17.3802 3.60906 17.7512 3.83789 17.98L6.01996 20.1621C6.24875 20.3909 6.61977 20.3909 6.84859 20.1621L7.76 19.2507C8.4225 19.6394 9.12949 19.9325 9.87109 20.1259V21.4141C9.87109 21.7377 10.1334 22 10.457 22H13.543C13.8666 22 14.1289 21.7377 14.1289 21.4141V20.1259C14.8705 19.9325 15.5775 19.6394 16.24 19.2507L17.1514 20.1621C17.3802 20.3909 17.7512 20.3909 17.98 20.1621L20.1621 17.98C20.3909 17.7512 20.3909 17.3802 20.1621 17.1514L19.2507 16.24C19.6394 15.5775 19.9325 14.8705 20.1259 14.1289H21.4141C21.7377 14.1289 22 13.8666 22 13.543V10.457C22 10.1334 21.7377 9.87109 21.4141 9.87109ZM12 17.2922C9.08184 17.2922 6.70777 14.9182 6.70777 12C6.70777 9.08184 9.08184 6.70777 12 6.70777C14.9182 6.70777 17.2922 9.08184 17.2922 12C17.2922 14.9182 14.9182 17.2922 12 17.2922Z" fill="#CCCCCC"/>
</svg>
