<svg width="272" height="189" viewBox="0 0 272 189" fill="none" xmlns="http://www.w3.org/2000/svg">
<path d="M10.0715 164L11.0956 161.116H15.2121L16.2362 164H17.5289L13.7902 153.818H12.5175L8.77885 164H10.0715ZM11.4834 160.023L13.1141 155.429H13.1936L14.8243 160.023H11.4834ZM20.129 159.406C20.129 158.074 20.9543 157.318 22.0779 157.318C23.1666 157.318 23.8279 158.029 23.8279 159.227V164H25.0012V159.148C25.0012 157.199 23.9621 156.264 22.4159 156.264C21.2625 156.264 20.5466 156.781 20.1887 157.557H20.0892V156.364H18.9557V164H20.129V159.406ZM30.0287 164.159C31.5003 164.159 31.9974 163.244 32.2559 162.827H32.3952V164H33.5287V153.818H32.3554V157.577H32.2559C31.9974 157.179 31.54 156.264 30.0486 156.264C28.1196 156.264 26.7872 157.795 26.7872 160.202C26.7872 162.628 28.1196 164.159 30.0287 164.159ZM30.1878 163.105C28.7162 163.105 27.9605 161.812 27.9605 160.182C27.9605 158.571 28.6963 157.318 30.1878 157.318C31.6196 157.318 32.3753 158.472 32.3753 160.182C32.3753 161.912 31.5997 163.105 30.1878 163.105ZM38.0876 164.179C39.42 164.179 40.116 163.463 40.3547 162.966H40.4143V164H41.5876V158.969C41.5876 156.543 39.7382 156.264 38.7638 156.264C37.6104 156.264 36.2979 156.662 35.7013 158.054L36.8149 158.452C37.0734 157.895 37.6849 157.298 38.8035 157.298C39.8824 157.298 40.4143 157.87 40.4143 158.849V158.889C40.4143 159.456 39.8376 159.406 38.4456 159.585C37.0287 159.769 35.4825 160.082 35.4825 161.832C35.4825 163.324 36.6359 164.179 38.0876 164.179ZM38.2666 163.125C37.3319 163.125 36.6558 162.707 36.6558 161.892C36.6558 160.997 37.4711 160.719 38.3859 160.599C38.8831 160.54 40.2155 160.401 40.4143 160.162V161.236C40.4143 162.19 39.6586 163.125 38.2666 163.125ZM47.8257 164H48.9593V162.827H49.0985C49.357 163.244 49.8541 164.159 51.3257 164.159C53.2348 164.159 54.5672 162.628 54.5672 160.202C54.5672 157.795 53.2348 156.264 51.3058 156.264C49.8144 156.264 49.357 157.179 49.0985 157.577H48.999V153.818H47.8257V164ZM48.9791 160.182C48.9791 158.472 49.7348 157.318 51.1666 157.318C52.6581 157.318 53.3939 158.571 53.3939 160.182C53.3939 161.812 52.6382 163.105 51.1666 163.105C49.7547 163.105 48.9791 161.912 48.9791 160.182ZM59.5637 164.159C61.1148 164.159 62.2483 163.384 62.6063 162.23L61.4727 161.912C61.1744 162.707 60.4834 163.105 59.5637 163.105C58.1865 163.105 57.2369 162.215 57.1823 160.58H62.7256V160.082C62.7256 157.239 61.0352 156.264 59.4443 156.264C57.3762 156.264 56.004 157.895 56.004 160.241C56.004 162.588 57.3563 164.159 59.5637 164.159ZM57.1823 159.565C57.2618 158.377 58.102 157.318 59.4443 157.318C60.7171 157.318 61.5324 158.273 61.5324 159.565H57.1823ZM64.5104 164H65.6837V159.168C65.6837 158.134 66.499 157.378 67.6127 157.378C67.9259 157.378 68.249 157.438 68.3286 157.457V156.264C68.1943 156.254 67.8861 156.244 67.7121 156.244C66.7973 156.244 66.0019 156.761 65.7235 157.517H65.6439V156.364H64.5104V164ZM70.8927 159.406C70.8927 158.074 71.7428 157.318 72.9012 157.318C74.0049 157.318 74.6711 158.014 74.6711 159.227V164H75.8444V159.148C75.8444 157.184 74.8003 156.264 73.2393 156.264C72.0361 156.264 71.3501 156.766 70.9921 157.557H70.8927V153.818H69.7194V164H70.8927V159.406ZM80.238 164.179C81.5704 164.179 82.2664 163.463 82.5051 162.966H82.5647V164H83.738V158.969C83.738 156.543 81.8886 156.264 80.9142 156.264C79.7607 156.264 78.4482 156.662 77.8517 158.054L78.9653 158.452C79.2238 157.895 79.8353 157.298 80.9539 157.298C82.0328 157.298 82.5647 157.87 82.5647 158.849V158.889C82.5647 159.456 81.988 159.406 80.596 159.585C79.1791 159.769 77.6329 160.082 77.6329 161.832C77.6329 163.324 78.7863 164.179 80.238 164.179ZM80.417 163.125C79.4823 163.125 78.8062 162.707 78.8062 161.892C78.8062 160.997 79.6215 160.719 80.5363 160.599C81.0335 160.54 82.3659 160.401 82.5647 160.162V161.236C82.5647 162.19 81.809 163.125 80.417 163.125ZM91.2886 158.074C90.9207 156.99 90.0954 156.264 88.5841 156.264C86.9733 156.264 85.7801 157.179 85.7801 158.472C85.7801 159.526 86.4065 160.232 87.8085 160.56L89.0812 160.858C89.8518 161.037 90.2148 161.405 90.2148 161.932C90.2148 162.588 89.5187 163.125 88.425 163.125C87.4655 163.125 86.8639 162.712 86.6551 161.892L85.5415 162.17C85.8149 163.468 86.8838 164.159 88.4449 164.159C90.2197 164.159 91.4278 163.19 91.4278 161.872C91.4278 160.808 90.7616 160.137 89.3994 159.804L88.2659 159.526C87.3611 159.302 86.9534 158.999 86.9534 158.412C86.9534 157.756 87.6494 157.278 88.5841 157.278C89.6082 157.278 90.0308 157.845 90.2346 158.372L91.2886 158.074ZM93.194 164H94.3673V156.364H93.194V164ZM93.7906 155.091C94.248 155.091 94.6258 154.733 94.6258 154.295C94.6258 153.858 94.248 153.5 93.7906 153.5C93.3332 153.5 92.9553 153.858 92.9553 154.295C92.9553 154.733 93.3332 155.091 93.7906 155.091ZM97.6895 153.818H96.5162V164H97.6895V153.818ZM103.776 164H104.949V159.227C104.949 158.109 105.765 157.318 106.679 157.318C107.569 157.318 108.191 157.9 108.191 158.77V164H109.384V159.028C109.384 158.044 110 157.318 111.074 157.318C111.91 157.318 112.625 157.761 112.625 158.889V164H113.799V158.889C113.799 157.094 112.834 156.264 111.472 156.264C110.378 156.264 109.578 156.766 109.185 157.557H109.106C108.728 156.741 108.062 156.264 107.057 156.264C106.063 156.264 105.327 156.741 105.009 157.557H104.91V156.364H103.776V164ZM119.146 164.159C120.697 164.159 121.83 163.384 122.188 162.23L121.055 161.912C120.756 162.707 120.065 163.105 119.146 163.105C117.769 163.105 116.819 162.215 116.764 160.58H122.308V160.082C122.308 157.239 120.617 156.264 119.026 156.264C116.958 156.264 115.586 157.895 115.586 160.241C115.586 162.588 116.938 164.159 119.146 164.159ZM116.764 159.565C116.844 158.377 117.684 157.318 119.026 157.318C120.299 157.318 121.114 158.273 121.114 159.565H116.764ZM125.266 159.406C125.266 158.074 126.091 157.318 127.215 157.318C128.303 157.318 128.965 158.029 128.965 159.227V164H130.138V159.148C130.138 157.199 129.099 156.264 127.553 156.264C126.399 156.264 125.683 156.781 125.325 157.557H125.226V156.364H124.092V164H125.266V159.406ZM134.529 164.179C135.861 164.179 136.557 163.463 136.796 162.966H136.856V164H138.029V158.969C138.029 156.543 136.18 156.264 135.205 156.264C134.052 156.264 132.739 156.662 132.143 158.054L133.256 158.452C133.515 157.895 134.126 157.298 135.245 157.298C136.324 157.298 136.856 157.87 136.856 158.849V158.889C136.856 159.456 136.279 159.406 134.887 159.585C133.47 159.769 131.924 160.082 131.924 161.832C131.924 163.324 133.077 164.179 134.529 164.179ZM134.708 163.125C133.773 163.125 133.097 162.707 133.097 161.892C133.097 160.997 133.913 160.719 134.827 160.599C135.324 160.54 136.657 160.401 136.856 160.162V161.236C136.856 162.19 136.1 163.125 134.708 163.125ZM140.171 164H141.344V159.227C141.344 158.109 142.159 157.318 143.074 157.318C143.964 157.318 144.585 157.9 144.585 158.77V164H145.778V159.028C145.778 158.044 146.395 157.318 147.469 157.318C148.304 157.318 149.02 157.761 149.02 158.889V164H150.193V158.889C150.193 157.094 149.229 156.264 147.867 156.264C146.773 156.264 145.972 156.766 145.58 157.557H145.5C145.122 156.741 144.456 156.264 143.452 156.264C142.457 156.264 141.722 156.741 141.403 157.557H141.304V156.364H140.171V164ZM152.498 164H153.631V162.827H153.77C154.029 163.244 154.526 164.159 155.998 164.159C157.907 164.159 159.239 162.628 159.239 160.202C159.239 157.795 157.907 156.264 155.978 156.264C154.486 156.264 154.029 157.179 153.77 157.577H153.671V153.818H152.498V164ZM153.651 160.182C153.651 158.472 154.407 157.318 155.839 157.318C157.33 157.318 158.066 158.571 158.066 160.182C158.066 161.812 157.31 163.105 155.839 163.105C154.427 163.105 153.651 161.912 153.651 160.182ZM163.281 164.179C164.613 164.179 165.309 163.463 165.548 162.966H165.608V164H166.781V158.969C166.781 156.543 164.932 156.264 163.957 156.264C162.804 156.264 161.491 156.662 160.895 158.054L162.008 158.452C162.267 157.895 162.878 157.298 163.997 157.298C165.076 157.298 165.608 157.87 165.608 158.849V158.889C165.608 159.456 165.031 159.406 163.639 159.585C162.222 159.769 160.676 160.082 160.676 161.832C160.676 163.324 161.829 164.179 163.281 164.179ZM163.46 163.125C162.525 163.125 161.849 162.707 161.849 161.892C161.849 160.997 162.665 160.719 163.579 160.599C164.076 160.54 165.409 160.401 165.608 160.162V161.236C165.608 162.19 164.852 163.125 163.46 163.125ZM170.096 159.406C170.096 158.074 170.946 157.318 172.104 157.318C173.208 157.318 173.874 158.014 173.874 159.227V164H175.047V159.148C175.047 157.184 174.003 156.264 172.442 156.264C171.239 156.264 170.553 156.766 170.195 157.557H170.096V153.818H168.922V164H170.096V159.406ZM177.194 164H178.367V161.141L179.188 160.381L182.046 164H183.538L180.073 159.625L183.299 156.364H181.847L178.506 159.764H178.367V153.818H177.194V164ZM187.056 164.179C188.389 164.179 189.085 163.463 189.323 162.966H189.383V164H190.556V158.969C190.556 156.543 188.707 156.264 187.733 156.264C186.579 156.264 185.267 156.662 184.67 158.054L185.784 158.452C186.042 157.895 186.654 157.298 187.772 157.298C188.851 157.298 189.383 157.87 189.383 158.849V158.889C189.383 159.456 188.806 159.406 187.414 159.585C185.997 159.769 184.451 160.082 184.451 161.832C184.451 163.324 185.605 164.179 187.056 164.179ZM187.235 163.125C186.301 163.125 185.625 162.707 185.625 161.892C185.625 160.997 186.44 160.719 187.355 160.599C187.852 160.54 189.184 160.401 189.383 160.162V161.236C189.383 162.19 188.627 163.125 187.235 163.125ZM193.871 159.406C193.871 158.074 194.696 157.318 195.82 157.318C196.909 157.318 197.57 158.029 197.57 159.227V164H198.743V159.148C198.743 157.199 197.704 156.264 196.158 156.264C195.005 156.264 194.289 156.781 193.931 157.557H193.831V156.364H192.698V164H193.871V159.406ZM208.146 156.364H206.515V154.534H205.342V156.364H204.188V157.358H205.342V162.131C205.342 163.463 206.416 164.099 207.41 164.099C207.848 164.099 208.126 164.02 208.285 163.96L208.046 162.906C207.947 162.926 207.788 162.966 207.529 162.966C207.012 162.966 206.515 162.807 206.515 161.812V157.358H208.146V156.364ZM209.911 164H211.084V159.168C211.084 158.134 211.899 157.378 213.013 157.378C213.326 157.378 213.649 157.438 213.729 157.457V156.264C213.595 156.254 213.286 156.244 213.112 156.244C212.198 156.244 211.402 156.761 211.124 157.517H211.044V156.364H209.911V164ZM217.367 164.179C218.699 164.179 219.395 163.463 219.634 162.966H219.694V164H220.867V158.969C220.867 156.543 219.017 156.264 218.043 156.264C216.89 156.264 215.577 156.662 214.981 158.054L216.094 158.452C216.353 157.895 216.964 157.298 218.083 157.298C219.162 157.298 219.694 157.87 219.694 158.849V158.889C219.694 159.456 219.117 159.406 217.725 159.585C216.308 159.769 214.762 160.082 214.762 161.832C214.762 163.324 215.915 164.179 217.367 164.179ZM217.546 163.125C216.611 163.125 215.935 162.707 215.935 161.892C215.935 160.997 216.75 160.719 217.665 160.599C218.162 160.54 219.495 160.401 219.694 160.162V161.236C219.694 162.19 218.938 163.125 217.546 163.125ZM224.182 159.406C224.182 158.074 225.007 157.318 226.131 157.318C227.219 157.318 227.881 158.029 227.881 159.227V164H229.054V159.148C229.054 157.199 228.015 156.264 226.469 156.264C225.315 156.264 224.599 156.781 224.241 157.557H224.142V156.364H223.008V164H224.182V159.406ZM236.607 158.074C236.239 156.99 235.414 156.264 233.902 156.264C232.292 156.264 231.098 157.179 231.098 158.472C231.098 159.526 231.725 160.232 233.127 160.56L234.4 160.858C235.17 161.037 235.533 161.405 235.533 161.932C235.533 162.588 234.837 163.125 233.743 163.125C232.784 163.125 232.182 162.712 231.973 161.892L230.86 162.17C231.133 163.468 232.202 164.159 233.763 164.159C235.538 164.159 236.746 163.19 236.746 161.872C236.746 160.808 236.08 160.137 234.718 159.804L233.584 159.526C232.679 159.302 232.272 158.999 232.272 158.412C232.272 157.756 232.968 157.278 233.902 157.278C234.927 157.278 235.349 157.845 235.553 158.372L236.607 158.074ZM240.759 164.179C242.092 164.179 242.788 163.463 243.027 162.966H243.086V164H244.259V158.969C244.259 156.543 242.41 156.264 241.436 156.264C240.282 156.264 238.97 156.662 238.373 158.054L239.487 158.452C239.745 157.895 240.357 157.298 241.475 157.298C242.554 157.298 243.086 157.87 243.086 158.849V158.889C243.086 159.456 242.509 159.406 241.117 159.585C239.701 159.769 238.154 160.082 238.154 161.832C238.154 163.324 239.308 164.179 240.759 164.179ZM240.938 163.125C240.004 163.125 239.328 162.707 239.328 161.892C239.328 160.997 240.143 160.719 241.058 160.599C241.555 160.54 242.887 160.401 243.086 160.162V161.236C243.086 162.19 242.331 163.125 240.938 163.125ZM246.401 164H247.574V161.141L248.395 160.381L251.253 164H252.745L249.28 159.625L252.506 156.364H251.054L247.714 159.764H247.574V153.818H246.401V164ZM259.425 158.074C259.057 156.99 258.232 156.264 256.721 156.264C255.11 156.264 253.917 157.179 253.917 158.472C253.917 159.526 254.543 160.232 255.945 160.56L257.218 160.858C257.989 161.037 258.351 161.405 258.351 161.932C258.351 162.588 257.655 163.125 256.562 163.125C255.602 163.125 255.001 162.712 254.792 161.892L253.678 162.17C253.952 163.468 255.021 164.159 256.582 164.159C258.356 164.159 259.565 163.19 259.565 161.872C259.565 160.808 258.898 160.137 257.536 159.804L256.403 159.526C255.498 159.302 255.09 158.999 255.09 158.412C255.09 157.756 255.786 157.278 256.721 157.278C257.745 157.278 258.168 157.845 258.371 158.372L259.425 158.074ZM261.331 164H262.504V156.364H261.331V164ZM261.927 155.091C262.385 155.091 262.763 154.733 262.763 154.295C262.763 153.858 262.385 153.5 261.927 153.5C261.47 153.5 261.092 153.858 261.092 154.295C261.092 154.733 261.47 155.091 261.927 155.091ZM89.1471 186.864H90.3204V182.827H90.4198C90.6784 183.244 91.1755 184.159 92.6471 184.159C94.5562 184.159 95.8886 182.628 95.8886 180.202C95.8886 177.795 94.5562 176.264 92.6272 176.264C91.1357 176.264 90.6784 177.179 90.4198 177.577H90.2806V176.364H89.1471V186.864ZM90.3005 180.182C90.3005 178.472 91.0562 177.318 92.488 177.318C93.9795 177.318 94.7153 178.571 94.7153 180.182C94.7153 181.812 93.9596 183.105 92.488 183.105C91.0761 183.105 90.3005 181.912 90.3005 180.182ZM100.88 184.159C102.431 184.159 103.565 183.384 103.923 182.23L102.789 181.912C102.491 182.707 101.8 183.105 100.88 183.105C99.5029 183.105 98.5534 182.215 98.4987 180.58H104.042V180.082C104.042 177.239 102.352 176.264 100.761 176.264C98.6926 176.264 97.3204 177.895 97.3204 180.241C97.3204 182.588 98.6727 184.159 100.88 184.159ZM98.4987 179.565C98.5782 178.377 99.4184 177.318 100.761 177.318C102.033 177.318 102.849 178.273 102.849 179.565H98.4987ZM105.827 184H107V179.168C107 178.134 107.815 177.378 108.929 177.378C109.242 177.378 109.565 177.438 109.645 177.457V176.264C109.511 176.254 109.203 176.244 109.028 176.244C108.114 176.244 107.318 176.761 107.04 177.517H106.96V176.364H105.827V184ZM114.835 176.364H113.205V174.534H112.031V176.364H110.878V177.358H112.031V182.131C112.031 183.463 113.105 184.099 114.1 184.099C114.537 184.099 114.815 184.02 114.975 183.96L114.736 182.906C114.636 182.926 114.477 182.966 114.219 182.966C113.702 182.966 113.205 182.807 113.205 181.812V177.358H114.835V176.364ZM118.847 184.179C120.18 184.179 120.876 183.463 121.114 182.966H121.174V184H122.347V178.969C122.347 176.543 120.498 176.264 119.524 176.264C118.37 176.264 117.058 176.662 116.461 178.054L117.575 178.452C117.833 177.895 118.445 177.298 119.563 177.298C120.642 177.298 121.174 177.87 121.174 178.849V178.889C121.174 179.456 120.597 179.406 119.205 179.585C117.788 179.769 116.242 180.082 116.242 181.832C116.242 183.324 117.396 184.179 118.847 184.179ZM119.026 183.125C118.092 183.125 117.416 182.707 117.416 181.892C117.416 180.997 118.231 180.719 119.146 180.599C119.643 180.54 120.975 180.401 121.174 180.162V181.236C121.174 182.19 120.418 183.125 119.026 183.125ZM124.489 184H125.662V179.227C125.662 178.109 126.478 177.318 127.392 177.318C128.282 177.318 128.904 177.9 128.904 178.77V184H130.097V179.028C130.097 178.044 130.713 177.318 131.787 177.318C132.622 177.318 133.338 177.761 133.338 178.889V184H134.512V178.889C134.512 177.094 133.547 176.264 132.185 176.264C131.091 176.264 130.291 176.766 129.898 177.557H129.818C129.441 176.741 128.774 176.264 127.77 176.264C126.776 176.264 126.04 176.741 125.722 177.557H125.622V176.364H124.489V184ZM138.904 184.179C140.236 184.179 140.932 183.463 141.171 182.966H141.231V184H142.404V178.969C142.404 176.543 140.555 176.264 139.58 176.264C138.427 176.264 137.114 176.662 136.518 178.054L137.631 178.452C137.89 177.895 138.501 177.298 139.62 177.298C140.699 177.298 141.231 177.87 141.231 178.849V178.889C141.231 179.456 140.654 179.406 139.262 179.585C137.845 179.769 136.299 180.082 136.299 181.832C136.299 183.324 137.452 184.179 138.904 184.179ZM139.083 183.125C138.148 183.125 137.472 182.707 137.472 181.892C137.472 180.997 138.288 180.719 139.202 180.599C139.699 180.54 141.032 180.401 141.231 180.162V181.236C141.231 182.19 140.475 183.125 139.083 183.125ZM150.73 184.179C152.063 184.179 152.759 183.463 152.997 182.966H153.057V184H154.23V178.969C154.23 176.543 152.381 176.264 151.406 176.264C150.253 176.264 148.94 176.662 148.344 178.054L149.457 178.452C149.716 177.895 150.328 177.298 151.446 177.298C152.525 177.298 153.057 177.87 153.057 178.849V178.889C153.057 179.456 152.48 179.406 151.088 179.585C149.671 179.769 148.125 180.082 148.125 181.832C148.125 183.324 149.278 184.179 150.73 184.179ZM150.909 183.125C149.975 183.125 149.298 182.707 149.298 181.892C149.298 180.997 150.114 180.719 151.028 180.599C151.526 180.54 152.858 180.401 153.057 180.162V181.236C153.057 182.19 152.301 183.125 150.909 183.125ZM157.545 179.406C157.545 178.074 158.37 177.318 159.494 177.318C160.583 177.318 161.244 178.029 161.244 179.227V184H162.417V179.148C162.417 177.199 161.378 176.264 159.832 176.264C158.679 176.264 157.963 176.781 157.605 177.557H157.505V176.364H156.372V184H157.545V179.406ZM167.445 184.159C168.916 184.159 169.413 183.244 169.672 182.827H169.811V184H170.945V173.818H169.771V177.577H169.672C169.413 177.179 168.956 176.264 167.465 176.264C165.536 176.264 164.203 177.795 164.203 180.202C164.203 182.628 165.536 184.159 167.445 184.159ZM167.604 183.105C166.132 183.105 165.377 181.812 165.377 180.182C165.377 178.571 166.112 177.318 167.604 177.318C169.036 177.318 169.791 178.472 169.791 180.182C169.791 181.912 169.016 183.105 167.604 183.105ZM175.504 184.179C176.836 184.179 177.532 183.463 177.771 182.966H177.83V184H179.004V178.969C179.004 176.543 177.154 176.264 176.18 176.264C175.026 176.264 173.714 176.662 173.117 178.054L174.231 178.452C174.489 177.895 175.101 177.298 176.22 177.298C177.298 177.298 177.83 177.87 177.83 178.849V178.889C177.83 179.456 177.254 179.406 175.862 179.585C174.445 179.769 172.899 180.082 172.899 181.832C172.899 183.324 174.052 184.179 175.504 184.179ZM175.683 183.125C174.748 183.125 174.072 182.707 174.072 181.892C174.072 180.997 174.887 180.719 175.802 180.599C176.299 180.54 177.631 180.401 177.83 180.162V181.236C177.83 182.19 177.075 183.125 175.683 183.125ZM182 184.08C182.492 184.08 182.895 183.677 182.895 183.185C182.895 182.692 182.492 182.29 182 182.29C181.508 182.29 181.105 182.692 181.105 183.185C181.105 183.677 181.508 184.08 182 184.08Z" fill="#777777"/>
<path d="M88.9691 113.493H93.0955C93.0359 109.864 90.0529 107.358 85.5188 107.358C81.0543 107.358 77.783 109.824 77.8029 113.523C77.793 116.526 79.9109 118.246 83.3512 119.071L85.5685 119.628C87.7859 120.165 89.0188 120.801 89.0288 122.173C89.0188 123.665 87.6069 124.679 85.4194 124.679C83.1822 124.679 81.5714 123.645 81.4322 121.607H77.266C77.3754 126.011 80.5273 128.288 85.4691 128.288C90.4407 128.288 93.364 125.912 93.3739 122.183C93.364 118.793 90.8086 116.993 87.2688 116.197L85.4393 115.76C83.6694 115.352 82.1879 114.696 82.2177 113.234C82.2177 111.922 83.381 110.957 85.489 110.957C87.5472 110.957 88.81 111.892 88.9691 113.493ZM103.151 128.298C106.929 128.298 109.474 126.459 110.071 123.625L106.153 123.366C105.726 124.53 104.632 125.136 103.22 125.136C101.102 125.136 99.7599 123.734 99.7599 121.457V121.447H110.161V120.284C110.161 115.094 107.018 112.528 102.982 112.528C98.4872 112.528 95.5739 115.72 95.5739 120.433C95.5739 125.276 98.4474 128.298 103.151 128.298ZM99.7599 118.822C99.8494 117.082 101.172 115.69 103.051 115.69C104.891 115.69 106.163 117.003 106.173 118.822H99.7599ZM117.161 107.636H112.925V128H117.161V107.636ZM124.909 128.288C127.166 128.288 128.627 127.304 129.373 125.882H129.493V128H133.51V117.699C133.51 114.06 130.427 112.528 127.027 112.528C123.368 112.528 120.961 114.278 120.375 117.062L124.292 117.381C124.581 116.366 125.485 115.621 127.007 115.621C128.449 115.621 129.274 116.347 129.274 117.599V117.659C129.274 118.643 128.23 118.773 125.575 119.031C122.552 119.31 119.838 120.324 119.838 123.734C119.838 126.757 121.995 128.288 124.909 128.288ZM126.122 125.365C124.819 125.365 123.885 124.759 123.885 123.595C123.885 122.402 124.869 121.815 126.36 121.607C127.285 121.477 128.797 121.259 129.304 120.92V122.541C129.304 124.142 127.981 125.365 126.122 125.365ZM136.796 128H141.032V118.832C141.032 117.142 142.105 116.018 143.517 116.018C144.909 116.018 145.844 116.973 145.844 118.474V128H149.951V118.673C149.951 117.092 150.855 116.018 152.397 116.018C153.749 116.018 154.763 116.864 154.763 118.564V128H158.989V117.729C158.989 114.418 157.02 112.528 154.176 112.528C151.939 112.528 150.199 113.672 149.573 115.422H149.414C148.926 113.652 147.365 112.528 145.267 112.528C143.209 112.528 141.648 113.622 141.012 115.422H140.833V112.727H136.796V128ZM166.69 128.288C168.947 128.288 170.409 127.304 171.154 125.882H171.274V128H175.291V117.699C175.291 114.06 172.208 112.528 168.808 112.528C165.149 112.528 162.743 114.278 162.156 117.062L166.074 117.381C166.362 116.366 167.267 115.621 168.788 115.621C170.23 115.621 171.055 116.347 171.055 117.599V117.659C171.055 118.643 170.011 118.773 167.356 119.031C164.333 119.31 161.619 120.324 161.619 123.734C161.619 126.757 163.777 128.288 166.69 128.288ZM167.903 125.365C166.6 125.365 165.666 124.759 165.666 123.595C165.666 122.402 166.65 121.815 168.142 121.607C169.066 121.477 170.578 121.259 171.085 120.92V122.541C171.085 124.142 169.762 125.365 167.903 125.365ZM186.701 112.727H183.827V109.068H179.591V112.727H177.503V115.909H179.591V123.864C179.571 126.857 181.61 128.338 184.682 128.209C185.776 128.169 186.551 127.95 186.979 127.811L186.313 124.659C186.104 124.699 185.657 124.798 185.259 124.798C184.414 124.798 183.827 124.48 183.827 123.307V115.909H186.701V112.727ZM194.521 107.636H190.096L190.494 121.895H194.133L194.521 107.636ZM192.314 128.259C193.586 128.259 194.69 127.195 194.7 125.872C194.69 124.57 193.586 123.506 192.314 123.506C191.001 123.506 189.917 124.57 189.927 125.872C189.917 127.195 191.001 128.259 192.314 128.259Z" fill="#373737"/>
<path d="M166.988 52.7517C165.482 50.5634 166.322 47.4001 165.948 43.9074C165.562 38.2091 163.114 32.6884 158.364 28.2727L142.188 13.2317C142.188 13.2317 139.001 10.2656 136.032 13.4549C133.068 16.6421 136.258 19.6082 136.258 19.6082L143.091 25.9652L149.015 31.4729C149.015 31.4729 147.531 33.0676 140.975 26.9706L118.831 6.37424C118.831 6.37424 115.64 3.41024 112.674 6.59957C109.71 9.78674 112.897 12.7529 112.897 12.7529L133.835 32.2291C133.79 32.1857 132.252 33.7284 132.223 33.7024L109.82 12.8656C109.82 12.8656 106.631 9.89941 103.665 13.0887C100.698 16.2781 103.888 19.2421 103.888 19.2421L126.293 40.0832C126.319 40.1092 124.876 41.7386 124.92 41.7797L105.593 23.8007C105.593 23.8007 102.404 20.8346 99.4374 24.0239C96.4712 27.2132 99.6605 30.1794 99.6605 30.1794L120.209 49.2894C120.398 49.4649 119.126 51.2567 119.362 51.4756L104.555 37.7042C104.555 37.7042 101.366 34.7381 98.3995 37.9296C95.4334 41.1189 98.6227 44.0851 98.6227 44.0851L122.775 66.5382C126.807 70.2887 130.947 72.1867 135.939 72.8822C136.955 73.0231 138.255 73.0231 138.788 73.0902C140.472 73.3026 141.95 73.9006 143.928 75.1139C146.474 76.6739 150.293 77.3239 152.488 74.9774L159.972 66.9716L166.881 59.5789C169.074 57.2346 168.682 55.2109 166.988 52.7517Z" fill="#EF9645"/>
<path d="M101.238 75.8897C100.809 75.8906 100.389 75.7641 100.032 75.5262C99.6755 75.2883 99.3974 74.9497 99.2332 74.5535C99.0691 74.1572 99.0264 73.7211 99.1106 73.3005C99.1947 72.8799 99.402 72.4938 99.706 72.1912L107.4 64.5017C107.601 64.3005 107.84 64.1409 108.103 64.0321C108.365 63.9232 108.647 63.8672 108.932 63.8672C109.216 63.8672 109.498 63.9232 109.761 64.0321C110.023 64.1409 110.262 64.3005 110.463 64.5017C110.665 64.7028 110.824 64.9417 110.933 65.2045C111.042 65.4673 111.098 65.749 111.098 66.0335C111.098 66.318 111.042 66.5997 110.933 66.8625C110.824 67.1254 110.665 67.3642 110.463 67.5653L102.77 75.257C102.569 75.4582 102.33 75.6177 102.067 75.7263C101.804 75.8348 101.522 75.8904 101.238 75.8897ZM115.854 77.8874C115.508 77.8878 115.167 77.8053 114.859 77.6467C114.551 77.4881 114.286 77.2579 114.086 76.9757C113.886 76.6934 113.756 76.3672 113.708 76.0244C113.659 75.6816 113.694 75.3323 113.809 75.0057L115.913 68.9975C116 68.721 116.142 68.4648 116.33 68.2442C116.519 68.0237 116.749 67.8431 117.009 67.7133C117.268 67.5835 117.551 67.5071 117.84 67.4886C118.13 67.4702 118.42 67.51 118.694 67.6057C118.968 67.7015 119.219 67.8512 119.434 68.0461C119.649 68.2409 119.822 68.4769 119.944 68.7401C120.066 69.0032 120.134 69.2882 120.144 69.578C120.154 69.8679 120.105 70.1568 120.001 70.4275L117.897 76.4357C117.749 76.8595 117.473 77.2269 117.107 77.4869C116.741 77.747 116.303 77.8869 115.854 77.8874ZM99.2423 61.2755C98.7327 61.2727 98.2403 61.0905 97.8516 60.7609C97.4629 60.4313 97.2027 59.9754 97.1166 59.4731C97.0305 58.9708 97.1241 58.4542 97.3808 58.014C97.6376 57.5738 98.0412 57.238 98.5208 57.0657L103.927 55.1568C104.195 55.0621 104.479 55.0211 104.763 55.0363C105.048 55.0514 105.326 55.1224 105.583 55.2451C105.839 55.3678 106.069 55.5399 106.26 55.7515C106.45 55.9632 106.597 56.2102 106.691 56.4785C106.786 56.7468 106.827 57.0312 106.812 57.3153C106.797 57.5995 106.726 57.8778 106.603 58.1346C106.48 58.3913 106.308 58.6213 106.097 58.8116C105.885 59.0018 105.638 59.1484 105.37 59.2432L99.9638 61.152C99.732 61.2338 99.488 61.2755 99.2423 61.2755ZM163.072 14.1137C162.643 14.114 162.224 13.9871 161.867 13.7489C161.511 13.5107 161.233 13.172 161.069 12.7757C160.905 12.3794 160.862 11.9433 160.946 11.5227C161.03 11.1021 161.237 10.7159 161.54 10.413L169.236 2.72135C169.643 2.31508 170.194 2.08695 170.769 2.08716C171.344 2.08736 171.895 2.31588 172.301 2.72243C172.707 3.12898 172.936 3.68028 172.935 4.25503C172.935 4.82978 172.707 5.38091 172.3 5.78718L164.604 13.4788C164.403 13.6807 164.165 13.8408 163.902 13.9498C163.639 14.0587 163.357 14.1145 163.072 14.1137ZM154.05 10.4368C153.704 10.437 153.363 10.3541 153.055 10.1952C152.748 10.0363 152.482 9.80604 152.282 9.52362C152.082 9.2412 151.952 8.91489 151.904 8.57203C151.856 8.22917 151.89 7.87974 152.005 7.55301L154.107 1.54485C154.296 1.00239 154.694 0.557482 155.211 0.307996C155.729 0.0585102 156.325 0.0248834 156.867 0.214513C157.409 0.404143 157.854 0.801496 158.104 1.31916C158.353 1.83682 158.387 2.43239 158.197 2.97485L156.096 8.98301C155.948 9.40761 155.671 9.77567 155.305 10.0362C154.938 10.2967 154.5 10.4367 154.05 10.4368ZM167.36 22.9472C166.851 22.9444 166.358 22.7622 165.969 22.4326C165.581 22.103 165.321 21.647 165.234 21.1447C165.148 20.6424 165.242 20.1259 165.499 19.6857C165.755 19.2454 166.159 18.9097 166.639 18.7373L172.042 16.8285C172.584 16.6372 173.18 16.6689 173.698 16.9168C174.217 17.1646 174.616 17.6083 174.807 18.1502C174.998 18.6921 174.967 19.2878 174.719 19.8062C174.471 20.3247 174.027 20.7235 173.485 20.9148L168.082 22.8237C167.85 22.9054 167.606 22.9472 167.36 22.9472Z" fill="#FA743E"/>
<path d="M173.679 51.6143C172.246 49.3783 173.193 46.2431 172.938 42.7396C172.743 37.0326 170.483 31.4318 165.885 26.8579L150.224 11.2818C150.224 11.2818 147.139 8.21161 144.065 11.2991C140.994 14.3844 144.082 17.4568 144.082 17.4568L150.699 24.0413L156.432 29.7439C156.432 29.7439 154.894 31.2866 148.547 24.9729C142.197 18.6571 127.11 3.64211 127.11 3.64211C127.11 3.64211 124.023 0.571945 120.951 3.65945C117.878 6.74478 120.966 9.81495 120.966 9.81495L141.237 29.9866C141.194 29.9433 139.603 31.4318 139.575 31.4036L117.887 9.82361C117.887 9.82361 114.799 6.75128 111.727 9.83878C108.657 12.9263 111.742 15.9964 111.742 15.9964L133.433 37.5808C133.459 37.6068 131.959 39.1863 132.003 39.2296L113.294 20.6114C113.294 20.6114 110.206 17.5413 107.134 20.6288C104.061 23.7163 107.149 26.7886 107.149 26.7886L127.041 46.5811C127.223 46.7609 125.893 48.5116 126.12 48.7391L111.786 34.4759C111.786 34.4759 108.698 31.4058 105.626 34.4933C102.553 37.5808 105.641 40.6531 105.641 40.6531L129.019 63.9058C132.924 67.7906 136.997 69.8251 141.963 70.6896C142.975 70.8651 144.275 70.9084 144.803 70.993C146.478 71.2616 147.934 71.9094 149.873 73.1899C152.365 74.8344 156.161 75.6123 158.434 73.3416L166.184 65.5936L173.338 58.4393C175.611 56.1643 175.288 54.1276 173.679 51.6143Z" fill="#FFDB5E"/>
</svg>
