<svg width="30" height="30" viewBox="0 0 30 30" fill="none" xmlns="http://www.w3.org/2000/svg">
<circle cx="15" cy="15" r="15" fill="url(#paint0_linear)"/>
<path d="M9.94691 15.6292V17.5108C9.94691 17.9996 10.2148 18.455 10.6433 18.6893L13.9914 20.5174C14.3932 20.7384 14.8753 20.7384 15.2771 20.5174L18.6251 18.6893C19.0537 18.455 19.3215 17.9996 19.3215 17.5108V15.6292L15.2771 17.8389C14.8753 18.0599 14.3932 18.0599 13.9914 17.8389L9.94691 15.6292ZM13.9914 9.16071L8.34653 12.2409C7.88449 12.4954 7.88449 13.165 8.34653 13.4195L13.9914 16.4997C14.3932 16.7207 14.8753 16.7207 15.2771 16.4997L20.6608 13.5601V17.5175C20.6608 17.8858 20.9621 18.1871 21.3304 18.1871C21.6987 18.1871 22 17.8858 22 17.5175V13.2253C22 12.9775 21.8661 12.7565 21.6518 12.636L15.2771 9.16071C15.0792 9.05519 14.8584 9 14.6342 9C14.41 9 14.1892 9.05519 13.9914 9.16071Z" fill="white"/>
<defs>
<linearGradient id="paint0_linear" x1="-0.436894" y1="30" x2="34.9516" y2="24.2764" gradientUnits="userSpaceOnUse">
<stop stop-color="#F9A543"/>
<stop offset="1" stop-color="#FFC076"/>
</linearGradient>
</defs>
</svg>
