<svg width="114" height="15" viewBox="0 0 114 15" fill="none" xmlns="http://www.w3.org/2000/svg">
<path d="M96.2784 7.63636C96.2784 9.78409 96.858 11.5739 97.8977 13.0909H98.7841C97.9659 11.9659 97.3182 9.66477 97.3182 7.63636C97.3182 5.60795 97.9659 3.30682 98.7841 2.18182H97.8977C96.858 3.69886 96.2784 5.48864 96.2784 7.63636ZM102.978 12.1193C104.64 12.1193 105.859 10.892 105.859 9.22159C105.859 7.52983 104.683 6.28977 103.081 6.28977C102.493 6.28977 101.922 6.49858 101.564 6.78409H101.512L101.819 4.21023H105.467V3.27273H100.933L100.404 7.56818L101.393 7.6875C101.755 7.42756 102.373 7.24006 102.91 7.24432C104.022 7.25284 104.836 8.09659 104.836 9.23864C104.836 10.3594 104.052 11.1818 102.978 11.1818C102.083 11.1818 101.372 10.6065 101.291 9.81818H100.268C100.332 11.1477 101.478 12.1193 102.978 12.1193ZM109.717 7.63636C109.717 5.48864 109.137 3.69886 108.097 2.18182H107.211C108.029 3.30682 108.677 5.60795 108.677 7.63636C108.677 9.66477 108.029 11.9659 107.211 13.0909H108.097C109.137 11.5739 109.717 9.78409 109.717 7.63636Z" fill="#777777"/>
<path d="M12.8059 5.45001L8.83873 4.87344L7.06529 1.27813C7.01685 1.17969 6.93716 1.10001 6.83873 1.05157C6.59185 0.929693 6.29185 1.03126 6.16841 1.27813L4.39498 4.87344L0.427788 5.45001C0.318413 5.46563 0.218413 5.51719 0.141851 5.59532C0.0492908 5.69045 -0.00171392 5.81844 4.3978e-05 5.95117C0.00180188 6.08389 0.0561785 6.21048 0.151226 6.30313L3.02154 9.10157L2.34341 13.0531C2.32751 13.1451 2.33768 13.2396 2.37278 13.326C2.40787 13.4125 2.46648 13.4873 2.54196 13.5422C2.61744 13.597 2.70677 13.6296 2.79982 13.6362C2.89287 13.6428 2.98592 13.6233 3.06841 13.5797L6.61685 11.7141L10.1653 13.5797C10.2622 13.6313 10.3747 13.6484 10.4825 13.6297C10.7544 13.5828 10.9372 13.325 10.8903 13.0531L10.2122 9.10157L13.0825 6.30313C13.1606 6.22657 13.2122 6.12657 13.2278 6.01719C13.27 5.74376 13.0794 5.49063 12.8059 5.45001Z" fill="#FFCC48"/>
<path d="M31.8059 5.45001L27.8387 4.87344L26.0653 1.27813C26.0169 1.17969 25.9372 1.10001 25.8387 1.05157C25.5919 0.929693 25.2919 1.03126 25.1684 1.27813L23.395 4.87344L19.4278 5.45001C19.3184 5.46563 19.2184 5.51719 19.1419 5.59532C19.0493 5.69045 18.9983 5.81844 19 5.95117C19.0018 6.08389 19.0562 6.21048 19.1512 6.30313L22.0215 9.10157L21.3434 13.0531C21.3275 13.1451 21.3377 13.2396 21.3728 13.326C21.4079 13.4125 21.4665 13.4873 21.542 13.5422C21.6174 13.597 21.7068 13.6296 21.7998 13.6362C21.8929 13.6428 21.9859 13.6233 22.0684 13.5797L25.6169 11.7141L29.1653 13.5797C29.2622 13.6313 29.3747 13.6484 29.4825 13.6297C29.7544 13.5828 29.9372 13.325 29.8903 13.0531L29.2122 9.10157L32.0825 6.30313C32.1606 6.22657 32.2122 6.12657 32.2278 6.01719C32.27 5.74376 32.0794 5.49063 31.8059 5.45001Z" fill="#FFCC48"/>
<path d="M50.8059 5.45001L46.8387 4.87344L45.0653 1.27813C45.0169 1.17969 44.9372 1.10001 44.8387 1.05157C44.5919 0.929693 44.2919 1.03126 44.1684 1.27813L42.395 4.87344L38.4278 5.45001C38.3184 5.46563 38.2184 5.51719 38.1419 5.59532C38.0493 5.69045 37.9983 5.81844 38 5.95117C38.0018 6.08389 38.0562 6.21048 38.1512 6.30313L41.0215 9.10157L40.3434 13.0531C40.3275 13.1451 40.3377 13.2396 40.3728 13.326C40.4079 13.4125 40.4665 13.4873 40.542 13.5422C40.6174 13.597 40.7068 13.6296 40.7998 13.6362C40.8929 13.6428 40.9859 13.6233 41.0684 13.5797L44.6169 11.7141L48.1653 13.5797C48.2622 13.6313 48.3747 13.6484 48.4825 13.6297C48.7544 13.5828 48.9372 13.325 48.8903 13.0531L48.2122 9.10157L51.0825 6.30313C51.1606 6.22657 51.2122 6.12657 51.2278 6.01719C51.27 5.74376 51.0794 5.49063 50.8059 5.45001Z" fill="#FFCC48"/>
<path d="M69.8059 5.45001L65.8387 4.87344L64.0653 1.27813C64.0169 1.17969 63.9372 1.10001 63.8387 1.05157C63.5919 0.929693 63.2919 1.03126 63.1684 1.27813L61.395 4.87344L57.4278 5.45001C57.3184 5.46563 57.2184 5.51719 57.1419 5.59532C57.0493 5.69045 56.9983 5.81844 57 5.95117C57.0018 6.08389 57.0562 6.21048 57.1512 6.30313L60.0215 9.10157L59.3434 13.0531C59.3275 13.1451 59.3377 13.2396 59.3728 13.326C59.4079 13.4125 59.4665 13.4873 59.542 13.5422C59.6174 13.597 59.7068 13.6296 59.7998 13.6362C59.8929 13.6428 59.9859 13.6233 60.0684 13.5797L63.6169 11.7141L67.1653 13.5797C67.2622 13.6313 67.3747 13.6484 67.4825 13.6297C67.7544 13.5828 67.9372 13.325 67.8903 13.0531L67.2122 9.10157L70.0825 6.30313C70.1606 6.22657 70.2122 6.12657 70.2278 6.01719C70.27 5.74376 70.0794 5.49063 69.8059 5.45001Z" fill="#FFCC48"/>
<path d="M88.8059 5.45001L84.8387 4.87344L83.0653 1.27813C83.0169 1.17969 82.9372 1.10001 82.8387 1.05157C82.5919 0.929693 82.2919 1.03126 82.1684 1.27813L80.395 4.87344L76.4278 5.45001C76.3184 5.46563 76.2184 5.51719 76.1419 5.59532C76.0493 5.69045 75.9983 5.81844 76 5.95117C76.0018 6.08389 76.0562 6.21048 76.1512 6.30313L79.0215 9.10157L78.3434 13.0531C78.3275 13.1451 78.3377 13.2396 78.3728 13.326C78.4079 13.4125 78.4665 13.4873 78.542 13.5422C78.6174 13.597 78.7068 13.6296 78.7998 13.6362C78.8929 13.6428 78.9859 13.6233 79.0684 13.5797L82.6169 11.7141L86.1653 13.5797C86.2622 13.6313 86.3747 13.6484 86.4825 13.6297C86.7544 13.5828 86.9372 13.325 86.8903 13.0531L86.2122 9.10157L89.0825 6.30313C89.1606 6.22657 89.2122 6.12657 89.2278 6.01719C89.27 5.74376 89.0794 5.49063 88.8059 5.45001Z" fill="#FFCC48"/>
</svg>
