<svg width="30" height="30" viewBox="0 0 30 30" fill="none" xmlns="http://www.w3.org/2000/svg">
<circle cx="15" cy="15" r="15" fill="url(#paint0_linear)"/>
<path d="M21.7427 18.9665L18.5481 16.062C18.3971 15.9247 18.1987 15.8515 17.9947 15.8578C17.7908 15.8641 17.5972 15.9495 17.455 16.0958L15.5744 18.0298C15.1218 17.9433 14.2117 17.6597 13.275 16.7253C12.3382 15.7877 12.0545 14.8753 11.9704 14.4258L13.9029 12.5444C14.0494 12.4023 14.1348 12.2087 14.1411 12.0047C14.1474 11.8007 14.0741 11.6022 13.9367 11.4513L11.0329 8.25752C10.8954 8.10613 10.7043 8.0143 10.5002 8.00153C10.2961 7.98877 10.095 8.05607 9.93974 8.18915L8.23441 9.65165C8.09854 9.78801 8.01745 9.9695 8.00651 10.1617C7.99472 10.3581 7.76996 15.0121 11.3787 18.6223C14.5269 21.7697 18.4703 22 19.5564 22C19.7152 22 19.8126 21.9953 19.8385 21.9937C20.0307 21.983 20.2121 21.9015 20.3478 21.765L21.8095 20.0589C21.9431 19.9041 22.0109 19.7032 21.9984 19.4991C21.9859 19.295 21.8942 19.1039 21.7427 18.9665V18.9665Z" fill="white"/>
<defs>
<linearGradient id="paint0_linear" x1="30" y1="-9.16666" x2="-6.28696" y2="-7.72156" gradientUnits="userSpaceOnUse">
<stop stop-color="#FF825A"/>
<stop offset="1" stop-color="#E35B3E"/>
</linearGradient>
</defs>
</svg>
