<svg width="24" height="24" viewBox="0 0 24 24" fill="none" xmlns="http://www.w3.org/2000/svg">
<path d="M12 2C6.48602 2 2 6.48602 2 12C2 17.514 6.48602 22 12 22C17.514 22 22 17.514 22 12C22 6.48602 17.514 2 12 2ZM9.91363 10.5711C9.37004 11.1146 9.07074 11.8373 9.07074 12.6061C9.07074 13.3748 9.37008 14.0974 9.91363 14.6409C11.0357 15.763 12.8614 15.7629 13.9834 14.641C14.3385 14.2859 14.9141 14.286 15.2691 14.641C15.6241 14.9961 15.6241 15.5717 15.269 15.9267C14.3535 16.8421 13.151 17.2998 11.9484 17.2998C10.7459 17.2998 9.54336 16.8421 8.62789 15.9267C7.74094 15.0398 7.25242 13.8605 7.25242 12.6061C7.25242 11.3517 7.7409 10.1724 8.62789 9.28543C9.50395 8.40938 10.6686 7.92102 11.9073 7.91027C12.0546 7.90898 12.2009 7.915 12.3458 7.92711L12.581 7.23438C12.6991 6.88621 13.0155 6.64352 13.3824 6.61945C13.7499 6.59516 14.0946 6.79473 14.2572 7.12453L15.4415 9.52605C15.6636 9.97641 15.4786 10.5214 15.0283 10.7435L12.6266 11.9279C12.4989 11.9909 12.3614 12.0217 12.2247 12.0217C12.0085 12.0217 11.7945 11.9446 11.6251 11.7961C11.3487 11.5536 11.2455 11.1685 11.3637 10.8203L11.7296 9.74254C11.0655 9.79266 10.4161 10.0687 9.91363 10.5711Z" fill="url(#paint0_linear)"/>
<defs>
<linearGradient id="paint0_linear" x1="1.70874" y1="22" x2="25.3011" y2="18.1843" gradientUnits="userSpaceOnUse">
<stop stop-color="#F9A543"/>
<stop offset="1" stop-color="#FFC076"/>
</linearGradient>
</defs>
</svg>
