<svg width="411" height="431" viewBox="0 0 411 431" fill="none" xmlns="http://www.w3.org/2000/svg">
<g clip-path="url(#clip0)">
<rect width="411" height="431" fill="#FFE8D2"/>
<path d="M-147.511 221.472L-1.07353 -32.1652L145.364 221.472H-147.511Z" stroke="#FFB36C" stroke-width="1.83482"/>
<circle cx="419.975" cy="308.975" r="131.058" stroke="#FFB36C" stroke-width="1.83482"/>
<path d="M182.659 299.486L184.141 286.308H216.253C217.241 288.749 216.154 294.215 217.735 298.51C228.603 297.046 236.633 299.324 240.256 300.951C238.115 308.76 227.609 324.378 202.71 324.378C173.069 334.628 146.227 306.878 157.754 302.415C167.839 298.51 177.719 298.51 182.659 299.486Z" fill="#EC59B0"/>
<path d="M234.757 246.332C234.757 272.846 221.184 291.807 198.376 291.807C175.568 291.807 160.521 272.846 160.521 246.332C160.521 219.818 175.568 198.324 198.376 198.324C221.184 198.324 234.757 219.818 234.757 246.332Z" fill="#EC59B0"/>
<path d="M216.427 286.308C212.384 288.704 201.774 292.777 191.682 289.902" stroke="black" stroke-width="0.458705" stroke-linecap="round"/>
<path d="M138.41 309.118C145.066 305.156 163.698 300.038 169.735 299.213C171.693 312.089 179.035 320.013 201.06 320.013C223.085 320.013 231.406 301.689 231.406 298.223C244.719 299.015 262.405 308.622 269.584 313.08V439.363H133.026C140.857 429.458 138.41 320.013 138.41 309.118Z" fill="#FFB822"/>
<path d="M200.846 266.145C200.155 267.367 199.187 269.995 200.846 270.728" stroke="black" stroke-width="0.917411" stroke-linecap="round"/>
<path d="M194.431 278.06C196.898 280.226 204.794 280.767 207.262 278.06" stroke="black" stroke-width="0.917411" stroke-linecap="round"/>
<ellipse cx="197.639" cy="187.785" rx="15.1222" ry="14.2057" fill="#231F20"/>
<path d="M185.598 195.783C160.021 199.687 154.322 235.804 157.765 252.398C163.274 243.027 159.979 251.91 162.192 250.445C162.684 250.12 168.875 248.981 172.81 248.981C176.745 248.981 178.384 241.823 178.712 238.244C179.204 239.871 181.073 243.906 184.615 247.029C196.131 237.268 232.037 247.029 234.004 246.053C235.578 245.272 236.955 249.795 237.447 250.934C238.595 245.89 239.802 228.971 234.293 217.257C227.407 202.616 217.569 190.902 185.598 195.783Z" fill="#231F20"/>
<path d="M155.953 250.102C158.163 241.532 162.092 245.946 163.78 249.225C164.689 251.434 166.691 257.517 167.437 264.171C163.586 274.014 154.329 257.714 155.953 250.102Z" fill="#EC59B0"/>
<path d="M240.561 250.634C238.856 241.949 234.675 246.127 232.798 249.301C231.763 251.454 229.408 257.409 228.275 264.008C231.544 274.059 241.738 258.327 240.561 250.634Z" fill="#EC59B0"/>
<ellipse cx="185.724" cy="256.064" rx="3.20774" ry="4.58248" fill="#231F20"/>
<ellipse cx="215.51" cy="256.064" rx="2.74949" ry="4.58248" fill="#231F20"/>
<path d="M188.932 247.873C186.766 246.838 181.533 245.743 177.934 249.648" stroke="black" stroke-width="1.37612" stroke-linecap="round" stroke-linejoin="round"/>
<path d="M210.928 248.79C213.094 247.754 218.327 246.659 221.926 250.565" stroke="black" stroke-width="1.37612" stroke-linecap="round" stroke-linejoin="round"/>
<path d="M237.274 251.343C237.827 252.751 238.303 256.182 235.781 258.641" stroke="black" stroke-width="0.917411" stroke-linecap="round"/>
<path d="M159.243 250.638C158.609 252.012 157.934 255.409 160.307 258.011" stroke="black" stroke-width="0.917411" stroke-linecap="round"/>
<path d="M313.785 242.635C323.886 249.238 322.141 271.203 320.005 281.36L355.236 280.842C355.092 276.036 354.709 264.663 354.331 257.62C353.859 248.816 367.13 217.884 354.531 229.547C343.848 239.437 354.331 219.853 351.272 215.115C346.399 207.571 344.918 216.603 343.096 225.776C341.273 234.949 340.561 227.585 340.049 224.395C339.537 221.206 339.47 209.066 333.43 209.569C327.389 210.071 333.643 222.62 332.538 227.472C330.716 236.644 329.405 216.758 326.598 213.938C318.542 207.754 319.38 218.836 321.522 229.241C323.664 239.646 318.894 233.402 313.719 230.494C308.543 227.587 301.159 234.381 313.785 242.635Z" fill="#EC59B0"/>
<path d="M278.321 311.213C263.331 302.644 243.032 300.192 234.757 300.037L240.378 383.396C251.933 388.674 279.085 392.911 315.06 375.773C360.03 354.351 359.4 274.889 359.4 265.109C328.015 259.521 328.863 269.389 319.494 269.389C319.963 311.301 297.058 321.924 278.321 311.213Z" fill="#FFB822"/>
<path d="M255.836 380.707C257.954 383.297 263.852 388.386 270.5 388.021" stroke="black" stroke-width="1.83482" stroke-linecap="round"/>
<path d="M191.18 294.603C188.961 288.023 181.251 293.02 177.674 296.341C175.367 300.642 174.676 304.163 177.612 318.087C180.548 332.011 193.955 302.827 191.18 294.603Z" fill="#231F20"/>
<path d="M172.896 345.681L171.801 335.83H148.085C147.356 337.654 148.158 341.741 146.991 344.952C138.964 343.857 133.034 345.56 130.358 346.776C131.939 352.614 139.698 364.289 158.087 364.289C179.979 371.951 199.9 351.674 191.387 348.338C183.939 345.419 176.545 344.952 172.896 345.681Z" fill="#EC59B0"/>
<path d="M134.371 306.306C134.371 326.071 144.444 340.206 161.371 340.206C178.298 340.206 185.865 327.078 185.865 307.313C185.865 287.548 178.298 270.518 161.371 270.518C144.444 270.518 134.371 286.541 134.371 306.306Z" fill="#EC59B0"/>
<path d="M147.849 335.684C151.821 338.332 162.148 342.379 171.68 337.386" stroke="black" stroke-width="0.458705" stroke-linecap="round"/>
<path d="M200.05 352.978C195.087 350.059 187.398 346.289 182.898 345.68C181.439 355.167 175.966 361.005 159.547 361.005C143.128 361.005 136.925 347.505 136.925 344.951C127.001 345.534 121.426 349.694 116.075 352.978V448.936C144.048 448.936 185.747 452 200.05 452C194.212 444.703 200.05 361.005 200.05 352.978Z" fill="#437CEC"/>
<path d="M160.682 320.87C161.047 321.843 161.557 323.935 160.682 324.519" stroke="black" stroke-width="0.917411" stroke-linecap="round"/>
<path d="M165.425 330.761C163.6 332.221 157.763 332.586 155.938 330.761" stroke="black" stroke-width="0.917411" stroke-linecap="round"/>
<path d="M189.552 308.992C187.914 302.64 185.002 305.912 183.75 308.341C183.077 309.979 181.593 314.488 181.04 319.419C183.894 326.715 190.755 314.633 189.552 308.992Z" fill="#EC59B0"/>
<ellipse rx="2.18917" ry="3.28376" transform="matrix(-1 0 0 1 171.992 313.209)" fill="#231F20"/>
<ellipse rx="2.18917" ry="3.28376" transform="matrix(-1 0 0 1 148.966 313.209)" fill="#231F20"/>
<path d="M168.304 306.236C169.885 305.384 173.703 304.484 176.331 307.695" stroke="black" stroke-width="0.917411" stroke-linecap="round" stroke-linejoin="round"/>
<path d="M151.885 306.671C150.304 305.82 146.485 304.92 143.858 308.131" stroke="black" stroke-width="0.917411" stroke-linecap="round" stroke-linejoin="round"/>
<path d="M187.113 309.388C187.583 310.406 188.084 312.924 186.324 314.853" stroke="black" stroke-width="0.917411" stroke-linecap="round"/>
<path d="M127.99 289.837C131.387 283.781 137.539 285.913 140.441 289.837C141.914 294.491 141.943 298.078 136.486 311.221C131.028 324.363 123.745 297.408 127.99 289.837Z" fill="#231F20"/>
<path d="M170.971 273.48C152.814 263.266 138.211 278.487 135.779 288.435C135.929 292.262 137.929 300.036 138.629 297.877C161.893 283.125 187.809 309.761 195.936 293.906C204.063 278.05 197.071 275.181 190.262 276.883C184.035 278.44 187.162 278.733 170.971 273.48Z" fill="#231F20"/>
<path d="M86.2187 305.236C79.4222 309.679 80.5967 324.459 82.0336 331.294L58.328 330.945C58.425 327.711 58.6825 320.059 58.9368 315.32C59.2545 309.396 51.8932 289.408 59.2653 295.859C63.3861 299.464 58.9368 290.708 60.9957 286.72C63.768 281.35 65.2704 287.721 66.4968 293.893C67.7233 300.065 68.2023 295.11 68.5469 292.964C68.8916 290.818 68.9363 282.649 73.0007 282.988C77.065 283.326 72.8574 291.769 73.6004 295.034C74.8269 301.206 75.7087 287.825 77.5976 285.927C83.0182 281.767 82.4542 289.223 81.0129 296.224C79.5716 303.226 82.781 299.024 86.2634 297.068C89.7459 295.111 94.7144 299.683 86.2187 305.236Z" fill="#EC59B0"/>
<path d="M114.373 353.84C125.474 347.463 128.457 345.984 134.585 345.868L130.422 407.908L130.269 407.978C121.761 411.885 113.054 415.882 86.5705 403.204C53.2663 387.261 57.0659 330.478 57.0659 323.2C80.3095 319.041 76.2278 326.038 83.1661 326.038C82.8192 357.231 100.496 361.812 114.373 353.84Z" fill="#437CEC"/>
<path d="M122.961 409.38C121.396 411.119 119.515 411.829 116.561 411.829" stroke="black" stroke-width="1.83482" stroke-linecap="round"/>
<path d="M130.247 309.387C131.511 302.95 134.609 306.046 136 308.399C136.768 309.995 138.513 314.409 139.353 319.299C136.93 326.749 129.375 315.089 130.247 309.387Z" fill="#EC59B0"/>
<path d="M132.683 309.911C132.273 310.955 131.921 313.498 133.79 315.321" stroke="black" stroke-width="0.917411" stroke-linecap="round"/>
<path d="M131.981 341.464C134.032 352.831 144.934 363.464 151.345 370.417L159.282 374.701C160.57 368.548 161.691 354.915 155.875 349.606C148.605 342.969 152.975 329.073 149.819 325.167C146.664 321.262 141.658 322.502 137.606 325.069C133.555 327.635 130.308 332.19 131.981 341.464Z" fill="#51BC84"/>
<path d="M176.029 388.051C171.764 391.941 169.944 401.33 171.133 407.39L157.295 410.82C156.395 395.417 154.434 363.713 153.794 360.122C152.994 355.632 152.066 341.799 162.666 339.172C171.145 337.07 175.311 343.539 176.77 349.427C179.395 361.278 182.147 382.472 176.029 388.051Z" fill="#51BC84"/>
<path d="M154.743 368.64C153.799 362.728 152.441 350.272 154.565 347.745" stroke="#20AF64" stroke-width="1.10089" stroke-linecap="round" stroke-linejoin="round"/>
<path d="M129.093 386.556C147.906 396.895 149.603 406.683 148.1 410.285L162.821 406.637C160.765 404.646 157.335 398.37 160.061 389.194C165.835 372.138 157.234 368.957 149.002 364.746C137.478 358.851 105.577 373.633 129.093 386.556Z" fill="#51BC84"/>
<path d="M144.086 363.467C145.288 363.274 149.22 364.008 155.332 368.493C162.972 374.1 162.964 377.853 160.294 388.515C157.623 399.177 160.484 403.156 161.878 404.998" stroke="#20AF64" stroke-width="1.10089" stroke-linecap="round" stroke-linejoin="round"/>
<path d="M138.634 413.149C137.439 411.574 138.246 409.29 140.165 408.814L178.484 399.318C180.263 398.877 181.968 400.266 181.896 402.097L180.988 425.176C180.876 428.031 178.89 430.469 176.116 431.157L160.171 435.108C157.68 435.725 155.061 434.801 153.51 432.756L138.634 413.149Z" fill="#FFB822"/>
<path d="M166.657 407.5C169.44 410.661 179.557 409.322 184.268 408.257C185.585 415.307 187.846 429.186 186.352 428.307C184.484 427.207 174.555 428.67 165.67 431.75C156.786 434.829 155.263 432.831 158.944 430.293C160.758 426.655 153.729 431.227 150.05 429.061C146.315 426.862 151.474 425.895 157.412 423.984C164.252 421.783 146.483 424.258 146.473 419.947C146.463 415.636 153.411 419.226 156.836 418.438C163.163 416.056 148.464 418.015 147.587 413.794C146.71 409.573 156.304 413.319 159.64 411.679C162.976 410.039 157.117 408.492 157.152 404.607C157.186 400.723 163.178 403.55 166.657 407.5Z" fill="#EC59B0"/>
<path d="M222.237 414.214C245.922 387.528 216.809 358.864 196.578 350.463L190.656 394.941L171.906 403.836C171.05 413.88 171.504 419.476 174.373 429.534C179.307 432.005 204.455 434.249 222.237 414.214Z" fill="#437CEC"/>
<path d="M172.681 403.789C176.619 402.98 186.255 401.261 193.322 394.361" stroke="black" stroke-width="1.37612" stroke-linecap="round"/>
<path d="M189.849 382.54C190.001 386.512 190.582 394.454 191.682 394.454" stroke="black" stroke-width="1.37612" stroke-linecap="round"/>
<circle cx="289.464" cy="115.136" r="77.9022" transform="rotate(80.2291 289.464 115.136)" fill="white"/>
<path fill-rule="evenodd" clip-rule="evenodd" d="M273.466 192.121C233.356 180.507 210.256 138.576 221.87 98.4662C233.484 58.3563 275.415 35.2559 315.525 46.87C355.634 58.484 378.735 100.415 367.121 140.524C357.127 175.04 324.683 196.96 290.269 195.002L288.697 197.197C324.688 199.92 358.887 177.207 369.324 141.162C381.29 99.8358 357.489 56.6333 316.162 44.6669C274.836 32.7006 231.633 56.5017 219.667 97.8283C207.701 139.155 231.502 182.357 272.828 194.324C272.962 194.362 273.095 194.401 273.229 194.439L273.955 192.26C273.792 192.214 273.629 192.168 273.466 192.121Z" fill="#EB6CB0"/>
<path fill-rule="evenodd" clip-rule="evenodd" d="M291.689 196.691L292.764 195.526L291.509 195.241L290.557 196.987L289.14 196.751L262.108 226.08L273.372 194.123L271.535 193.816L258.895 229.676L260.434 230.602L291.689 196.691Z" fill="#EB6CB0"/>
<path d="M331.586 83.8796C358.442 103.473 311.114 154.07 279.911 171.944C281.537 124.84 254.497 92.7482 274.947 84.512C287.902 79.2943 294.611 98.625 292.835 106.119C296.392 92.7301 311.706 69.3749 331.586 83.8796Z" fill="white" stroke="#FFA9D7" stroke-width="4.58705" stroke-linejoin="round"/>
<path d="M252.403 125.147C237.323 136.15 261.91 163.73 280.18 175.44C281.367 176.201 282.891 175.321 282.993 173.915C284.59 151.962 301.71 131.926 285.803 125.52C278.164 122.443 274.208 133.842 275.255 138.262C273.157 130.366 264.127 116.594 252.403 125.147Z" fill="#FFA9D7"/>
</g>
<defs>
<clipPath id="clip0">
<rect width="411" height="431" fill="white"/>
</clipPath>
</defs>
</svg>
